<svg width="75" height="50" viewBox="0 0 75 50" fill="none" xmlns="http://www.w3.org/2000/svg">
<path d="M4.41943 5.07216C12.2132 7.64259 17.8644 13.4897 21.0465 17.5928L24.5225 21.9537L27.0053 19.177C29.7304 16.3299 33.5002 14.7199 37.4418 14.7199H42.7837V0.515503H25.0123C17.301 0.515503 9.92628 2.12553 4.59476 4.9726L4.41943 5.07216Z" fill="#475577"/>
<path d="M10.5083 49.6564C10.5083 49.6564 24.1698 49.6564 28.852 49.6564C32.2455 49.6564 33.364 48.6323 33.7145 48.2818C34.5066 47.4915 36.1423 45.7904 37.443 44.433C35.9189 44.0189 34.486 43.2956 33.2368 42.2956L25.1887 35.8558L21.596 40.0225C18.9345 43.081 15.5514 45.9331 12.4018 48.282C11.7575 48.763 11.1235 49.2217 10.5083 49.6564Z" fill="#475577"/>
<path d="M74.7423 34.3643L69.2561 28.6675C62.3341 21.48 59.2784 18.9024 53.8008 9.45359C52.2264 6.7382 51.0444 3.21348 48.2818 0V14.204H37.4414C33.5003 14.204 29.7304 15.8141 27.0055 18.6614L23.3049 22.8005C22.6888 23.4894 21.8087 23.8831 20.8846 23.8831H20.8519C19.7766 23.8831 18.771 23.3523 18.1678 22.4624C15.6521 18.7529 7.18943 8.76281 0 8.76281C0 8.76281 12.0275 29.725 0 50C0 50 12.3443 43.0564 18.1698 35.4566C18.7822 34.6577 19.7507 34.1924 20.7571 34.1924C20.9861 34.1924 21.214 34.1924 21.4221 34.1924C22.1595 34.1924 22.6504 34.4432 23.226 34.9039L32.8944 42.6386C34.958 44.2895 37.5223 45.1889 40.165 45.1889H50.395C62.0275 45.189 74.7423 34.3643 74.7423 34.3643Z" fill="#E46A53"/>
<path d="M44.5015 25.0859C45.2607 25.0859 45.8761 24.4704 45.8761 23.7113C45.8761 22.9521 45.2607 22.3367 44.5015 22.3367C43.7424 22.3367 43.127 22.9521 43.127 23.7113C43.127 24.4704 43.7424 25.0859 44.5015 25.0859Z" fill="#475577"/>
<path d="M44.5015 31.2715C45.2607 31.2715 45.8761 30.656 45.8761 29.8969C45.8761 29.1378 45.2607 28.5223 44.5015 28.5223C43.7424 28.5223 43.127 29.1378 43.127 29.8969C43.127 30.656 43.7424 31.2715 44.5015 31.2715Z" fill="#475577"/>
<path d="M44.5015 37.457C45.2607 37.457 45.8761 36.8416 45.8761 36.0824C45.8761 35.3233 45.2607 34.7079 44.5015 34.7079C43.7424 34.7079 43.127 35.3233 43.127 36.0824C43.127 36.8416 43.7424 37.457 44.5015 37.457Z" fill="#475577"/>
<path d="M37.629 25.0859C38.3881 25.0859 39.0035 24.4704 39.0035 23.7113C39.0035 22.9521 38.3881 22.3367 37.629 22.3367C36.8698 22.3367 36.2544 22.9521 36.2544 23.7113C36.2544 24.4704 36.8698 25.0859 37.629 25.0859Z" fill="#475577"/>
<path d="M37.629 31.2715C38.3881 31.2715 39.0035 30.656 39.0035 29.8969C39.0035 29.1378 38.3881 28.5223 37.629 28.5223C36.8698 28.5223 36.2544 29.1378 36.2544 29.8969C36.2544 30.656 36.8698 31.2715 37.629 31.2715Z" fill="#475577"/>
<path d="M37.629 37.457C38.3881 37.457 39.0035 36.8416 39.0035 36.0824C39.0035 35.3233 38.3881 34.7079 37.629 34.7079C36.8698 34.7079 36.2544 35.3233 36.2544 36.0824C36.2544 36.8416 36.8698 37.457 37.629 37.457Z" fill="#475577"/>
<path d="M62.1426 31.2715C62.9018 31.2715 63.5172 30.6561 63.5172 29.8969C63.5172 29.1378 62.9018 28.5224 62.1426 28.5224C61.3835 28.5224 60.7681 29.1378 60.7681 29.8969C60.7681 30.6561 61.3835 31.2715 62.1426 31.2715Z" fill="#2A324E"/>
</svg>
