<svg width="69" height="45" viewBox="0 0 69 45" fill="none" xmlns="http://www.w3.org/2000/svg">
<path d="M62.5367 14.6911C59.695 15.1794 56.3675 17.5328 51.9023 16.8834C47.437 16.234 48.2501 11.6078 48.3306 10.5518C48.4111 9.49593 49.1423 8.84783 50.4411 5.51905C51.7399 2.19026 41.3496 0.568072 38.5079 0.648597C35.6661 0.729122 36.8844 1.29799 36.1545 1.21747C35.4246 1.13694 33.6374 0.487547 30.797 0.0810273C27.9565 -0.325493 21.9497 0.892769 16.5922 1.62269C11.2347 2.3526 6.03953 4.08519 2.84711 6.41261C-0.345306 8.73874 0.844383 14.4755 2.84711 17.6679C4.84984 20.8616 7.12271 24.1086 9.55794 25.7853C11.9932 27.4633 17.665 29.857 17.6208 30.2778C17.3507 32.8754 19.1092 39.5317 20.5703 40.3434C22.0315 41.1551 22.2744 40.3434 23.8978 38.2329C25.5213 36.1223 26.4954 34.0118 28.7683 32.713C31.0412 31.4142 36.3987 31.009 41.1068 31.0895C45.8149 31.1701 46.2214 32.6325 47.1136 35.8795C48.0059 39.1264 48.2501 42.2929 50.6853 44.2411C53.1205 46.1892 55.7986 44.1579 57.2598 40.7486C58.7209 37.3393 60.9938 29.3037 63.2666 26.949C65.5395 24.5956 67.8124 22.8085 68.6241 19.5615C69.4359 16.3146 65.3772 14.2053 62.5367 14.6911ZM39.0767 2.10973C42.4042 2.51495 46.5448 3.16435 48.0059 4.46313C49.467 5.76192 48.8995 6.41131 48.3306 7.22305C47.7617 8.03479 47.1942 8.44131 46.7071 9.98427C46.2201 11.5272 45.8136 9.57905 44.9213 7.95557C44.029 6.33208 43.542 5.27747 41.0249 3.81504C38.5079 2.3526 38.7546 2.07077 39.0767 2.10973ZM16.5922 26.8685C15.5363 27.2737 12.7763 25.8944 8.39293 21.3487C4.00952 16.8029 2.54839 11.3636 3.929 9.4154C5.30831 7.46723 8.55528 5.51905 14.3998 4.38261C14.3998 4.38261 16.1038 4.05791 18.6209 3.65269C21.1379 3.24747 24.7901 4.54625 26.7383 7.62957C28.6865 10.7129 27.3877 16.7211 24.7901 21.1863C22.1925 25.6502 17.6468 26.4607 16.5922 26.8685ZM25.7382 32.8208C24.9265 33.3624 24.0069 35.473 22.8159 36.9873C21.625 38.503 21.9497 38.9901 21.3003 39.0979C20.6509 39.207 20.5431 38.1783 20.1638 37.312C19.7846 36.447 19.1897 33.4702 19.0274 32.0091C18.865 30.548 20.2288 30.5726 21.1925 30.9272C22.2211 31.3051 25.2512 31.3051 26.3876 31.6298C27.524 31.9545 26.55 32.2792 25.7382 32.8208ZM64.3226 22.9721C62.9432 24.4333 61.2379 25.4074 60.021 27.6802C58.804 29.9531 56.5298 35.7171 55.6376 38.8823C54.7453 42.0474 53.7699 42.7786 52.3101 42.6981C50.8502 42.6176 50.0372 39.1264 49.632 36.2042C49.2268 33.2819 48.6579 31.7389 47.2786 29.9544C45.8993 28.1699 41.0288 29.4674 33.6413 29.5492C26.2538 29.631 21.4626 28.5725 20.1638 28.0855C18.865 27.5984 22.1925 26.2996 24.5472 24.5943C26.9006 22.889 27.3071 21.4279 29.2553 14.204C31.2035 6.98018 27.7124 4.54366 26.0889 3.81374C24.4654 3.08382 25.6096 2.41235 26.2512 2.51495C30.3099 3.16435 37.5351 3.002 41.5925 7.3854C45.6499 11.7688 46.6253 16.8821 50.3593 18.994C54.0933 21.1058 60.1002 18.264 62.0484 17.6146C63.9966 16.9652 64.4018 17.0458 65.5395 18.264C66.6773 19.4823 65.7019 21.5097 64.3226 22.9721ZM19.2975 6.14116C17.7052 5.79699 15.9428 7.33215 15.0765 8.79329C14.2102 10.2544 15.9428 12.5273 18.2689 12.6896C20.5963 12.852 22.1653 10.0921 22.1107 8.84783C22.0575 7.6023 21.3003 6.57366 19.2975 6.14116ZM19.0819 11.2285C18.2156 11.7156 17.7286 11.3909 16.5922 10.6337C15.4557 9.87517 16.6039 8.18675 17.7286 7.76465C19.4599 7.11525 20.2716 7.7114 20.7587 8.46859C21.2457 9.22578 19.9469 10.7415 19.0819 11.2285ZM33.314 8.41404C32.6127 8.33351 32.0152 9.01018 32.2854 10.0921C32.5555 11.174 33.9634 10.7415 34.3959 10.309C34.8297 9.87517 34.7206 8.57639 33.314 8.41404ZM39.5378 10.7947C38.8482 10.5363 37.4818 11.4974 37.2104 12.2013C36.9402 12.9052 37.1558 14.0949 38.617 14.3664C40.0781 14.6365 40.8899 12.8507 40.8353 12.1467C40.7821 11.4441 39.9703 10.9584 39.5378 10.7947ZM32.123 17.073C31.336 16.8769 30.3372 17.9926 30.5541 19.1836C30.771 20.3746 32.0698 20.1577 32.827 19.6706C33.5842 19.1836 33.4218 17.3977 32.123 17.073ZM28.1189 24.8112C27.6046 24.6398 25.9538 25.5152 26.8201 26.597C27.6864 27.6802 28.3358 27.301 29.2553 26.7594C30.1749 26.2191 29.093 25.1359 28.1189 24.8112ZM35.0453 25.1359C34.4076 25.0125 32.9893 25.8944 33.692 26.7061C34.3959 27.5179 34.2868 27.5179 35.4778 27.0841C36.6688 26.6516 36.4532 25.4061 35.0453 25.1359ZM38.4014 19.833C37.5533 19.6576 36.7234 20.1577 36.7234 21.1863C36.7234 22.2136 37.9676 22.4305 38.8884 22.1604C39.808 21.8889 39.9703 20.1577 38.4014 19.833ZM46.7344 19.2914C45.9421 19.0134 44.407 19.9953 44.894 20.9149C45.3811 21.8357 46.5721 21.6188 47.1123 21.4565C47.6552 21.2941 47.8176 19.6706 46.7344 19.2914ZM45.3278 24.2709C44.8382 24.2943 45.0577 24.9203 44.5706 25.245C44.0836 25.5697 42.9471 25.8944 43.542 26.597C44.1368 27.301 44.9486 27.6257 45.7071 27.301C46.4643 26.9763 47.6552 24.1618 45.3278 24.2709ZM50.5775 22.1591C50.1463 22.111 49.2787 23.1864 49.8203 23.6202C50.3619 24.0527 51.4438 23.6202 51.7139 23.2955C51.9841 22.9721 51.5516 22.2682 50.5775 22.1591ZM50.9022 28.5452C50.4152 28.979 50.9022 29.5739 51.9841 30.548C53.066 31.522 53.9323 32.4961 54.4739 31.9545C55.0155 31.4142 53.1205 29.8986 52.5257 29.0323C52.0477 28.3374 51.3892 28.1127 50.9022 28.5452ZM55.7727 22.7007C54.4804 22.563 53.4998 23.1877 53.7699 23.8371C54.0401 24.4865 54.9064 24.2164 56.7467 24.2164C58.5871 24.2164 59.7236 23.7293 59.182 23.2968C58.6404 22.863 57.287 22.863 55.7727 22.7007Z" fill="#222831"/>
</svg>
