<svg width="54" height="50" viewBox="0 0 54 50" fill="none" xmlns="http://www.w3.org/2000/svg">
<path d="M20.6993 35.9068C21.0771 34.8986 21.2946 33.8135 21.2946 32.6738C21.2946 27.5604 17.1497 23.1507 12.0363 23.1507C7.11826 23.1507 3.10852 27.2521 2.80762 32.0941C7.3211 34.0977 13.576 35.4235 20.6993 35.9068Z" fill="#D13834"/>
<path d="M28.7006 22.225C24.7945 22.225 21.4596 24.648 20.1006 28.0699C20.857 29.4493 21.294 31.0233 21.294 32.6731C21.294 33.8119 21.0765 34.896 20.6997 35.9033C22.6902 36.0385 24.7428 36.1125 26.849 36.1125C30.4089 36.1125 33.8261 35.9116 37.0166 35.532C37.6147 34.3081 37.959 32.9378 37.959 31.4834C37.9589 26.37 33.814 22.225 28.7006 22.225Z" fill="#88C057"/>
<path d="M20.1001 28.0698C21.3056 25.0368 24.0627 22.7926 27.3939 22.3214C28.2179 20.9364 28.7002 19.3245 28.7002 17.596C28.7002 12.4826 24.5553 8.33765 19.4419 8.33765C14.3295 8.33765 10.1836 12.4826 10.1836 17.596C10.1836 19.6837 10.8836 21.603 12.0492 23.1518C15.5609 23.1574 18.5373 25.1063 20.1001 28.0698C20.1252 28.1152 20.0761 28.0244 20.1001 28.0698Z" fill="#ED8F1F"/>
<path d="M24.9973 29.6317C24.9973 30.1428 24.5825 30.5576 24.0714 30.5576C23.5603 30.5576 23.1455 30.1428 23.1455 29.6317C23.1455 29.1206 23.5603 28.7058 24.0714 28.7058C24.5825 28.7058 24.9973 29.1206 24.9973 29.6317Z" fill="white"/>
<path d="M27.7746 27.7801C27.7746 28.2911 27.3598 28.7059 26.8487 28.7059C26.3376 28.7059 25.9229 28.2911 25.9229 27.7801C25.9229 27.269 26.3376 26.8542 26.8487 26.8542C27.3598 26.8542 27.7746 27.269 27.7746 27.7801Z" fill="white"/>
<path d="M25.923 33.335C25.923 33.8461 25.5082 34.2609 24.9972 34.2609C24.4861 34.2609 24.0713 33.8461 24.0713 33.335C24.0713 32.8239 24.4861 32.4091 24.9972 32.4091C25.5083 32.4092 25.923 32.8239 25.923 33.335Z" fill="white"/>
<path d="M18.5158 35.1866C18.5158 35.6977 18.101 36.1125 17.5899 36.1125C17.0789 36.1125 16.6641 35.6977 16.6641 35.1866C16.6641 34.6756 17.0789 34.2608 17.5899 34.2608C18.101 34.2608 18.5158 34.6757 18.5158 35.1866Z" fill="white"/>
<path d="M16.6642 32.4092C16.6642 32.9203 16.2495 33.3351 15.7384 33.3351C15.2273 33.3351 14.8125 32.9203 14.8125 32.4092C14.8125 31.8981 15.2273 31.4833 15.7384 31.4833C16.2495 31.4833 16.6642 31.8981 16.6642 32.4092Z" fill="white"/>
<path d="M18.5158 29.6317C18.5158 30.1428 18.101 30.5576 17.5899 30.5576C17.0789 30.5576 16.6641 30.1428 16.6641 29.6317C16.6641 29.1206 17.0789 28.7058 17.5899 28.7058C18.101 28.7058 18.5158 29.1206 18.5158 29.6317Z" fill="white"/>
<path d="M13.8869 29.6317C13.8869 30.1428 13.4721 30.5576 12.961 30.5576C12.45 30.5576 12.0352 30.1428 12.0352 29.6317C12.0352 29.1206 12.45 28.7058 12.961 28.7058C13.4721 28.7058 13.8869 29.1206 13.8869 29.6317Z" fill="white"/>
<path d="M27.7746 30.5576C27.7746 31.0686 27.3598 31.4834 26.8487 31.4834C26.3376 31.4834 25.9229 31.0686 25.9229 30.5576C25.9229 30.0465 26.3376 29.6317 26.8487 29.6317C27.3598 29.6317 27.7746 30.0465 27.7746 30.5576Z" fill="white"/>
<path d="M26.8491 36.1125C15.9085 36.1125 6.2744 34.2413 0.633261 31.0029C0.223078 31.8389 0 32.7073 0 33.5989C0 40.2463 12.021 45.3708 26.8491 45.3708C41.6772 45.3708 53.6982 40.2463 53.6982 33.5989C53.6982 32.7073 53.4751 31.8389 53.0649 31.0028C47.4238 34.2413 37.7897 36.1125 26.8491 36.1125Z" fill="#7F532F"/>
<path d="M14.8137 16.6701C14.8137 17.1812 14.3989 17.596 13.8878 17.596C13.3767 17.596 12.9619 17.1812 12.9619 16.6701C12.9619 16.159 13.3767 15.7442 13.8878 15.7442C14.399 15.7442 14.8137 16.159 14.8137 16.6701Z" fill="white"/>
<path d="M17.591 13.8926C17.591 14.4037 17.1762 14.8185 16.6651 14.8185C16.1541 14.8185 15.7393 14.4037 15.7393 13.8926C15.7393 13.3815 16.1541 12.9667 16.6651 12.9667C17.1762 12.9667 17.591 13.3815 17.591 13.8926Z" fill="white"/>
<path d="M16.6652 20.3734C16.6652 20.8845 16.2504 21.2993 15.7394 21.2993C15.2283 21.2993 14.8135 20.8845 14.8135 20.3734C14.8135 19.8623 15.2283 19.4475 15.7394 19.4475C16.2504 19.4475 16.6652 19.8623 16.6652 20.3734Z" fill="white"/>
<path d="M18.5178 17.5959C18.5178 18.107 18.103 18.5218 17.5919 18.5218C17.0808 18.5218 16.666 18.107 16.666 17.5959C16.666 17.0848 17.0808 16.67 17.5919 16.67C18.103 16.67 18.5178 17.0848 18.5178 17.5959Z" fill="white"/>
<path d="M26.8487 45.3709C19.1957 45.3709 12.2974 44.0034 7.40625 41.7694V50H46.2912V41.7694C41.3999 44.0034 34.5016 45.3709 26.8487 45.3709Z" fill="#A46F3E"/>
<path d="M48.4756 11.2016C48.0219 9.34438 47.0183 7.61209 45.2676 6.84374C44.4972 6.50488 43.5946 6.3206 42.5882 6.48642C42.5882 6.48642 40.9097 4.34499 40.7366 0.00561235C40.7366 0.00561235 37.0619 -0.255432 36.1074 2.78313C36.1074 2.78313 39.8876 5.21339 39.8107 8.33817C39.8107 8.33817 39.7422 11.2981 40.7366 12.9673C41.5976 14.4135 43.4215 20.3017 37.2175 27.8519C37.6942 28.9666 37.9591 30.1943 37.9591 31.484C37.9591 32.9348 37.6156 34.3022 37.0203 35.5252C39.6728 35.2095 42.1707 34.7744 44.451 34.2188C48.7533 29.5469 51.1985 22.3375 48.4756 11.2016Z" fill="#F9D70B"/>
</svg>
