<svg width="51" height="42" viewBox="0 0 51 42" fill="none" xmlns="http://www.w3.org/2000/svg">
<path d="M6.88054 4.77036C3.15838 7.73979 0.504084 12.6168 0.939123 17.469L0.895055 17.4706C0.967157 20.4522 0.707 23.5406 1.08544 26.6691C1.08705 26.6788 1.08946 26.6909 1.09188 26.7004C1.82321 31.301 6.09152 34.2533 10.3549 34.8808C14.023 35.6466 17.4793 34.4874 20.5116 35.5794C22.8074 36.1206 24.4609 38.0739 26.7614 39.5163V39.5146C33.2263 43.3315 42.0866 41.8264 46.9033 36.0624C49.9284 32.6956 51.0947 28.1387 50.8401 23.7941C50.8426 21.8302 50.8435 19.8484 50.8435 17.8653C50.853 17.327 50.8401 16.7862 50.79 16.2446C50.5082 10.5279 46.3208 5.89461 41.4059 3.63646C36.1427 1.21088 30.3429 0.0868751 24.584 0.00488846C23.7613 -0.00722542 22.9393 0.00316571 22.105 0.0361639C16.9243 0.424341 11.1959 1.13658 6.88091 4.76992L6.88054 4.77036ZM22.1966 1.64467C22.9883 1.61729 23.7832 1.60782 24.5773 1.62042C30.1359 1.70158 35.7125 2.7869 40.7336 5.10094C45.2056 7.15557 48.943 11.3602 49.1847 16.3292C49.1863 16.3413 49.1886 16.3536 49.191 16.3655C49.2258 16.7282 49.2378 17.0904 49.2414 17.4527H49.2319V17.9248C49.068 24.0126 44.6359 29.8244 38.7117 31.3984C38.7079 31.4005 38.7045 31.4008 38.7008 31.4057C34.019 32.7509 28.5356 31.5878 25.0432 28.1202C21.7845 25.4891 17.5795 25.0464 13.7473 25.5115C11.6508 25.5388 9.39031 25.1554 7.47857 24.27C5.55974 23.3813 4.00627 22.0124 3.17829 20.0232C1.21444 15.0677 3.82694 9.25711 7.9097 6.01229C11.7648 2.76475 17.0967 2.02728 22.1968 1.64666L22.1966 1.64467ZM22.6608 3.75631C22.4113 3.75389 22.1743 3.86458 22.0188 4.05983L17.6005 9.57954L15.0248 7.91329C14.8766 7.81856 14.7014 7.7747 14.526 7.789C14.2769 7.80838 14.0508 7.94188 13.9139 8.15092C13.6688 8.52512 13.7754 9.02739 14.1515 9.26966L16.5888 10.8463L14.5291 13.4189L10.9999 11.1358C10.8515 11.0408 10.6752 10.9972 10.4995 11.0115C10.2501 11.0309 10.0242 11.1653 9.88743 11.375C9.6428 11.7491 9.74926 12.25 10.125 12.4921L13.5158 14.6855L9.12587 20.1706C8.84612 20.518 8.90185 21.0265 9.25017 21.3051C9.59779 21.5858 10.1076 21.5302 10.3862 21.1808L14.8753 15.5667L18.6107 17.9835L15.5724 21.7819C15.2915 22.1295 15.3473 22.6393 15.6967 22.918C16.0437 23.1941 16.5487 23.1377 16.8264 22.7922L19.9702 18.8632L23.5184 21.159C23.3737 21.4931 23.4711 21.8826 23.756 22.1093C24.103 22.3855 24.608 22.329 24.8857 21.9835C25.9006 20.7149 26.9152 19.446 27.9304 18.1774C28.2961 18.3562 28.7376 18.2338 28.9594 17.8927C29.1498 17.6013 29.1314 17.2203 28.9138 16.9486C29.6089 16.08 30.3036 15.2115 30.9987 14.3429L31.8782 14.9077C32.2527 15.1471 32.7507 15.0381 32.9907 14.6639C33.2301 14.2894 33.1209 13.7914 32.7468 13.5514L32.0104 13.0778C32.8584 12.0181 33.707 10.959 34.5547 9.89939C34.8298 9.55111 34.7714 9.04602 34.4241 8.7697C34.2873 8.65947 34.1182 8.59697 33.9426 8.59188C33.691 8.58461 33.4511 8.69867 33.2944 8.89539C32.4124 9.99783 31.53 11.1004 30.6478 12.2028L27.1154 9.93074L29.7195 6.67683C29.996 6.33021 29.9404 5.82528 29.5952 5.54707C29.4569 5.43514 29.2853 5.3719 29.1074 5.36778C28.8557 5.36051 28.6159 5.47463 28.4591 5.67136L25.7528 9.05429L22.0079 6.64689L23.273 5.06559C23.5506 4.71873 23.495 4.21261 23.1487 3.93428C23.0102 3.82283 22.8386 3.76034 22.6609 3.75646L22.6608 3.75631ZM16.6864 5.31084C15.5512 5.26336 15.7103 7.14169 16.817 6.91107C17.7752 6.76522 17.6566 5.30125 16.6864 5.31084ZM38.2177 6.85598C37.0825 6.8085 37.2416 8.68683 38.3483 8.45621C39.3065 8.31036 39.1878 6.84639 38.2177 6.85598ZM20.9961 7.91336L24.7409 10.3208L22.697 12.8761L18.96 10.4592L20.9961 7.91336ZM44.1072 10.8148C42.972 10.7673 43.1311 12.6457 44.2377 12.415C45.196 12.2692 45.0773 10.8052 44.1072 10.8148ZM26.1036 11.1956L29.636 13.4661C28.9507 14.3224 28.2663 15.1793 27.581 16.0356L24.0565 13.7557L26.1036 11.1956ZM17.9467 11.7259L21.6837 14.1427L19.624 16.7169L15.8886 14.3001L17.9467 11.7259ZM7.12756 12.0705C5.99238 12.023 6.1515 13.9013 7.25816 13.6706C8.21638 13.5248 8.09775 12.0609 7.12756 12.0705ZM38.6598 13.4315C38.3506 13.4412 38.0371 13.4862 37.7252 13.5747C34.5626 14.2915 33.6816 18.7501 36.3216 20.6285C38.8215 22.6908 42.9028 20.6794 42.7681 17.4344C42.7943 15.1592 40.8246 13.3696 38.6598 13.4315ZM23.0432 15.0223L26.5662 17.3022C25.8795 18.1602 25.193 19.0184 24.5065 19.8764L20.9835 17.5965L23.0432 15.0223ZM41.1742 17.4344C41.1735 17.4562 41.1735 17.4744 41.1742 17.494C41.2676 19.343 38.7306 20.5943 37.2877 19.3727C35.7275 18.2977 36.2777 15.5182 38.3907 15.0795C39.9721 15.0037 41.2045 16.1094 41.1742 17.4342V17.4344ZM46.4249 16.2212C45.2897 16.1738 45.4488 18.0521 46.5555 17.8215C47.5137 17.6756 47.395 16.2116 46.4249 16.2212ZM43.9136 21.3398C42.7784 21.2925 42.9376 23.1706 44.0442 22.94C45.0024 22.7941 44.8838 21.3302 43.9136 21.3398ZM23.9699 29.3164C27.8651 33.1912 33.8979 34.4552 39.1287 32.9566C43.5972 31.7694 47.2574 28.5105 49.2414 24.4363C49.3469 28.2691 48.2555 32.1547 45.6932 35.0021C41.414 40.1455 33.3308 41.5234 27.5905 38.1349C25.6164 36.8918 23.8167 34.7325 20.9536 34.0439C17.3069 32.7532 13.7297 33.9583 10.6159 33.2949C6.89936 32.7505 3.27899 30.1765 2.68567 26.4441C2.51741 25.0371 2.48955 23.6012 2.49528 22.1454C3.56688 23.761 5.09575 24.9403 6.80029 25.7297C8.99521 26.7463 11.4831 27.1549 13.8392 27.1191C17.469 26.6716 21.2273 27.107 23.9699 29.3164V29.3164ZM40.5669 22.3468C40.1734 22.3347 39.8301 22.6089 39.7534 22.995L39.2939 25.3773H39.2923C38.2062 25.7387 37.0808 25.9515 35.9676 25.9925C36.2243 25.6594 36.4802 25.3262 36.737 24.9933C37.0094 24.6418 36.9466 24.1363 36.5954 23.8636C36.4554 23.756 36.284 23.6974 36.1076 23.6967C35.856 23.6957 35.6188 23.8118 35.4656 24.0113C34.9853 24.6339 34.5046 25.2545 34.0243 25.8759C32.5876 25.6335 31.2287 25.0386 30.0765 24.0003C29.9112 23.8521 29.692 23.7786 29.4707 23.7973C29.2656 23.8118 29.0742 23.9064 28.9358 24.0586C28.6388 24.3886 28.6649 24.8966 28.994 25.1946C31.2842 27.2584 34.1865 27.8584 37.0202 27.5265L38.3782 29.1676C38.6619 29.5114 39.1712 29.5592 39.5142 29.2744C39.858 28.9906 39.9059 28.4815 39.6212 28.1384L38.8345 27.188C40.0042 26.8878 41.1376 26.4444 42.1796 25.8899C42.5745 25.6804 42.7234 25.1898 42.5116 24.7963C42.3028 24.4009 41.812 24.2513 41.4181 24.4628C41.3066 24.5222 41.1915 24.5764 41.0782 24.6326L41.3347 23.303C41.4203 22.8662 41.1344 22.4426 40.6974 22.3574C40.6543 22.3501 40.6107 22.3452 40.5668 22.3452L40.5669 22.3468ZM22.8654 23.1728C21.7302 23.1256 21.8893 25.0052 22.996 24.7746C23.9542 24.6287 23.8356 23.1632 22.8654 23.1728ZM29.4314 27.6147C28.2962 27.5674 28.4554 29.4455 29.562 29.2149C30.5202 29.069 30.4016 27.6051 29.4314 27.6147ZM16.367 29.5563C15.3348 29.5636 14.2979 29.7 13.2767 30.0064C12.8489 30.1336 12.6061 30.5846 12.7354 31.0119C12.8654 31.4371 13.3155 31.6765 13.7408 31.5468C16.0267 30.8612 18.5382 31.1835 20.8954 31.9323C21.3185 32.066 21.7702 31.8325 21.9056 31.4099C22.0435 30.9849 21.8091 30.5287 21.3832 30.3935C19.7937 29.8885 18.0871 29.5438 16.367 29.5563V29.5563ZM24.4813 31.9984C24.2308 32.0105 23.9999 32.1372 23.8567 32.343C23.5991 32.7077 23.6873 33.2123 24.0533 33.4681C25.8146 34.6961 27.6995 36.2724 30.1489 36.7801C30.5837 36.8693 31.0087 36.59 31.0993 36.1555C31.1892 35.7187 30.9071 35.292 30.4699 35.2036C28.5277 34.8009 26.8085 33.4208 24.9738 32.1416C24.8296 32.0412 24.6567 31.9911 24.4813 31.9984V31.9984Z" fill="black"/>
</svg>
