<svg width="48" height="45" viewBox="0 0 48 45" fill="none" xmlns="http://www.w3.org/2000/svg">
<path d="M46.9232 4.75341C46.7452 4.39441 45.3212 2.41641 44.8792 2.10241C44.4372 1.78741 43.5932 2.78641 43.0522 3.26641C42.5102 3.74741 41.0252 5.55541 40.6592 5.69541C40.2932 5.83541 41.7632 2.55041 41.8882 1.90741C42.0132 1.26241 40.1572 0.409413 38.7812 0.0964131C37.4052 -0.215587 37.3302 0.263413 36.8402 1.04741C36.3502 1.83041 35.0342 6.02341 35.0342 6.02341C33.3302 6.07841 32.1092 7.60741 30.8762 9.06141C29.6422 10.5154 26.7752 15.2034 26.7752 15.2034C26.7752 15.2034 26.3082 9.67741 26.3052 8.27641C26.3022 6.87541 25.1532 6.52441 24.2202 6.52741C23.2862 6.52941 19.7542 6.81441 18.7692 6.98041C17.7862 7.14741 17.9402 8.52241 17.9402 8.52241C17.4722 8.05641 15.5522 7.29141 13.1162 7.15741C10.6802 7.02341 7.71717 8.38041 6.43317 9.53141C5.14817 10.6824 3.17317 13.2734 3.10317 16.0884C3.03417 18.9024 5.12017 20.6524 5.12017 20.6524C-0.594832 21.3834 0.989168 24.3094 1.34517 25.2594C1.70017 26.2114 3.33617 29.4404 3.90117 30.9404C4.46617 32.4404 6.09317 32.1664 6.35817 32.1214C6.62317 32.0764 7.55317 35.9684 8.25417 38.9634C8.95517 41.9594 9.50117 43.3474 10.8022 44.1394C12.1042 44.9314 16.1982 44.2794 21.3592 44.1854C26.5202 44.0904 31.3932 44.8254 34.0732 44.3324C36.7532 43.8394 37.3652 41.0134 37.9762 37.9504C38.5872 34.8884 39.2922 31.2274 39.5132 31.1514C39.7332 31.0754 40.3462 31.2444 40.9082 31.1104C41.4702 30.9764 42.0872 30.4834 42.5122 29.3214C42.9372 28.1594 42.6202 23.9684 42.6592 21.6674C42.6982 19.3664 40.5572 18.9084 40.0092 18.8844C39.4602 18.8614 40.9652 17.6334 42.5012 15.6614C44.0362 13.6884 42.7272 12.1584 42.7272 12.1584C42.7272 12.1584 42.8722 11.8614 43.1182 11.7034C43.3642 11.5454 45.1442 9.88241 46.0082 9.22941C46.8712 8.57741 46.1442 7.96041 45.7402 7.63941C45.3352 7.31941 45.7892 7.00841 46.4432 6.27541C47.0952 5.54241 47.1002 5.11241 46.9232 4.75341ZM19.4662 8.81041L24.7092 8.50741L25.2522 23.2454L20.6212 23.4834L19.4662 8.81041ZM6.87817 11.7134C8.09917 10.4174 10.1462 8.70941 13.2892 9.11241C16.4322 9.51541 17.7672 11.1974 17.9632 11.4364C18.1592 11.6754 18.3272 13.3604 18.2712 13.7194C18.2152 14.0794 18.1712 14.2814 17.9372 14.0484C17.7032 13.8154 17.5582 13.8784 17.3072 14.2334C17.0562 14.5874 16.3372 15.1754 15.9282 15.5164C15.5182 15.8584 15.2412 15.8284 14.8752 15.7344C14.5092 15.6404 14.3372 15.3184 14.5392 14.8954C14.7412 14.4724 15.2722 12.5524 15.4352 12.1354C15.5982 11.7184 15.7482 11.2264 15.5592 11.0254C15.3692 10.8244 14.9212 10.7054 14.6752 10.8634C14.4292 11.0214 14.1042 12.3224 13.6782 13.7174C13.2522 15.1134 13.1212 15.7184 12.9642 15.9404C12.8072 16.1614 12.7242 15.9024 12.2942 15.1974C11.8632 14.4914 10.6292 12.9484 10.2562 12.3494C9.88317 11.7504 9.44717 11.7074 9.06917 12.0044C8.69117 12.3024 9.03317 12.7114 9.25517 13.1024C9.47717 13.4934 10.5412 15.1814 10.9902 15.7674C11.4392 16.3534 11.8572 16.7494 11.6112 16.9084C11.3652 17.0664 10.4812 16.4374 9.63517 16.2694C8.78917 16.1004 7.55217 15.6874 6.67417 15.5624C5.79717 15.4384 5.96217 15.7224 5.81817 16.2524C5.67417 16.7824 6.52017 16.9504 7.59917 17.1184C8.67817 17.2864 10.2002 17.7684 10.5352 17.9074C10.8702 18.0454 11.0532 18.2084 11.0102 18.4104C10.9662 18.6124 9.71717 18.8234 9.35817 19.0014C8.99917 19.1794 9.37917 20.0484 9.37917 20.0484L6.59117 20.3644C6.59117 20.3644 6.63917 19.4994 6.38617 19.1524C6.13017 18.8094 5.68217 18.6894 4.97217 17.2514C4.26217 15.8134 5.65717 13.0104 6.87817 11.7134ZM16.3792 16.8044C16.2082 16.5384 17.0782 16.1034 17.4052 15.7364C17.7322 15.3704 18.2042 14.9394 18.2682 15.3184C18.3322 15.6964 18.7622 18.9324 18.4592 18.9834C18.1562 19.0354 17.3172 19.1374 17.0142 19.1884C16.7112 19.2404 15.8212 19.0404 16.0982 18.8374C16.3772 18.6334 16.6962 17.2954 16.3792 16.8044ZM14.8742 18.4994C14.6922 19.0354 15.0212 19.1364 14.1122 19.2894C13.2042 19.4424 12.8622 18.8004 12.8802 18.2134C12.8982 17.6264 13.4772 17.1394 13.9242 17.0254C13.9242 17.0254 14.2342 17.0114 14.8522 17.2184C15.4702 17.4254 15.0572 17.9614 14.8742 18.4994ZM37.1782 34.6204C36.7222 36.7614 35.9522 39.5764 35.6772 40.7134C35.4022 41.8514 34.8032 42.2244 34.0222 42.4344C33.2412 42.6444 32.0472 42.7294 30.3642 42.6634C28.6782 42.5984 24.6092 42.4674 21.6502 42.4614C18.6912 42.4554 13.8012 42.7754 12.3252 42.7914C10.8492 42.8084 10.1692 40.6254 9.72317 38.6774C9.27717 36.7304 8.17317 33.8794 7.69117 33.1054C7.20917 32.3304 7.63417 32.0844 7.97917 32.0434C8.78017 31.9464 13.9962 31.0264 18.1272 30.3674C22.2582 29.7084 24.0512 29.9504 25.4642 30.0224C26.8782 30.0944 28.4372 30.3364 31.3082 30.2814C34.1792 30.2244 36.5072 30.4144 37.3092 30.7854C38.1092 31.1544 37.6342 32.4804 37.1782 34.6204ZM41.0382 22.4464C41.0842 23.6454 41.2912 25.7904 41.1742 26.9394C41.0572 28.0864 40.9532 29.5444 39.4382 29.3344C37.9232 29.1234 35.2272 28.1404 33.3292 28.1884C31.4302 28.2374 30.6092 28.4544 27.0632 28.4284C23.5182 28.4064 21.0242 28.1644 16.7612 28.9624C12.4982 29.7614 8.95917 30.2414 7.62817 30.4284C6.29717 30.6154 5.47117 30.7924 5.13417 29.9534C4.79817 29.1154 3.99817 27.1484 3.99817 27.1484C3.66217 26.3094 2.04017 23.3914 2.88517 23.0924C3.73017 22.7934 6.25317 22.2894 9.28617 21.8164C12.3202 21.3424 16.6982 20.9924 17.5312 20.8514C18.3642 20.7104 18.6982 20.8484 18.6982 20.8484C18.6982 20.8484 18.8692 24.1664 19.3002 24.6404C19.7312 25.1134 20.5132 25.3694 21.7882 25.3104C23.0632 25.2504 24.9742 25.2784 25.3912 25.2064C25.8072 25.1374 26.8472 24.6094 26.8192 23.5244C26.7932 22.4384 26.5662 20.4144 26.7942 20.3764C27.0212 20.3374 30.2842 20.7594 32.7082 20.8164C35.1312 20.8744 36.9922 20.8324 38.5062 20.8094C40.0182 20.7904 40.9912 21.2484 41.0382 22.4464ZM41.3782 13.8654C41.2602 14.5474 40.6362 15.0024 39.7302 16.0904C38.8252 17.1774 37.6992 18.8084 37.4342 18.8534C37.1692 18.8974 34.5512 19.0674 31.4712 18.8094C28.3912 18.5504 27.0852 18.4214 26.7492 18.0494C26.7492 18.0494 26.6022 17.1794 26.8972 16.8574C27.1932 16.5354 30.3582 12.6914 31.3772 11.3514C32.3962 10.0114 34.4172 7.91841 34.7962 8.08741C35.1752 8.25741 38.1012 10.3704 39.3652 11.4024C40.6302 12.4344 41.4962 13.1834 41.3782 13.8654ZM44.8552 6.11541C44.4272 6.57741 43.1932 7.79741 43.4472 8.14341C43.7002 8.49041 44.2742 8.66441 44.0222 9.01941C43.7712 9.37341 43.1982 9.66541 42.7012 10.1764C42.2032 10.6894 41.9462 11.2384 41.3892 10.7094C40.8332 10.1804 38.5332 8.54541 37.7742 7.97341C37.2722 7.59341 36.0942 7.24441 36.2902 6.78441C36.4842 6.32441 37.1682 4.37841 37.5752 3.10241C37.9812 1.82641 38.1642 1.29041 38.5752 1.41541C38.9852 1.54041 39.8062 2.02441 39.9832 2.14941C40.1612 2.27541 40.5022 2.45141 40.2002 2.96941C39.8972 3.48741 39.1012 5.68541 39.2042 6.05741C39.3062 6.42941 39.5462 6.70041 39.9752 6.93941C40.4052 7.17741 40.8912 7.52341 41.1302 7.32741C41.3692 7.13141 42.1242 6.06941 43.0052 5.06441C43.8862 4.05941 44.0672 3.52241 44.5232 3.91341C44.9792 4.30341 45.3012 4.59941 45.4662 4.88341C45.6302 5.16741 45.2842 5.65241 44.8552 6.11541ZM31.1162 15.5604C30.4652 15.1644 30.1392 15.3814 30.0182 15.7464C29.8112 16.3654 30.8152 16.7794 31.4222 17.1434C32.0282 17.5084 32.6422 18.3774 33.2102 18.2824C33.7762 18.1854 33.5552 17.3284 33.1752 16.9264C32.7962 16.5214 31.7672 15.9564 31.1162 15.5604ZM33.5442 12.4244C33.2212 12.1284 32.6682 12.3064 32.5222 12.5974C32.2032 13.2354 33.2702 14.0284 34.1102 14.6254C34.9512 15.2234 34.7122 15.4184 34.9212 15.7334C35.1302 16.0484 35.9422 16.0274 36.1382 15.5664C36.3342 15.1054 36.1612 14.5504 35.6172 14.0974C35.0742 13.6464 33.8672 12.7214 33.5442 12.4244ZM19.3452 36.6604C18.2732 36.7644 18.0272 36.9224 18.0272 36.9224C17.3212 37.1194 15.7502 37.0344 15.8722 37.9874C15.9942 38.9394 16.0712 39.6274 16.3372 40.0494C16.6032 40.4734 16.9632 40.7614 18.1422 40.3674C19.3212 39.9734 20.8682 40.3744 20.7772 39.3774C20.6862 38.3794 20.4172 36.5584 19.3452 36.6604ZM18.7312 39.0214C18.2712 39.0604 18.3532 39.0844 17.6342 39.2074C16.9152 39.3294 17.1412 38.8234 17.0392 38.4514C16.9372 38.0794 17.7692 38.1454 18.1362 38.0324C19.2462 37.6894 19.3982 38.1314 19.4622 38.5094C19.5262 38.8884 19.1922 38.9824 18.7312 39.0214ZM31.9642 30.9474C30.8032 30.9874 30.4632 31.0454 30.0152 31.1604C29.6722 31.2474 28.5262 31.1004 28.4922 32.2734C28.4572 33.4474 28.3952 34.4684 29.1342 34.4614C29.8732 34.4544 31.5952 34.5134 32.1692 34.4544C32.7432 34.3964 33.1152 34.0604 33.0812 33.1714C33.0462 32.2824 33.1252 30.9074 31.9642 30.9474ZM31.7042 33.0924C31.3262 33.1564 30.9282 33.1084 30.1592 33.1584C29.3882 33.2114 29.7042 32.7684 29.6972 32.4974C29.6892 32.2264 30.1612 32.4484 30.5602 32.3124C31.7022 31.9234 31.9292 32.3534 31.9612 32.5414C31.9932 32.7334 32.0822 33.0294 31.7042 33.0924ZM28.9772 35.8514C27.9362 35.9104 27.4372 35.9554 27.4372 35.9554C26.7682 35.9124 25.4622 35.7824 25.2372 36.5214C25.0102 37.2584 25.0902 38.4144 25.0642 38.7294C25.0412 39.0444 25.4972 39.9024 26.5312 39.8054C27.5642 39.7074 27.6842 39.7274 28.3232 39.8144C28.9612 39.9014 29.7372 39.8854 29.9022 38.3394C30.0722 36.7934 30.0192 35.7914 28.9772 35.8514ZM28.7352 37.6434C28.6922 38.0794 28.6932 38.3124 28.1432 38.2894C27.5942 38.2664 27.2162 38.3294 26.6612 38.2684C26.1052 38.2064 26.4322 37.8384 26.3992 37.4164C26.3682 36.9934 27.0252 37.2384 27.4542 37.1994C28.4882 37.1014 28.7792 37.2074 28.7352 37.6434ZM15.6432 34.7944C15.5142 33.5704 15.7202 32.4844 14.9432 32.2674C14.1662 32.0464 13.2272 32.2464 13.2272 32.2464C12.5082 32.3674 11.2462 32.2694 11.2982 33.2724C11.3502 34.2754 11.7332 35.8444 11.8472 36.0594C11.9612 36.2744 12.0432 36.5324 13.2232 36.3714C14.4032 36.2104 14.8572 36.1344 15.1212 36.0894C15.3872 36.0444 15.7722 36.0194 15.6432 34.7944ZM14.5262 34.6324C14.5212 35.2954 13.9912 35.1524 13.2212 35.2034C12.4512 35.2544 12.6392 34.5224 12.5872 33.9864C12.5352 33.4504 13.1102 33.6264 13.5642 33.5484C13.5642 33.5484 13.8042 33.5854 14.1442 33.5284C14.4852 33.4734 14.5312 33.9714 14.5262 34.6324ZM23.2572 31.2514C22.6892 31.3484 20.6262 31.3454 20.2922 31.4404C19.8792 31.5574 19.4162 31.7834 19.1582 32.0984C18.9002 32.4134 19.2622 33.6384 19.2512 34.0294C19.2392 34.4214 19.3922 35.0944 20.5222 35.0994C21.6522 35.1034 23.0332 34.9864 23.3742 34.9274C23.7152 34.8694 23.9722 34.3224 23.9382 33.4324C23.9042 32.5434 23.8252 31.1544 23.2572 31.2514ZM22.8512 32.9934C22.9022 33.2964 22.9222 33.6424 22.5122 33.7514C22.1022 33.8594 21.6602 33.7784 20.8522 33.8374C20.0442 33.8974 20.2512 33.2764 20.2632 32.8864C20.2752 32.4944 21.1372 32.6684 21.4242 32.6134C22.8182 32.3364 22.8002 32.6904 22.8512 32.9934Z" fill="black"/>
</svg>
