<svg width="62" height="50" viewBox="0 0 62 50" fill="none" xmlns="http://www.w3.org/2000/svg">
<path fill-rule="evenodd" clip-rule="evenodd" d="M22.964 0.250739C22.8777 0.100881 22.7159 0 22.5305 0C22.2543 0 22.0305 0.223858 22.0305 0.5V7.25459C21.9672 7.31422 21.9187 7.39112 21.8931 7.48076L20.0305 14H16.0305L15.7084 14.3825L0.35255 32.6175L0.295662 32.6851C0.116409 32.7654 -0.00598751 32.9479 0.000226178 33.1565C0.00845063 33.4325 0.238876 33.6496 0.514896 33.6414L0.782622 33.6334L0.795393 33.6441L0.805011 33.6327L22.5851 32.9837C22.6198 32.9827 22.6536 32.9781 22.6862 32.9704L24.9017 38.9524L24.8976 38.9714L24.9098 38.9741L25.7593 41.2678L22.5179 44.7796L22.1961 45.1283C22.0944 45.2198 22.0305 45.3524 22.0305 45.5C22.0305 45.7761 22.2543 46 22.5305 46H26.5218C26.5476 46.0356 26.5785 46.0685 26.6144 46.0973L30.7176 49.3898C30.9329 49.5627 31.2476 49.5282 31.4205 49.3128C31.5933 49.0974 31.5588 48.7827 31.3434 48.6099L28.1831 46.0739L29.5657 44H31.0305V43H29.0305L27.6816 45.0233C27.634 45.0082 27.5832 45 27.5305 45H23.6753L26.4443 42H31.0305V41H26.7265L25.9415 38.8804L27.2348 33H31.0305V32H27.4547L31.0191 15.7932C31.1465 15.7855 31.2711 15.7293 31.3627 15.6263C31.5461 15.4199 31.5275 15.1039 31.3211 14.9204L27.1977 11.2552L30.4468 8.06378C30.4672 8.04375 30.4855 8.0224 30.5018 8H31.0305V7H29.4561L29.4046 6.94641L23.2349 0.532343L22.964 0.250739ZM30.1264 15.1964L25.2991 37.1459L19.2796 20.8933L29.0241 14.2166L30.1264 15.1964ZM22.3235 31.9911L19.6632 24.8082L2.7421 32.5746L22.3235 31.9911ZM19.3149 23.8678L2.54742 31.5636L16.1726 15.3837L18.1548 20.7355C18.1652 20.8005 18.1883 20.8624 18.2223 20.9178L19.3149 23.8678ZM18.5916 19.0359L19.7448 15H17.0969L18.5916 19.0359ZM29.0305 8H29.0847L26.4486 10.5893L23.5357 8H29.0305ZM23.0305 7.5V7.55409L23.0278 7.55215C23.0296 7.53501 23.0305 7.51761 23.0305 7.5ZM28.0686 7H23.0305V1.76233L28.0686 7ZM22.632 8.53469L19.4882 19.5381L28.254 13.532L22.632 8.53469Z" fill="url(#paint0_linear_251_2)"/>
<path fill-rule="evenodd" clip-rule="evenodd" d="M38.5574 0.251512C38.6437 0.101228 38.8057 0 38.9914 0C39.2676 0 39.4914 0.223858 39.4914 0.5V7.25667C39.5547 7.3163 39.6032 7.3932 39.6288 7.48284L41.4921 14.0043H45.4923L45.4931 14.0037L45.8151 14.3861L61.1754 32.6264L61.233 32.6948C61.4118 32.7753 61.5339 32.9576 61.5277 33.1658C61.5195 33.4419 61.289 33.659 61.013 33.6507L60.7447 33.6427L60.7325 33.653L60.7234 33.6421L38.9366 32.9929C38.9018 32.9919 38.8681 32.9873 38.8356 32.9796L36.6194 38.9631L36.6236 38.9818L36.6115 38.9845L35.7616 41.2792L39.004 44.792L39.3267 45.1417C39.4279 45.2332 39.4914 45.3655 39.4914 45.5126C39.4914 45.7888 39.2676 46.0126 38.9914 46.0126H34.999C34.9796 46.0394 34.9573 46.0646 34.932 46.0879L31.3691 49.3677C31.166 49.5547 30.8496 49.5416 30.6626 49.3385C30.4756 49.1353 30.4887 48.819 30.6919 48.632L33.383 46.1547L31.9523 44.0086L30.5275 44.0001L30.5335 43.0001L32.4893 43.0118L32.4895 43.0117L32.4896 43.0118L32.4925 43.0118L32.4925 43.0161L33.8389 45.0358C33.8865 45.0207 33.9372 45.0126 33.9898 45.0126H37.8467L35.0758 42.0105L30.5293 41.9998L30.5317 40.9998L34.795 41.0098L35.5797 38.8911L34.2861 33.0091H30.489V32.0091H34.0661L30.5008 15.7976C30.3731 15.79 30.2484 15.7338 30.1568 15.6307C29.9733 15.4243 29.9919 15.1083 30.1983 14.9248L34.3231 11.2584L31.0729 8.06586C31.0526 8.04588 31.0343 8.02458 31.0181 8.00224H30.489V7.00224H32.0639L32.1154 6.94871L38.287 0.532696L38.5574 0.251512ZM31.3933 15.2005L36.2221 37.1566L42.2435 20.8989L32.4961 14.2203L31.3933 15.2005ZM39.1983 32.0003L41.8594 24.8152L58.7858 32.5839L39.1983 32.0003ZM42.2077 23.8747L58.9812 31.5733L45.3511 15.3876L43.3683 20.7413C43.3579 20.8063 43.3347 20.8684 43.3006 20.9239L42.2077 23.8747ZM42.9313 19.0418L41.7778 15.0043H44.4267L42.9313 19.0418ZM32.4894 8.00224H32.4352L35.0722 10.5925L37.9862 8.00224H32.4896L32.4895 8.0023L32.4894 8.00224ZM38.4912 7.00224V7.55652L38.4941 7.55438C38.4923 7.53722 38.4914 7.51981 38.4914 7.50218V1.76264L33.4515 7.00224H38.4912ZM38.8899 8.5369L42.0347 19.5436L33.2663 13.5357L38.8899 8.5369Z" fill="url(#paint1_linear_251_2)"/>
<defs>
<linearGradient id="paint0_linear_251_2" x1="15.7653" y1="0" x2="15.7653" y2="49.4999" gradientUnits="userSpaceOnUse">
<stop stop-color="#FD8BD0"/>
<stop offset="0.494792" stop-color="#BF8FFD"/>
<stop offset="1" stop-color="#26C1FC"/>
</linearGradient>
<linearGradient id="paint1_linear_251_2" x1="45.7792" y1="0" x2="45.7792" y2="49.4998" gradientUnits="userSpaceOnUse">
<stop stop-color="#FD8BD0"/>
<stop offset="0.494792" stop-color="#BF8FFD"/>
<stop offset="1" stop-color="#26C1FC"/>
</linearGradient>
</defs>
</svg>
