<svg width="60" height="60" viewBox="0 0 60 60" fill="none" xmlns="http://www.w3.org/2000/svg">
<path d="M30 57.4001C42.3159 57.4001 52.2999 45.8043 52.2999 31.5001C52.2999 17.1959 42.3159 5.6001 30 5.6001C17.684 5.6001 7.69995 17.1959 7.69995 31.5001C7.69995 45.8043 17.684 57.4001 30 57.4001Z" fill="#C7E755"/>
<path d="M49.9999 41.5001H9.99994L29.9999 14.1001L49.9999 41.5001Z" fill="#C7E755"/>
<path d="M45.1 49.0002L41.3 53.2002L37.5 49.0002L41.3 44.7002L45.1 49.0002Z" fill="#A3BF2C"/>
<path d="M30 49.0002L26.2 53.2002L22.5 49.0002L26.2 44.7002L30 49.0002Z" fill="#A3BF2C"/>
<path d="M22.5 49.0002L18.7 53.2002L14.9 49.0002L18.7 44.7002L22.5 49.0002Z" fill="#A3BF2C"/>
<path d="M37.5 49.0002L33.8 53.2002L30 49.0002L33.8 44.7002L37.5 49.0002Z" fill="#A3BF2C"/>
<path d="M41.2999 44.6999L37.4999 48.9999L33.7999 44.6999L37.4999 40.3999L41.2999 44.6999Z" fill="#C7E755"/>
<path d="M48.7999 44.6999L45.0999 48.9999L41.2999 44.6999L45.0999 40.3999L48.7999 44.6999Z" fill="#C7E755"/>
<path d="M26.2 44.6999L22.5 48.9999L18.7 44.6999L22.5 40.3999L26.2 44.6999Z" fill="#C7E755"/>
<path d="M18.7 44.6999L14.9 48.9999L11.2 44.6999L14.9 40.3999L18.7 44.6999Z" fill="#C7E755"/>
<path d="M33.7999 44.6999L30 48.9999L26.2 44.6999L30 40.3999L33.7999 44.6999Z" fill="#C7E755"/>
<path d="M45.1 40.4002L41.3 44.7002L37.5 40.4002L41.3 36.2002L45.1 40.4002Z" fill="#A3BF2C"/>
<path d="M30 40.4002L26.2 44.7002L22.5 40.4002L26.2 36.2002L30 40.4002Z" fill="#A3BF2C"/>
<path d="M22.5 40.4002L18.7 44.7002L14.9 40.4002L18.7 36.2002L22.5 40.4002Z" fill="#A3BF2C"/>
<path d="M37.5 40.4002L33.8 44.7002L30 40.4002L33.8 36.2002L37.5 40.4002Z" fill="#A3BF2C"/>
<path d="M5.00005 28C5.00005 28 3.50005 45 16.1001 52.5C20.2001 54.9 13.6001 48.9 15.3001 34.1L5.00005 28Z" fill="#C28FEF"/>
<path d="M55 28C55 28 56.5001 45 43.9001 52.5C39.8001 54.9 46.4 48.9 44.7 34.1L55 28Z" fill="#C28FEF"/>
<path d="M30 0C22.9 7 15 0.9 15 0.9C19.9 9.7 30 11.3 30 11.3C30 11.3 40.1 9.7 45 0.9C45 0.9 37.1 7 30 0Z" fill="#9450E0"/>
<path d="M16.8 37.3999C7.5 37.3999 0 29.8999 0 20.5999C0 11.2999 7.5 3.8999 16.8 3.8999C26.1 3.8999 33.6 11.3999 33.6 20.6999C33.6 29.9999 26 37.3999 16.8 37.3999Z" fill="#9450E0"/>
<path d="M43.2 37.3999C34 37.3999 26.4 29.8999 26.4 20.5999C26.4 11.2999 34 3.8999 43.2 3.8999C52.4 3.8999 60 11.3999 60 20.5999C60 29.7999 52.5 37.3999 43.2 37.3999Z" fill="#9450E0"/>
<path d="M43.1 33.7C50.3349 33.7 56.2 27.8349 56.2 20.6C56.2 13.3651 50.3349 7.5 43.1 7.5C35.8651 7.5 30 13.3651 30 20.6C30 27.8349 35.8651 33.7 43.1 33.7Z" fill="#C7E755"/>
<path d="M43.0999 30.0002C48.2914 30.0002 52.5 25.7917 52.5 20.6002C52.5 15.4087 48.2914 11.2002 43.0999 11.2002C37.9085 11.2002 33.7 15.4087 33.7 20.6002C33.7 25.7917 37.9085 30.0002 43.0999 30.0002Z" fill="white"/>
<path d="M43.1 26.2C46.1928 26.2 48.7 23.6928 48.7 20.6C48.7 17.5072 46.1928 15 43.1 15C40.0072 15 37.5 17.5072 37.5 20.6C37.5 23.6928 40.0072 26.2 43.1 26.2Z" fill="#3E4347"/>
<path d="M30.5 7.4999C30.5 10.5999 30 13.0999 30 13.0999C30 13.0999 29.5 10.5999 29.5 7.4999C29.5 4.3999 30 1.8999 30 1.8999C30 1.8999 30.5 4.3999 30.5 7.4999Z" fill="#C7E755"/>
<path d="M27.7001 8.29971C28.7001 10.3997 29 12.1997 29 12.1997C29 12.1997 27.6 10.6997 26.6 8.59971C25.6 6.49971 25.3 4.69971 25.3 4.69971C25.3 4.69971 26.7001 6.19971 27.7001 8.29971Z" fill="#C7E755"/>
<path d="M32.3 8.29971C31.3 10.3997 31 12.1997 31 12.1997C31 12.1997 32.4 10.6997 33.4 8.59971C34.4 6.49971 34.7 4.69971 34.7 4.69971C34.7 4.69971 33.3 6.19971 32.3 8.29971Z" fill="#C7E755"/>
<path d="M16.9 33.7C24.135 33.7 30 27.8349 30 20.6C30 13.3651 24.135 7.5 16.9 7.5C9.66512 7.5 3.80005 13.3651 3.80005 20.6C3.80005 27.8349 9.66512 33.7 16.9 33.7Z" fill="#C7E755"/>
<path d="M16.9 30.0002C22.0915 30.0002 26.3 25.7917 26.3 20.6002C26.3 15.4087 22.0915 11.2002 16.9 11.2002C11.7085 11.2002 7.5 15.4087 7.5 20.6002C7.5 25.7917 11.7085 30.0002 16.9 30.0002Z" fill="white"/>
<path d="M16.9 26.2C19.9928 26.2 22.5 23.6928 22.5 20.6C22.5 17.5072 19.9928 15 16.9 15C13.8073 15 11.3 17.5072 11.3 20.6C11.3 23.6928 13.8073 26.2 16.9 26.2Z" fill="#3E4347"/>
<path d="M26.2 29.1001C26.2 32.3001 27.7 35.2001 30 37.1001C32.3 35.2001 33.7999 32.3001 33.7999 29.1001C33.7999 25.9001 32.3 23.0001 30 21.1001C27.7 23.0001 26.2 25.8001 26.2 29.1001Z" fill="#FFCE31"/>
<path d="M30 21.1001V37.1001C32.3 35.2001 33.8 32.3001 33.8 29.1001C33.8 25.9001 32.3 23.0001 30 21.1001Z" fill="#F2B200"/>
<path d="M16.8 52.8999C16.8 55.3999 14.8 58.9999 14.8 58.9999C14.8 58.9999 12.8 55.2999 12.8 52.8999C12.8 50.3999 16.8 50.3999 16.8 52.8999Z" fill="#F2B200"/>
<path d="M23.4 52.8999C23.4 55.3999 21.4 58.9999 21.4 58.9999C21.4 58.9999 19.4 55.2999 19.4 52.8999C19.4 50.3999 23.4 50.3999 23.4 52.8999Z" fill="#F2B200"/>
<path d="M20.1001 52.3001C20.1001 55.4001 18.1001 60.0001 18.1001 60.0001C18.1001 60.0001 16.1001 55.4001 16.1001 52.3001C16.1001 49.2001 20.1001 49.2001 20.1001 52.3001Z" fill="#F2B200"/>
<path d="M40.6001 52.8999C40.6001 55.3999 38.6001 58.9999 38.6001 58.9999C38.6001 58.9999 36.6001 55.2999 36.6001 52.8999C36.6001 50.3999 40.6001 50.3999 40.6001 52.8999Z" fill="#F2B200"/>
<path d="M47.2001 52.8999C47.2001 55.3999 45.2001 58.9999 45.2001 58.9999C45.2001 58.9999 43.2001 55.2999 43.2001 52.8999C43.2001 50.3999 47.2001 50.3999 47.2001 52.8999Z" fill="#F2B200"/>
<path d="M43.9 52.3001C43.9 55.4001 41.9 60.0001 41.9 60.0001C41.9 60.0001 39.9 55.4001 39.9 52.3001C39.9 49.2001 43.9 49.2001 43.9 52.3001Z" fill="#F2B200"/>
</svg>
