<svg width="271" height="313" viewBox="0 0 271 313" fill="none" xmlns="http://www.w3.org/2000/svg">
<ellipse cx="142.899" cy="259.238" rx="65.7973" ry="40.0155" fill="#A16B4E"/>
<rect x="106.644" y="275.084" width="21.4848" height="37.0613" rx="10.7424" fill="#FC8063"/>
<rect x="156.596" y="275.084" width="21.4848" height="37.0613" rx="10.7424" fill="#FC8063"/>
<rect x="120.072" y="247.153" width="8.05681" height="13.9651" rx="4.02841" fill="#916146"/>
<rect x="139.408" y="256.284" width="8.05681" height="13.9651" rx="4.02841" fill="#916146"/>
<rect x="158.207" y="247.153" width="8.05681" height="13.9651" rx="4.02841" fill="#916146"/>
<ellipse cx="140.407" cy="231.128" rx="49.5909" ry="14.6656" transform="rotate(1.15395 140.407 231.128)" fill="#895B42"/>
<path d="M232.047 224.078C241.205 244.484 236.322 280.587 226.367 285.054C216.411 289.522 193.938 270.534 184.781 250.128C175.623 229.721 183.249 215.623 193.204 211.156C203.159 206.688 222.111 203.667 232.047 224.078Z" fill="#7D4E3E"/>
<path d="M53.0341 223.745C43.3 243.883 47.1541 280.11 56.9778 284.858C66.8014 289.607 89.8052 271.266 99.5393 251.128C109.273 230.99 102.052 216.681 92.2281 211.932C82.4045 207.184 63.5472 203.625 53.0341 223.745Z" fill="#7D4E3E"/>
<path d="M65.554 211.703C67.1653 210.897 69.0946 209.823 70.388 209.823C70.8572 210.335 102.297 223.648 102.297 224.594C102.297 224.631 102.297 224.656 102.296 224.672C102.313 224.658 102.382 224.782 102.615 225.937C103.178 228.728 102.544 226.711 102.884 229.428C103.152 231.577 103.152 232.114 103.152 234.799C103.152 236.411 102.884 237.216 102.615 239.096C101.272 238.559 92.6291 235.068 89.1378 232.919C87.2579 231.742 78.1825 225.959 77.3212 225.131C76.7666 224.854 64.2457 213.315 64.2457 212.938C63.674 212.24 65.2853 211.972 65.554 211.703Z" fill="#6A4235"/>
<path d="M70.388 209.823C69.0946 209.823 67.1653 210.897 65.554 211.703C65.2853 211.972 63.674 212.24 64.2457 212.938C64.2457 213.315 76.7665 224.854 77.3212 225.131C78.1825 225.959 87.2579 231.742 89.1378 232.919C92.6291 235.068 101.272 238.559 102.615 239.096C102.884 237.216 103.152 236.411 103.152 234.799C103.152 232.114 103.152 231.577 102.884 229.428C102.544 226.711 103.178 228.728 102.615 225.937C102.217 223.963 102.297 225 102.297 224.594C102.297 223.648 70.8572 210.335 70.388 209.823Z" stroke="#6A4235" stroke-width="3" stroke-linecap="round"/>
<path d="M219.438 211.954C217.826 211.156 215.897 210.092 214.604 210.092C214.135 210.599 182.696 223.79 182.696 224.727C182.696 224.764 182.696 224.788 182.697 224.804C182.68 224.79 182.611 224.914 182.378 226.058C181.815 228.823 182.449 226.824 182.109 229.517C181.841 231.646 181.841 232.178 181.841 234.839C181.841 236.435 182.109 237.234 182.378 239.096C183.72 238.564 192.364 235.105 195.855 232.976C197.735 231.809 206.81 226.08 207.671 225.259C208.226 224.985 220.746 213.551 220.746 213.178C221.318 212.487 219.706 212.221 219.438 211.954Z" fill="#6A4235"/>
<path d="M214.604 210.092C215.897 210.092 217.826 211.156 219.438 211.954C219.706 212.221 221.318 212.487 220.746 213.178C220.746 213.551 208.226 224.985 207.671 225.259C206.81 226.08 197.735 231.809 195.855 232.976C192.364 235.105 183.72 238.564 182.378 239.096C182.109 237.234 181.841 236.435 181.841 234.839C181.841 232.178 181.841 231.646 182.109 229.517C182.449 226.824 181.815 228.823 182.378 226.058C182.776 224.102 182.696 225.129 182.696 224.727C182.696 223.79 214.135 210.599 214.604 210.092Z" stroke="#6A4235" stroke-width="3" stroke-linecap="round"/>
<path d="M210.231 66.9812C223.686 74.8454 234.694 85.2777 242.402 97.4689C250.109 109.66 254.308 123.283 254.673 137.28C255.039 151.278 251.561 165.274 244.509 178.183C237.457 191.093 227.021 202.569 214.01 211.721C200.999 220.873 185.763 227.455 169.484 230.958C153.204 234.46 136.318 234.788 120.136 231.916C103.954 229.045 88.9096 223.051 76.1708 214.399C63.4319 205.747 53.3405 194.67 46.6791 182.027L146.168 142.56L210.231 66.9812Z" fill="#916046"/>
<ellipse cx="139.318" cy="137.775" rx="105.708" ry="89.4265" transform="rotate(-11.8622 139.318 137.775)" fill="#A16B4E"/>
<path d="M41.7548 177.788C34.025 163.203 31.2466 146.36 33.729 129.136C36.2113 111.912 43.8569 94.9822 55.8144 80.2324L135.156 128.287L41.7548 177.788Z" fill="#A16B4E"/>
<path fill-rule="evenodd" clip-rule="evenodd" d="M68.1045 98.6464C67.6757 99.0105 67.4453 99.2061 67.4341 99.1815C67.335 98.9635 32.2114 55.1593 32.0209 55.0069C30.3726 52.9873 29.8355 51.4194 29.8354 50.3017C29.8354 48.9769 29.8354 48.6733 29.8984 48.3833C29.9375 48.203 30.001 48.028 30.1039 47.6161C30.4397 46.2733 32.0365 44.6094 32.7895 43.8563C33.3267 43.3192 34.938 42.4022 36.5494 41.9764C38.1608 41.5505 38.9745 41.5939 39.7721 41.7078C41.1633 41.9066 41.9662 42.1421 42.6162 42.3327C42.8445 42.3997 43.0539 42.4611 43.2634 42.5135C43.3728 42.5408 43.6103 42.61 43.9592 42.7115C47.0364 43.6071 58.7779 47.0243 67.7027 46.5419C70.1805 46.5419 71.492 46.4252 73.2513 46.2688C74.1615 46.1878 75.1916 46.0962 76.5652 46.0045C80.8669 45.7175 89.5948 42.9427 95.8028 40.969C98.8965 39.9854 101.364 39.2008 102.347 39.0222C102.954 38.9118 104.176 38.6528 105.636 38.3435C109.077 37.6141 113.838 36.605 114.969 36.6051C115.179 36.6051 115.383 36.6045 115.583 36.6038C117.933 36.5961 119.729 36.5902 125.175 37.6791C129.203 38.4848 131.351 39.0231 134.306 40.6345C135.341 41.199 136.229 41.705 137.021 42.1558C139.538 43.5895 141.076 44.465 143.23 44.8924C145.385 44.4652 146.922 43.5896 149.441 42.1556C150.232 41.7048 151.121 41.1988 152.156 40.6343C155.11 39.023 157.258 38.4847 161.287 37.6791C166.732 36.5902 168.528 36.5961 170.878 36.6039C171.078 36.6045 171.281 36.6052 171.492 36.6052C172.623 36.6051 177.384 37.6141 180.825 38.3434C182.285 38.6527 183.506 38.9117 184.114 39.0221C185.096 39.2007 187.564 39.9853 190.658 40.9688C196.866 42.9424 205.593 45.7171 209.895 46.0041C211.269 46.0957 212.299 46.1873 213.209 46.2683C214.968 46.4248 216.28 46.5414 218.757 46.5414C227.682 47.0238 239.423 43.6068 242.5 42.7112C242.849 42.6097 243.087 42.5406 243.196 42.5132C243.406 42.4609 243.615 42.3994 243.843 42.3325C244.493 42.1418 245.296 41.9063 246.687 41.7076C247.485 41.5937 248.299 41.5503 249.91 41.9761C251.521 42.402 253.133 43.3189 253.67 43.856C254.423 44.609 256.02 46.2729 256.355 47.6156C256.458 48.0274 256.522 48.2024 256.561 48.3827C256.624 48.6727 256.624 48.9763 256.624 50.3011C256.624 51.4187 256.087 52.9865 254.439 55.0059C254.248 55.1583 219.125 98.9603 219.026 99.1782C219.015 99.2029 218.784 99.0073 218.356 98.6432C212.615 93.7685 171.301 58.6891 143.989 117.565C143.979 118.752 143.974 119.878 143.974 120.935C143.727 120.36 143.479 119.793 143.23 119.234C142.981 119.792 142.734 120.357 142.488 120.931C142.488 119.876 142.482 118.753 142.472 117.569C115.16 58.6901 73.8455 93.7715 68.1045 98.6464Z" fill="#FC8063"/>
<path d="M67.4341 99.1815L66.0685 99.8022L66.0686 99.8023L67.4341 99.1815ZM68.1045 98.6464L69.0754 99.7898L69.0754 99.7898L68.1045 98.6464ZM32.0209 55.0069L30.8588 55.9553L30.9595 56.0787L31.0838 56.1782L32.0209 55.0069ZM29.8354 50.3017L31.3354 50.3017L31.3354 50.3017L29.8354 50.3017ZM29.8984 48.3833L31.3642 48.7015L31.3642 48.7015L29.8984 48.3833ZM30.1039 47.6161L28.6487 47.2523L28.6487 47.2523L30.1039 47.6161ZM32.7895 43.8563L33.8502 44.917L33.8502 44.917L32.7895 43.8563ZM36.5494 41.9764L36.1661 40.5262L36.1661 40.5262L36.5494 41.9764ZM39.7721 41.7078L39.56 43.1927L39.56 43.1927L39.7721 41.7078ZM42.6162 42.3327L43.0384 40.8934L43.0384 40.8934L42.6162 42.3327ZM43.2634 42.5135L42.8996 43.9687L42.8996 43.9687L43.2634 42.5135ZM43.9592 42.7115L44.3784 41.2713L44.3784 41.2713L43.9592 42.7115ZM67.7027 46.5419V45.0419H67.6621L67.6217 45.0441L67.7027 46.5419ZM73.2513 46.2688L73.3842 47.7629L73.3842 47.7629L73.2513 46.2688ZM76.5652 46.0045L76.665 47.5012L76.5652 46.0045ZM95.8028 40.969L96.2573 42.3985L96.2573 42.3985L95.8028 40.969ZM102.347 39.0222L102.079 37.5464L102.079 37.5464L102.347 39.0222ZM105.636 38.3435L105.325 36.8761L105.325 36.8761L105.636 38.3435ZM114.969 36.6051L114.969 38.1051L114.969 38.1051L114.969 36.6051ZM115.583 36.6038L115.588 38.1038L115.588 38.1038L115.583 36.6038ZM125.175 37.6791L125.469 36.2083L125.469 36.2083L125.175 37.6791ZM134.306 40.6345L133.587 41.9513L133.587 41.9513L134.306 40.6345ZM137.021 42.1558L137.763 40.8523L137.763 40.8523L137.021 42.1558ZM143.23 44.8924L142.938 46.3637L143.23 46.4216L143.521 46.3637L143.23 44.8924ZM149.441 42.1556L148.698 40.8521L148.698 40.8521L149.441 42.1556ZM152.156 40.6343L151.437 39.3175L151.437 39.3175L152.156 40.6343ZM161.287 37.6791L160.992 36.2082L160.992 36.2083L161.287 37.6791ZM170.878 36.6039L170.883 35.1039L170.883 35.1039L170.878 36.6039ZM171.492 36.6052L171.492 38.1052L171.492 38.1052L171.492 36.6052ZM180.825 38.3434L181.136 36.876L181.136 36.876L180.825 38.3434ZM184.114 39.0221L184.382 37.5463L184.382 37.5463L184.114 39.0221ZM190.658 40.9688L190.203 42.3983L190.203 42.3983L190.658 40.9688ZM209.895 46.0041L209.995 44.5074L209.995 44.5074L209.895 46.0041ZM213.209 46.2683L213.076 47.7624L213.076 47.7624L213.209 46.2683ZM218.757 46.5414L218.838 45.0436L218.798 45.0414H218.757V46.5414ZM242.5 42.7112L242.081 41.271L242.081 41.271L242.5 42.7112ZM243.196 42.5132L242.832 41.058L242.832 41.058L243.196 42.5132ZM243.843 42.3325L243.421 40.8931L243.421 40.8931L243.843 42.3325ZM246.687 41.7076L246.9 43.1925L246.9 43.1925L246.687 41.7076ZM249.91 41.9761L249.527 43.4264L249.527 43.4264L249.91 41.9761ZM253.67 43.856L254.731 42.7953L254.731 42.7953L253.67 43.856ZM256.355 47.6156L254.9 47.9795L254.9 47.9795L256.355 47.6156ZM256.561 48.3827L258.027 48.0645L258.027 48.0645L256.561 48.3827ZM256.624 50.3011L255.124 50.3011V50.3011H256.624ZM254.439 55.0059L255.376 56.1772L255.5 56.0778L255.601 55.9544L254.439 55.0059ZM219.026 99.1782L217.66 98.5575L217.66 98.5576L219.026 99.1782ZM218.356 98.6432L219.326 97.4998L219.326 97.4998L218.356 98.6432ZM143.989 117.565L142.629 116.934L142.492 117.228L142.489 117.552L143.989 117.565ZM143.974 120.935L142.595 121.526L145.474 120.935H143.974ZM143.23 119.234L144.6 118.623L143.23 115.552L141.86 118.623L143.23 119.234ZM142.488 120.931H140.988L143.866 121.522L142.488 120.931ZM142.472 117.569L143.972 117.556L143.97 117.232L143.833 116.938L142.472 117.569ZM66.0686 99.8023C66.2226 100.141 66.4953 100.408 66.8314 100.556C67.1288 100.687 67.3948 100.69 67.5419 100.68C67.8156 100.661 68.0155 100.57 68.0646 100.548C68.2022 100.486 68.3058 100.414 68.3336 100.395C68.4161 100.338 68.4989 100.272 68.5576 100.225C68.6867 100.12 68.8675 99.9663 69.0754 99.7898L67.1336 97.503C66.9126 97.6906 66.7639 97.8168 66.6677 97.8948C66.6139 97.9384 66.6102 97.9395 66.633 97.9238C66.6416 97.9179 66.6603 97.9052 66.6865 97.8893C66.7087 97.8759 66.7607 97.8452 66.8325 97.8128C66.8734 97.7944 67.0668 97.7056 67.3356 97.6871C67.4803 97.6771 67.7444 97.6801 68.0402 97.8103C68.3747 97.9576 68.6463 98.2235 68.7996 98.5607L66.0686 99.8023ZM31.0838 56.1782C31.0448 56.1458 30.9873 56.0938 30.9685 56.0756C30.9572 56.0644 30.9384 56.045 30.9315 56.0377C30.9182 56.0236 30.909 56.0132 30.9073 56.0112C30.9026 56.0059 30.9025 56.0057 30.91 56.0145C30.9236 56.0306 30.9469 56.0585 30.9817 56.1008C31.0504 56.184 31.1518 56.3081 31.2851 56.472C31.551 56.7991 31.9368 57.2759 32.4259 57.8819C33.4038 59.0935 34.7911 60.8171 36.4515 62.8826C39.7722 67.0134 44.1831 72.5095 48.5915 78.0079C52.9998 83.5063 57.405 89.0064 60.7142 93.1454C62.3689 95.215 63.749 96.9435 64.7182 98.1612C65.203 98.7703 65.584 99.2501 65.8448 99.5805C65.9755 99.7462 66.0741 99.8717 66.1399 99.9563C66.1733 99.9993 66.1948 100.027 66.2068 100.043C66.2135 100.052 66.2124 100.051 66.2072 100.044C66.2052 100.041 66.1958 100.028 66.1835 100.009C66.1771 99.9997 66.1606 99.9738 66.1511 99.9584C66.1359 99.9327 66.0937 99.8546 66.0685 99.8022L68.7997 98.5608C68.7742 98.5074 68.7313 98.4282 68.7151 98.4009C68.7047 98.384 68.687 98.3563 68.6792 98.3445C68.664 98.3217 68.6507 98.303 68.6436 98.2932C68.6284 98.272 68.613 98.2515 68.6013 98.236C68.5765 98.2032 68.5448 98.1619 68.5088 98.1157C68.4358 98.0217 68.3315 97.8889 68.1995 97.7217C67.9349 97.3864 67.5508 96.9027 67.0654 96.2928C66.0941 95.0726 64.7124 93.342 63.0574 91.272C59.747 87.1316 55.3409 81.6303 50.9321 76.1313C46.5233 70.6323 42.1114 65.1351 38.7897 61.003C37.1289 58.937 35.7402 57.2117 34.7604 55.9977C34.2707 55.391 33.8822 54.9108 33.6127 54.5793C33.4782 54.414 33.3716 54.2834 33.2961 54.192C33.2589 54.1469 33.2262 54.1074 33.2002 54.0768C33.1879 54.0622 33.1722 54.0438 33.1561 54.0256C33.1486 54.0171 33.1348 54.0016 33.1179 53.9835C33.1092 53.9743 33.0888 53.9534 33.0763 53.9409C33.0562 53.9214 32.9977 53.8685 32.9579 53.8355L31.0838 56.1782ZM28.3354 50.3017C28.3355 51.8942 29.0906 53.7889 30.8588 55.9553L33.1829 54.0584C31.6545 52.1858 31.3355 50.9447 31.3354 50.3017L28.3354 50.3017ZM28.4325 48.0651C28.3256 48.5574 28.3354 49.0857 28.3354 50.3017L31.3354 50.3017C31.3354 49.6275 31.3356 49.2478 31.3427 48.9969C31.3494 48.7601 31.361 48.7163 31.3642 48.7015L28.4325 48.0651ZM28.6487 47.2523C28.6032 47.4343 28.5669 47.5624 28.5349 47.6746C28.5057 47.7768 28.4645 47.9174 28.4325 48.0651L31.3642 48.7015C31.3713 48.6688 31.3815 48.6317 31.4196 48.4984C31.4548 48.3751 31.5017 48.2098 31.5592 47.98L28.6487 47.2523ZM31.7289 42.7956C31.3404 43.1841 30.7035 43.8376 30.113 44.5855C29.5538 45.2937 28.8981 46.2549 28.6487 47.2523L31.5592 47.98C31.6455 47.6346 31.9561 47.0924 32.4675 46.4446C32.9476 45.8365 33.4856 45.2816 33.8502 44.917L31.7289 42.7956ZM36.1661 40.5262C35.233 40.7727 34.3233 41.1539 33.5738 41.5442C32.8568 41.9175 32.1594 42.3651 31.7289 42.7956L33.8502 44.917C33.9568 44.8104 34.3336 44.5309 34.9594 44.205C35.5527 43.8961 36.2544 43.6058 36.9326 43.4266L36.1661 40.5262ZM39.9842 40.2229C38.993 40.0813 37.9765 40.0477 36.1661 40.5262L36.9326 43.4266C38.345 43.0533 38.9561 43.1065 39.56 43.1927L39.9842 40.2229ZM43.0384 40.8934C42.3587 40.694 41.4778 40.4363 39.9842 40.2229L39.56 43.1927C40.8488 43.3768 41.5737 43.5901 42.194 43.7721L43.0384 40.8934ZM43.6272 41.0583C43.4523 41.0145 43.2724 40.962 43.0384 40.8934L42.194 43.7721C42.4166 43.8374 42.6556 43.9077 42.8996 43.9687L43.6272 41.0583ZM44.3784 41.2713C44.0501 41.1757 43.7727 41.0946 43.6272 41.0583L42.8996 43.9687C42.9729 43.987 43.1705 44.0442 43.5401 44.1518L44.3784 41.2713ZM67.6217 45.0441C58.9965 45.5103 47.5055 42.1814 44.3784 41.2713L43.5401 44.1518C46.5674 45.0328 58.5592 48.5383 67.7836 48.0397L67.6217 45.0441ZM73.1184 44.7747C71.3751 44.9297 70.1148 45.0419 67.7027 45.0419V48.0419C70.2462 48.0419 71.6089 47.9208 73.3842 47.7629L73.1184 44.7747ZM76.4653 44.5079C75.0741 44.6007 74.03 44.6936 73.1184 44.7747L73.3842 47.7629C74.293 47.682 75.3091 47.5917 76.665 47.5012L76.4653 44.5079ZM95.3484 39.5395C92.2398 40.5278 88.5313 41.7066 85.0656 42.6745C81.5627 43.6529 78.4427 44.3759 76.4653 44.5079L76.665 47.5012C78.9893 47.3461 82.3842 46.5382 85.8726 45.564C89.3983 44.5793 93.1579 43.3839 96.2573 42.3985L95.3484 39.5395ZM102.079 37.5464C100.973 37.7474 98.3688 38.5792 95.3484 39.5395L96.2573 42.3985C99.4242 41.3916 101.756 40.6542 102.615 40.498L102.079 37.5464ZM105.325 36.8761C103.851 37.1884 102.658 37.441 102.079 37.5464L102.615 40.498C103.25 40.3826 104.501 40.1172 105.947 39.8109L105.325 36.8761ZM114.969 35.1051C114.549 35.1051 113.924 35.1895 113.279 35.2932C112.596 35.403 111.769 35.5554 110.882 35.7285C109.105 36.0747 107.042 36.512 105.325 36.8761L105.947 39.8109C107.67 39.4456 109.708 39.0137 111.456 38.673C112.33 38.5026 113.12 38.3573 113.756 38.2551C114.429 38.1468 114.824 38.1051 114.969 38.1051L114.969 35.1051ZM115.578 35.1038C115.378 35.1045 115.177 35.1051 114.969 35.1051L114.969 38.1051C115.182 38.1051 115.388 38.1044 115.588 38.1038L115.578 35.1038ZM125.469 36.2083C119.918 35.0983 118.022 35.0958 115.578 35.1038L115.588 38.1038C117.845 38.0964 119.54 38.082 124.88 39.15L125.469 36.2083ZM135.024 39.3176C131.865 37.5947 129.535 37.0215 125.469 36.2083L124.88 39.15C128.871 39.948 130.838 40.4515 133.587 41.9513L135.024 39.3176ZM137.763 40.8523C136.972 40.4017 136.072 39.8895 135.024 39.3176L133.587 41.9513C134.609 42.5085 135.487 43.0083 136.278 43.4593L137.763 40.8523ZM143.522 43.4211C141.645 43.0488 140.315 42.3054 137.763 40.8523L136.278 43.4593C138.762 44.8735 140.507 45.8813 142.938 46.3637L143.522 43.4211ZM143.521 46.3637C145.954 45.8816 147.699 44.8737 150.183 43.459L148.698 40.8521C146.146 42.3055 144.815 43.0489 142.938 43.421L143.521 46.3637ZM150.183 43.459C150.975 43.0081 151.852 42.5084 152.874 41.9512L151.437 39.3175C150.389 39.8893 149.49 40.4015 148.698 40.8521L150.183 43.459ZM152.874 41.9512C155.623 40.4515 157.591 39.948 161.581 39.15L160.992 36.2083C156.926 37.0215 154.596 37.5946 151.437 39.3175L152.874 41.9512ZM161.581 39.15C166.921 38.0821 168.616 38.0964 170.873 38.1038L170.883 35.1039C168.439 35.0958 166.543 35.0983 160.992 36.2082L161.581 39.15ZM170.873 38.1038C171.073 38.1045 171.279 38.1052 171.492 38.1052L171.492 35.1052C171.284 35.1052 171.083 35.1045 170.883 35.1039L170.873 38.1038ZM171.492 38.1052C171.637 38.1052 172.032 38.1468 172.705 38.2552C173.341 38.3573 174.131 38.5026 175.005 38.6731C176.753 39.0137 178.791 39.4456 180.514 39.8108L181.136 36.876C179.419 36.512 177.355 36.0747 175.579 35.7285C174.692 35.5555 173.865 35.403 173.182 35.2932C172.537 35.1896 171.912 35.1051 171.492 35.1052L171.492 38.1052ZM180.514 39.8108C181.959 40.1171 183.211 40.3825 183.845 40.4979L184.382 37.5463C183.802 37.4409 182.61 37.1883 181.136 36.876L180.514 39.8108ZM183.845 40.4979C184.705 40.6541 187.036 41.3915 190.203 42.3983L191.112 39.5393C188.092 38.5791 185.488 37.7473 184.382 37.5463L183.845 40.4979ZM190.203 42.3983C193.303 43.3837 197.062 44.579 200.588 45.5636C204.076 46.5378 207.471 47.3457 209.795 47.5008L209.995 44.5074C208.018 44.3755 204.898 43.6525 201.395 42.6742C197.929 41.7063 194.221 40.5276 191.112 39.5393L190.203 42.3983ZM209.795 47.5008C211.151 47.5912 212.167 47.6816 213.076 47.7624L213.342 44.7742C212.43 44.6931 211.386 44.6002 209.995 44.5074L209.795 47.5008ZM213.076 47.7624C214.851 47.9203 216.214 48.0414 218.757 48.0414V45.0414C216.345 45.0414 215.085 44.9292 213.342 44.7742L213.076 47.7624ZM218.676 48.0392C227.901 48.5378 239.892 45.0325 242.92 44.1515L242.081 41.271C238.954 42.181 227.463 45.5098 218.838 45.0436L218.676 48.0392ZM242.92 44.1515C243.289 44.0439 243.487 43.9868 243.56 43.9684L242.832 41.058C242.687 41.0944 242.409 41.1755 242.081 41.271L242.92 44.1515ZM243.56 43.9684C243.804 43.9075 244.043 43.8371 244.266 43.7718L243.421 40.8931C243.187 40.9618 243.007 41.0143 242.832 41.058L243.56 43.9684ZM244.266 43.7718C244.886 43.5899 245.611 43.3766 246.9 43.1925L246.475 40.2227C244.982 40.436 244.101 40.6938 243.421 40.8931L244.266 43.7718ZM246.9 43.1925C247.503 43.1063 248.115 43.0531 249.527 43.4264L250.293 40.5259C248.483 40.0475 247.467 40.0811 246.475 40.2227L246.9 43.1925ZM249.527 43.4264C250.205 43.6056 250.907 43.8958 251.5 44.2048C252.126 44.5306 252.503 44.8101 252.609 44.9166L254.731 42.7953C254.3 42.3647 253.603 41.9172 252.886 41.5439C252.136 41.1536 251.226 40.7725 250.293 40.5259L249.527 43.4264ZM252.609 44.9166C252.974 45.2812 253.512 45.8362 253.992 46.4442C254.503 47.0919 254.814 47.6341 254.9 47.9795L257.811 47.2518C257.561 46.2544 256.906 45.2932 256.346 44.5851C255.756 43.8372 255.119 43.1837 254.731 42.7953L252.609 44.9166ZM254.9 47.9795C254.958 48.2093 255.005 48.3746 255.04 48.4979C255.078 48.6312 255.088 48.6682 255.095 48.7009L258.027 48.0645C257.995 47.9169 257.954 47.7763 257.924 47.6741C257.892 47.5619 257.856 47.4337 257.811 47.2518L254.9 47.9795ZM255.095 48.7009C255.098 48.7157 255.11 48.7595 255.117 48.9963C255.124 49.2472 255.124 49.6269 255.124 50.3011L258.124 50.3011C258.124 49.0851 258.134 48.5568 258.027 48.0645L255.095 48.7009ZM255.124 50.3011C255.124 50.9439 254.805 52.1849 253.276 54.0574L255.601 55.9544C257.369 53.7881 258.124 51.8935 258.124 50.3011H255.124ZM253.501 53.8346C253.462 53.8676 253.403 53.9205 253.383 53.94C253.371 53.9524 253.35 53.9734 253.342 53.9826C253.325 54.0006 253.311 54.0162 253.303 54.0247C253.287 54.0429 253.271 54.0613 253.259 54.0758C253.233 54.1065 253.2 54.1459 253.163 54.191C253.088 54.2825 252.981 54.413 252.847 54.5784C252.577 54.9098 252.189 55.39 251.699 55.9967C250.719 57.2106 249.331 58.9358 247.67 61.0017C244.348 65.1336 239.936 70.6305 235.528 76.1292C231.119 81.6279 226.713 87.1289 223.403 91.2691C221.748 93.3391 220.366 95.0696 219.395 96.2897C218.909 96.8995 218.525 97.3832 218.261 97.7185C218.129 97.8857 218.024 98.0185 217.951 98.1124C217.915 98.1587 217.884 98.1999 217.859 98.2328C217.847 98.2483 217.832 98.2688 217.816 98.29C217.809 98.2998 217.796 98.3185 217.781 98.3413C217.773 98.3531 217.755 98.3808 217.745 98.3977C217.729 98.4249 217.686 98.5042 217.66 98.5575L220.391 99.799C220.366 99.8515 220.324 99.9295 220.309 99.9553C220.299 99.9707 220.283 99.9965 220.277 100.006C220.264 100.025 220.255 100.038 220.253 100.04C220.248 100.048 220.247 100.049 220.253 100.04C220.265 100.024 220.287 99.9962 220.32 99.9531C220.386 99.8685 220.484 99.743 220.615 99.5774C220.876 99.247 221.257 98.7671 221.742 98.1581C222.711 96.9405 224.091 95.212 225.746 93.1425C229.055 89.0038 233.46 83.5039 237.868 78.0058C242.276 72.5077 246.687 67.0119 250.008 62.8813C251.668 60.8159 253.056 59.0925 254.033 57.8809C254.523 57.2749 254.908 56.7982 255.174 56.4711C255.308 56.3072 255.409 56.1831 255.478 56.0999C255.512 56.0576 255.536 56.0297 255.549 56.0136C255.557 56.0048 255.557 56.005 255.552 56.0103C255.55 56.0123 255.541 56.0227 255.528 56.0368C255.521 56.0441 255.502 56.0635 255.491 56.0747C255.472 56.0929 255.415 56.1449 255.376 56.1772L253.501 53.8346ZM217.66 98.5576C217.814 98.2204 218.085 97.9544 218.42 97.8071C218.716 97.6768 218.98 97.6739 219.124 97.6839C219.393 97.7024 219.587 97.7912 219.628 97.8096C219.699 97.8419 219.751 97.8726 219.774 97.8861C219.8 97.902 219.818 97.9146 219.827 97.9206C219.85 97.9362 219.846 97.9352 219.792 97.8916C219.696 97.8136 219.547 97.6874 219.326 97.4998L217.385 99.7866C217.593 99.9631 217.773 100.117 217.902 100.221C217.961 100.269 218.044 100.335 218.126 100.392C218.154 100.411 218.258 100.483 218.395 100.545C218.445 100.567 218.644 100.658 218.918 100.677C219.065 100.687 219.331 100.684 219.629 100.553C219.965 100.405 220.238 100.138 220.392 99.7989L217.66 98.5576ZM219.326 97.4998C216.463 95.0685 204.404 84.7981 189.469 82.712C181.94 81.6603 173.669 82.6862 165.525 87.8153C157.405 92.9291 149.537 102.042 142.629 116.934L145.35 118.196C152.098 103.65 159.636 95.0691 167.123 90.3538C174.586 85.6539 182.123 84.7151 189.054 85.6832C203.039 87.6366 214.507 97.3432 217.385 99.7866L219.326 97.4998ZM145.474 120.935C145.474 119.883 145.479 118.761 145.489 117.577L142.489 117.552C142.479 118.742 142.474 119.873 142.474 120.935H145.474ZM141.86 119.845C142.106 120.398 142.351 120.958 142.595 121.526L145.352 120.343C145.103 119.762 144.852 119.189 144.6 118.623L141.86 119.845ZM141.86 118.623C141.608 119.187 141.358 119.759 141.109 120.339L143.866 121.522C144.109 120.955 144.354 120.396 144.6 119.845L141.86 118.623ZM143.988 120.931C143.988 119.871 143.982 118.743 143.972 117.556L140.972 117.582C140.982 118.762 140.988 119.881 140.988 120.931H143.988ZM69.0754 99.7898C71.9531 97.3463 83.421 87.6391 97.4066 85.6856C104.337 84.7175 111.875 85.6563 119.338 90.3566C126.825 95.0721 134.364 103.654 141.112 118.2L143.833 116.938C136.925 102.045 129.057 92.9322 120.937 87.8181C112.792 82.6887 104.521 81.6627 96.9916 82.7144C82.0566 84.8006 69.997 95.0716 67.1336 97.503L69.0754 99.7898Z" fill="#FC8063"/>
<ellipse cx="102.078" cy="116.096" rx="41.0897" ry="41.3583" fill="#FAD97E"/>
<circle cx="185.6" cy="117.17" r="41.3583" fill="#FAD97E"/>
<path d="M138.881 142.028C151.897 147.739 144.664 155.944 144.664 159.16C144.664 166.829 153.527 170.222 144.664 173.192C138.219 173.934 126.588 158.31 125.865 157.111C121.837 152.163 125.865 136.317 138.881 142.028Z" fill="#916046"/>
<path d="M148.056 139.933C135.04 145.895 142.273 154.461 142.273 157.819C142.273 165.825 134.574 169.931 143.436 173.031C149.882 173.806 160.349 156.931 161.072 155.68C165.101 150.514 161.072 133.972 148.056 139.933Z" fill="#916046"/>
<path fill-rule="evenodd" clip-rule="evenodd" d="M148.072 116.134C146.772 113.45 142.08 111.979 139.552 115.428C136.598 119.457 121.558 143.896 125.587 149.267C126.165 150.309 133.737 161.389 140.041 165.351C140.881 166.099 141.866 166.649 143.016 166.963C149.462 167.766 161.094 150.858 161.817 149.561C165.753 144.329 151.484 120.949 148.072 116.134Z" fill="#FC8063"/>
<ellipse cx="99.9609" cy="117.166" rx="28.5239" ry="24.7808" fill="white"/>
<ellipse cx="99.961" cy="116.296" rx="12.9654" ry="9.99927" fill="#4A5058"/>
<ellipse cx="105.268" cy="117.166" rx="1.99004" ry="2.00188" fill="white"/>
<ellipse cx="187.512" cy="117.703" rx="28.5239" ry="24.7808" fill="white"/>
<ellipse cx="187.512" cy="116.833" rx="12.9654" ry="9.99927" fill="#4A5058"/>
<ellipse cx="192.819" cy="117.703" rx="1.99004" ry="2.00188" fill="white"/>
</svg>
