<svg width="41" height="41" viewBox="0 0 41 41" fill="none" xmlns="http://www.w3.org/2000/svg">
<g filter="url(#filter0_d_171_471)">
<circle cx="20.5" cy="18.5" r="12.5" fill="white"/>
</g>
<g filter="url(#filter1_d_171_471)">
<path d="M21.8332 20.6315H19.3762C19.3762 18.1745 20.8504 17.4374 21.8332 16.946C22.2018 16.8232 22.4475 16.7003 22.6932 16.4546C22.816 16.3318 23.0617 16.0861 22.816 15.5947C22.5703 14.9804 21.8332 14.3662 20.7276 14.3662C19.0077 14.3662 18.762 15.8404 18.6391 16.2089L16.1821 15.8404C16.305 14.489 17.4106 11.9092 20.6047 11.9092C22.5703 11.9092 24.2902 13.0148 25.0273 14.6119C25.5187 15.9632 25.273 17.3146 24.2902 18.2974C23.7988 18.7888 23.3074 19.0345 22.816 19.1573C22.0789 19.6487 21.8332 19.403 21.8332 20.6315V20.6315Z" fill="#50A5FE"/>
<path d="M19.2534 21.8599H21.7104V24.3169H19.2534V21.8599Z" fill="#50A5FE"/>
</g>
<defs>
<filter id="filter0_d_171_471" x="0" y="0" width="41" height="41" filterUnits="userSpaceOnUse" color-interpolation-filters="sRGB">
<feFlood flood-opacity="0" result="BackgroundImageFix"/>
<feColorMatrix in="SourceAlpha" type="matrix" values="0 0 0 0 0 0 0 0 0 0 0 0 0 0 0 0 0 0 127 0" result="hardAlpha"/>
<feOffset dy="2"/>
<feGaussianBlur stdDeviation="4"/>
<feComposite in2="hardAlpha" operator="out"/>
<feColorMatrix type="matrix" values="0 0 0 0 0.533333 0 0 0 0 0.533333 0 0 0 0 0.533333 0 0 0 0.25 0"/>
<feBlend mode="normal" in2="BackgroundImageFix" result="effect1_dropShadow_171_471"/>
<feBlend mode="normal" in="SourceGraphic" in2="effect1_dropShadow_171_471" result="shape"/>
</filter>
<filter id="filter1_d_171_471" x="8.18213" y="3.90918" width="25.0908" height="28.4077" filterUnits="userSpaceOnUse" color-interpolation-filters="sRGB">
<feFlood flood-opacity="0" result="BackgroundImageFix"/>
<feColorMatrix in="SourceAlpha" type="matrix" values="0 0 0 0 0 0 0 0 0 0 0 0 0 0 0 0 0 0 127 0" result="hardAlpha"/>
<feOffset/>
<feGaussianBlur stdDeviation="4"/>
<feComposite in2="hardAlpha" operator="out"/>
<feColorMatrix type="matrix" values="0 0 0 0 0 0 0 0 0 0 0 0 0 0 0 0 0 0 0.11 0"/>
<feBlend mode="normal" in2="BackgroundImageFix" result="effect1_dropShadow_171_471"/>
<feBlend mode="normal" in="SourceGraphic" in2="effect1_dropShadow_171_471" result="shape"/>
</filter>
</defs>
</svg>
