<svg width="40" height="40" viewBox="0 0 40 40" fill="none" xmlns="http://www.w3.org/2000/svg">
<circle cx="20" cy="20" r="19" fill="white" stroke="#99B1F9" stroke-width="2"/>
<path d="M22.1327 23.4103H18.2015C18.2015 19.4791 20.5602 18.2997 22.1327 17.5135C22.7224 17.3169 23.1155 17.1204 23.5086 16.7273C23.7052 16.5307 24.0983 16.1376 23.7052 15.3513C23.3121 14.3685 22.1327 13.3857 20.3637 13.3857C17.6118 13.3857 17.2187 15.7445 17.0221 16.3341L13.0909 15.7445C13.2875 13.5823 15.0565 9.45453 20.1671 9.45453C23.3121 9.45453 26.0639 11.2236 27.2433 13.7789C28.0295 15.941 27.6364 18.1032 26.0639 19.6757C25.2777 20.4619 24.4914 20.855 23.7052 21.0516C22.5258 21.8378 22.1327 21.4447 22.1327 23.4103V23.4103Z" fill="#5091F9"/>
<path d="M18.005 25.3759H21.9362V29.3071H18.005V25.3759Z" fill="#5091F9"/>
</svg>
