<svg width="21" height="21" viewBox="0 0 21 21" fill="none" xmlns="http://www.w3.org/2000/svg">
<circle cx="10.5" cy="10.5" r="10.5" fill="white"/>
<path d="M3.288 15V5.83H6.018C6.48467 5.83 6.914 5.872 7.306 5.956C7.698 6.03067 8.034 6.15667 8.314 6.334C8.60333 6.51133 8.82733 6.74467 8.986 7.034C9.14467 7.314 9.224 7.65933 9.224 8.07C9.224 8.518 9.09333 8.92867 8.832 9.302C8.57067 9.67533 8.16933 9.932 7.628 10.072V10.128C8.3 10.2307 8.81333 10.464 9.168 10.828C9.532 11.192 9.714 11.6867 9.714 12.312C9.714 12.7693 9.63 13.166 9.462 13.502C9.294 13.838 9.056 14.118 8.748 14.342C8.44 14.566 8.07133 14.734 7.642 14.846C7.222 14.9487 6.75533 15 6.242 15H3.288ZM4.688 9.638H5.85C6.55933 9.638 7.068 9.52133 7.376 9.288C7.69333 9.05467 7.852 8.7 7.852 8.224C7.852 7.76667 7.68867 7.44467 7.362 7.258C7.03533 7.07133 6.54533 6.978 5.892 6.978H4.688V9.638ZM4.688 13.852H6.074C6.802 13.852 7.362 13.726 7.754 13.474C8.146 13.2127 8.342 12.7973 8.342 12.228C8.342 11.696 8.15067 11.318 7.768 11.094C7.38533 10.87 6.82067 10.758 6.074 10.758H4.688V13.852ZM15.3225 15.168C14.7532 15.168 14.2212 15.0653 13.7265 14.86C13.2319 14.6453 12.8025 14.3373 12.4385 13.936C12.0745 13.5253 11.7852 13.0307 11.5705 12.452C11.3652 11.864 11.2625 11.192 11.2625 10.436C11.2625 9.68933 11.3652 9.022 11.5705 8.434C11.7852 7.846 12.0745 7.34667 12.4385 6.936C12.8119 6.52533 13.2505 6.21267 13.7545 5.998C14.2679 5.774 14.8279 5.662 15.4345 5.662C15.9945 5.662 16.4939 5.77867 16.9325 6.012C17.3712 6.236 17.7305 6.49733 18.0105 6.796L17.2265 7.678C16.9932 7.43533 16.7319 7.244 16.4425 7.104C16.1532 6.95467 15.8172 6.88 15.4345 6.88C15.0239 6.88 14.6505 6.964 14.3145 7.132C13.9785 7.29067 13.6892 7.524 13.4465 7.832C13.2132 8.13067 13.0312 8.49933 12.9005 8.938C12.7699 9.36733 12.7045 9.85267 12.7045 10.394C12.7045 10.9447 12.7699 11.4393 12.9005 11.878C13.0312 12.3167 13.2179 12.69 13.4605 12.998C13.7032 13.306 13.9925 13.544 14.3285 13.712C14.6645 13.8707 15.0425 13.95 15.4625 13.95C15.8639 13.95 16.2232 13.866 16.5405 13.698C16.8579 13.53 17.1519 13.292 17.4225 12.984L18.2065 13.838C17.8425 14.2673 17.4225 14.5987 16.9465 14.832C16.4799 15.056 15.9385 15.168 15.3225 15.168Z" fill="black"/>
</svg>
