<svg width="21" height="23" viewBox="0 0 21 23" fill="none" xmlns="http://www.w3.org/2000/svg">
<circle cx="10.5" cy="11.5" r="10" fill="white" stroke="#222831"/>
<path d="M9.248 13.716C9.176 13.296 9.194 12.924 9.302 12.6C9.41 12.264 9.566 11.964 9.77 11.7C9.974 11.424 10.202 11.172 10.454 10.944C10.706 10.704 10.94 10.47 11.156 10.242C11.384 10.014 11.576 9.786 11.732 9.558C11.888 9.318 11.966 9.054 11.966 8.766C11.966 8.31 11.81 7.932 11.498 7.632C11.186 7.332 10.736 7.182 10.148 7.182C9.716 7.182 9.314 7.272 8.942 7.452C8.582 7.632 8.246 7.872 7.934 8.172L6.908 7.236C7.328 6.792 7.814 6.432 8.366 6.156C8.93 5.868 9.566 5.724 10.274 5.724C10.778 5.724 11.24 5.79 11.66 5.922C12.08 6.054 12.44 6.24 12.74 6.48C13.04 6.72 13.274 7.02 13.442 7.38C13.61 7.728 13.694 8.124 13.694 8.568C13.694 8.976 13.616 9.336 13.46 9.648C13.304 9.948 13.112 10.224 12.884 10.476C12.656 10.728 12.41 10.968 12.146 11.196C11.882 11.424 11.642 11.664 11.426 11.916C11.222 12.156 11.054 12.426 10.922 12.726C10.802 13.014 10.766 13.344 10.814 13.716H9.248ZM10.148 18.216C9.752 18.216 9.41 18.078 9.122 17.802C8.846 17.526 8.708 17.16 8.708 16.704C8.708 16.248 8.846 15.888 9.122 15.624C9.41 15.348 9.752 15.21 10.148 15.21C10.544 15.21 10.88 15.348 11.156 15.624C11.444 15.888 11.588 16.248 11.588 16.704C11.588 17.16 11.444 17.526 11.156 17.802C10.88 18.078 10.544 18.216 10.148 18.216Z" fill="black"/>
</svg>
