<svg width="307" height="186" viewBox="0 0 307 186" fill="none" xmlns="http://www.w3.org/2000/svg">
<g filter="url(#filter0_d_192_2)">
<rect x="8" y="6" width="291" height="170" rx="8" fill="white"/>
</g>
<path d="M116.202 64.172C117.702 64.172 118.854 64.532 119.658 65.252C120.462 65.96 120.864 67.034 120.864 68.474V74H118.236V72.794C117.708 73.694 116.724 74.144 115.284 74.144C114.54 74.144 113.892 74.018 113.34 73.766C112.8 73.514 112.386 73.166 112.098 72.722C111.81 72.278 111.666 71.774 111.666 71.21C111.666 70.31 112.002 69.602 112.674 69.086C113.358 68.57 114.408 68.312 115.824 68.312H118.056C118.056 67.7 117.87 67.232 117.498 66.908C117.126 66.572 116.568 66.404 115.824 66.404C115.308 66.404 114.798 66.488 114.294 66.656C113.802 66.812 113.382 67.028 113.034 67.304L112.026 65.342C112.554 64.97 113.184 64.682 113.916 64.478C114.66 64.274 115.422 64.172 116.202 64.172ZM115.986 72.254C116.466 72.254 116.892 72.146 117.264 71.93C117.636 71.702 117.9 71.372 118.056 70.94V69.95H116.13C114.978 69.95 114.402 70.328 114.402 71.084C114.402 71.444 114.54 71.732 114.816 71.948C115.104 72.152 115.494 72.254 115.986 72.254ZM135.807 64.172C137.019 64.172 137.979 64.532 138.687 65.252C139.407 65.96 139.767 67.028 139.767 68.456V74H136.959V68.888C136.959 68.12 136.797 67.55 136.473 67.178C136.161 66.794 135.711 66.602 135.123 66.602C134.463 66.602 133.941 66.818 133.557 67.25C133.173 67.67 132.981 68.3 132.981 69.14V74H130.173V68.888C130.173 67.364 129.561 66.602 128.337 66.602C127.689 66.602 127.173 66.818 126.789 67.25C126.405 67.67 126.213 68.3 126.213 69.14V74H123.405V64.316H126.087V65.432C126.447 65.024 126.885 64.712 127.401 64.496C127.929 64.28 128.505 64.172 129.129 64.172C129.813 64.172 130.431 64.31 130.983 64.586C131.535 64.85 131.979 65.24 132.315 65.756C132.711 65.252 133.209 64.862 133.809 64.586C134.421 64.31 135.087 64.172 135.807 64.172Z" fill="#81DA4F"/>
<path d="M28.89 61.4H30.69V74H28.89V61.4Z" fill="#26C1FC"/>
<path d="M39.726 93.4V106H37.926V100.384H30.69V106H28.89V93.4H30.69V98.818H37.926V93.4H39.726ZM51.8674 101.284C51.8674 101.416 51.8554 101.59 51.8314 101.806H44.0914C44.1994 102.646 44.5654 103.324 45.1894 103.84C45.8254 104.344 46.6114 104.596 47.5474 104.596C48.6874 104.596 49.6054 104.212 50.3014 103.444L51.2554 104.56C50.8234 105.064 50.2834 105.448 49.6354 105.712C48.9994 105.976 48.2854 106.108 47.4934 106.108C46.4854 106.108 45.5914 105.904 44.8114 105.496C44.0314 105.076 43.4254 104.494 42.9934 103.75C42.5734 103.006 42.3634 102.166 42.3634 101.23C42.3634 100.306 42.5674 99.472 42.9754 98.728C43.3954 97.984 43.9654 97.408 44.6854 97C45.4174 96.58 46.2394 96.37 47.1514 96.37C48.0634 96.37 48.8734 96.58 49.5814 97C50.3014 97.408 50.8594 97.984 51.2554 98.728C51.6634 99.472 51.8674 100.324 51.8674 101.284ZM47.1514 97.828C46.3234 97.828 45.6274 98.08 45.0634 98.584C44.5114 99.088 44.1874 99.748 44.0914 100.564H50.2114C50.1154 99.76 49.7854 99.106 49.2214 98.602C48.6694 98.086 47.9794 97.828 47.1514 97.828ZM62.8989 90.844H64.4649L58.5249 107.8H56.9589L62.8989 90.844ZM74.187 106.144C73.239 106.144 72.321 106 71.433 105.712C70.557 105.412 69.867 105.028 69.363 104.56L70.029 103.156C70.509 103.588 71.121 103.942 71.865 104.218C72.621 104.482 73.395 104.614 74.187 104.614C75.231 104.614 76.011 104.44 76.527 104.092C77.043 103.732 77.301 103.258 77.301 102.67C77.301 102.238 77.157 101.89 76.869 101.626C76.593 101.35 76.245 101.14 75.825 100.996C75.417 100.852 74.835 100.69 74.079 100.51C73.131 100.282 72.363 100.054 71.775 99.826C71.199 99.598 70.701 99.25 70.281 98.782C69.873 98.302 69.669 97.66 69.669 96.856C69.669 96.184 69.843 95.578 70.191 95.038C70.551 94.498 71.091 94.066 71.811 93.742C72.531 93.418 73.425 93.256 74.493 93.256C75.237 93.256 75.969 93.352 76.689 93.544C77.409 93.736 78.027 94.012 78.543 94.372L77.949 95.812C77.421 95.476 76.857 95.224 76.257 95.056C75.657 94.876 75.069 94.786 74.493 94.786C73.473 94.786 72.705 94.972 72.189 95.344C71.685 95.716 71.433 96.196 71.433 96.784C71.433 97.216 71.577 97.57 71.865 97.846C72.153 98.11 72.507 98.32 72.927 98.476C73.359 98.62 73.941 98.776 74.673 98.944C75.621 99.172 76.383 99.4 76.959 99.628C77.535 99.856 78.027 100.204 78.435 100.672C78.855 101.14 79.065 101.77 79.065 102.562C79.065 103.222 78.885 103.828 78.525 104.38C78.165 104.92 77.619 105.352 76.887 105.676C76.155 105.988 75.255 106.144 74.187 106.144ZM86.5367 96.37C87.7487 96.37 88.7087 96.724 89.4167 97.432C90.1367 98.128 90.4967 99.154 90.4967 100.51V106H88.7687V100.708C88.7687 99.784 88.5467 99.088 88.1027 98.62C87.6587 98.152 87.0227 97.918 86.1947 97.918C85.2587 97.918 84.5207 98.194 83.9807 98.746C83.4407 99.286 83.1707 100.066 83.1707 101.086V106H81.4427V92.644H83.1707V97.81C83.5307 97.354 83.9987 97 84.5747 96.748C85.1627 96.496 85.8167 96.37 86.5367 96.37ZM102.369 101.284C102.369 101.416 102.357 101.59 102.333 101.806H94.5934C94.7014 102.646 95.0674 103.324 95.6914 103.84C96.3274 104.344 97.1134 104.596 98.0494 104.596C99.1894 104.596 100.107 104.212 100.803 103.444L101.757 104.56C101.325 105.064 100.785 105.448 100.137 105.712C99.5014 105.976 98.7874 106.108 97.9954 106.108C96.9874 106.108 96.0934 105.904 95.3134 105.496C94.5334 105.076 93.9274 104.494 93.4954 103.75C93.0754 103.006 92.8654 102.166 92.8654 101.23C92.8654 100.306 93.0694 99.472 93.4774 98.728C93.8974 97.984 94.4674 97.408 95.1874 97C95.9194 96.58 96.7414 96.37 97.6534 96.37C98.5654 96.37 99.3754 96.58 100.083 97C100.803 97.408 101.361 97.984 101.757 98.728C102.165 99.472 102.369 100.324 102.369 101.284ZM97.6534 97.828C96.8254 97.828 96.1294 98.08 95.5654 98.584C95.0134 99.088 94.6894 99.748 94.5934 100.564H100.713C100.617 99.76 100.287 99.106 99.7234 98.602C99.1714 98.086 98.4814 97.828 97.6534 97.828ZM113.401 90.844H114.967L109.027 107.8H107.461L113.401 90.844ZM121.017 93.4H122.817V106H121.017V93.4ZM131.701 105.442C131.449 105.658 131.137 105.826 130.765 105.946C130.393 106.054 130.009 106.108 129.613 106.108C128.653 106.108 127.909 105.85 127.381 105.334C126.853 104.818 126.589 104.08 126.589 103.12V97.882H124.969V96.46H126.589V94.372H128.317V96.46H131.053V97.882H128.317V103.048C128.317 103.564 128.443 103.96 128.695 104.236C128.959 104.512 129.331 104.65 129.811 104.65C130.339 104.65 130.789 104.5 131.161 104.2L131.701 105.442Z" fill="#26C1FC"/>
<path d="M33.714 137.644V142H31.932V137.608L26.928 129.4H28.854L32.886 136.042L36.936 129.4H38.718L33.714 137.644ZM43.306 142.108C42.358 142.108 41.506 141.898 40.75 141.478C39.994 141.058 39.4 140.482 38.968 139.75C38.548 139.006 38.338 138.166 38.338 137.23C38.338 136.294 38.548 135.46 38.968 134.728C39.4 133.984 39.994 133.408 40.75 133C41.506 132.58 42.358 132.37 43.306 132.37C44.254 132.37 45.1 132.58 45.844 133C46.6 133.408 47.188 133.984 47.608 134.728C48.04 135.46 48.256 136.294 48.256 137.23C48.256 138.166 48.04 139.006 47.608 139.75C47.188 140.482 46.6 141.058 45.844 141.478C45.1 141.898 44.254 142.108 43.306 142.108ZM43.306 140.596C43.918 140.596 44.464 140.458 44.944 140.182C45.436 139.894 45.82 139.498 46.096 138.994C46.372 138.478 46.51 137.89 46.51 137.23C46.51 136.57 46.372 135.988 46.096 135.484C45.82 134.968 45.436 134.572 44.944 134.296C44.464 134.02 43.918 133.882 43.306 133.882C42.694 133.882 42.142 134.02 41.65 134.296C41.17 134.572 40.786 134.968 40.498 135.484C40.222 135.988 40.084 136.57 40.084 137.23C40.084 137.89 40.222 138.478 40.498 138.994C40.786 139.498 41.17 139.894 41.65 140.182C42.142 140.458 42.694 140.596 43.306 140.596ZM59.5378 132.46V142H57.8998V140.56C57.5518 141.052 57.0898 141.436 56.5138 141.712C55.9498 141.976 55.3318 142.108 54.6598 142.108C53.3878 142.108 52.3858 141.76 51.6538 141.064C50.9218 140.356 50.5558 139.318 50.5558 137.95V132.46H52.2838V137.752C52.2838 138.676 52.5058 139.378 52.9498 139.858C53.3938 140.326 54.0298 140.56 54.8578 140.56C55.7698 140.56 56.4898 140.284 57.0178 139.732C57.5458 139.18 57.8098 138.4 57.8098 137.392V132.46H59.5378ZM71.4594 126.844H73.0254L67.0854 143.8H65.5194L71.4594 126.844ZM96.8775 129.4L92.6655 142H90.7755L87.3375 131.938L83.8995 142H81.9735L77.7615 129.4H79.6155L83.0175 139.642L86.5635 129.4H88.2195L91.6935 139.696L95.1675 129.4H96.8775ZM106.729 137.284C106.729 137.416 106.717 137.59 106.693 137.806H98.9528C99.0608 138.646 99.4268 139.324 100.051 139.84C100.687 140.344 101.473 140.596 102.409 140.596C103.549 140.596 104.467 140.212 105.163 139.444L106.117 140.56C105.685 141.064 105.145 141.448 104.497 141.712C103.861 141.976 103.147 142.108 102.355 142.108C101.347 142.108 100.453 141.904 99.6728 141.496C98.8928 141.076 98.2868 140.494 97.8548 139.75C97.4348 139.006 97.2248 138.166 97.2248 137.23C97.2248 136.306 97.4288 135.472 97.8368 134.728C98.2568 133.984 98.8268 133.408 99.5468 133C100.279 132.58 101.101 132.37 102.013 132.37C102.925 132.37 103.735 132.58 104.443 133C105.163 133.408 105.721 133.984 106.117 134.728C106.525 135.472 106.729 136.324 106.729 137.284ZM102.013 133.828C101.185 133.828 100.489 134.08 99.9248 134.584C99.3728 135.088 99.0488 135.748 98.9528 136.564H105.073C104.977 135.76 104.647 135.106 104.083 134.602C103.531 134.086 102.841 133.828 102.013 133.828ZM117.76 126.844H119.326L113.386 143.8H111.82L117.76 126.844ZM127.878 130.966H123.558V129.4H133.98V130.966H129.66V142H127.878V130.966ZM140.783 132.37C141.995 132.37 142.955 132.724 143.663 133.432C144.383 134.128 144.743 135.154 144.743 136.51V142H143.015V136.708C143.015 135.784 142.793 135.088 142.349 134.62C141.905 134.152 141.269 133.918 140.441 133.918C139.505 133.918 138.767 134.194 138.227 134.746C137.687 135.286 137.417 136.066 137.417 137.086V142H135.689V128.644H137.417V133.81C137.777 133.354 138.245 133 138.821 132.748C139.409 132.496 140.063 132.37 140.783 132.37ZM156.615 137.284C156.615 137.416 156.603 137.59 156.579 137.806H148.839C148.947 138.646 149.313 139.324 149.937 139.84C150.573 140.344 151.359 140.596 152.295 140.596C153.435 140.596 154.353 140.212 155.049 139.444L156.003 140.56C155.571 141.064 155.031 141.448 154.383 141.712C153.747 141.976 153.033 142.108 152.241 142.108C151.233 142.108 150.339 141.904 149.559 141.496C148.779 141.076 148.173 140.494 147.741 139.75C147.321 139.006 147.111 138.166 147.111 137.23C147.111 136.306 147.315 135.472 147.723 134.728C148.143 133.984 148.713 133.408 149.433 133C150.165 132.58 150.987 132.37 151.899 132.37C152.811 132.37 153.621 132.58 154.329 133C155.049 133.408 155.607 133.984 156.003 134.728C156.411 135.472 156.615 136.324 156.615 137.284ZM151.899 133.828C151.071 133.828 150.375 134.08 149.811 134.584C149.259 135.088 148.935 135.748 148.839 136.564H154.959C154.863 135.76 154.533 135.106 153.969 134.602C153.417 134.086 152.727 133.828 151.899 133.828ZM167.281 132.46L162.655 142.954C162.247 143.926 161.767 144.61 161.215 145.006C160.675 145.402 160.021 145.6 159.253 145.6C158.785 145.6 158.329 145.522 157.885 145.366C157.453 145.222 157.093 145.006 156.805 144.718L157.543 143.422C158.035 143.89 158.605 144.124 159.253 144.124C159.673 144.124 160.021 144.01 160.297 143.782C160.585 143.566 160.843 143.188 161.071 142.648L161.377 141.982L157.165 132.46H158.965L162.295 140.092L165.589 132.46H167.281Z" fill="#26C1FC"/>
<path d="M212.296 96.316H215.104V106H212.296V96.316ZM213.7 94.966C213.184 94.966 212.764 94.816 212.44 94.516C212.116 94.216 211.954 93.844 211.954 93.4C211.954 92.956 212.116 92.584 212.44 92.284C212.764 91.984 213.184 91.834 213.7 91.834C214.216 91.834 214.636 91.978 214.96 92.266C215.284 92.554 215.446 92.914 215.446 93.346C215.446 93.814 215.284 94.204 214.96 94.516C214.636 94.816 214.216 94.966 213.7 94.966ZM220.968 106.144C220.164 106.144 219.378 106.048 218.61 105.856C217.842 105.652 217.23 105.4 216.774 105.1L217.71 103.084C218.142 103.36 218.664 103.588 219.276 103.768C219.888 103.936 220.488 104.02 221.076 104.02C222.264 104.02 222.858 103.726 222.858 103.138C222.858 102.862 222.696 102.664 222.372 102.544C222.048 102.424 221.55 102.322 220.878 102.238C220.086 102.118 219.432 101.98 218.916 101.824C218.4 101.668 217.95 101.392 217.566 100.996C217.194 100.6 217.008 100.036 217.008 99.304C217.008 98.692 217.182 98.152 217.53 97.684C217.89 97.204 218.406 96.832 219.078 96.568C219.762 96.304 220.566 96.172 221.49 96.172C222.174 96.172 222.852 96.25 223.524 96.406C224.208 96.55 224.772 96.754 225.216 97.018L224.28 99.016C223.428 98.536 222.498 98.296 221.49 98.296C220.89 98.296 220.44 98.38 220.14 98.548C219.84 98.716 219.69 98.932 219.69 99.196C219.69 99.496 219.852 99.706 220.176 99.826C220.5 99.946 221.016 100.06 221.724 100.168C222.516 100.3 223.164 100.444 223.668 100.6C224.172 100.744 224.61 101.014 224.982 101.41C225.354 101.806 225.54 102.358 225.54 103.066C225.54 103.666 225.36 104.2 225 104.668C224.64 105.136 224.112 105.502 223.416 105.766C222.732 106.018 221.916 106.144 220.968 106.144Z" fill="#81DA4F"/>
<path d="M245.202 132.172C246.702 132.172 247.854 132.532 248.658 133.252C249.462 133.96 249.864 135.034 249.864 136.474V142H247.236V140.794C246.708 141.694 245.724 142.144 244.284 142.144C243.54 142.144 242.892 142.018 242.34 141.766C241.8 141.514 241.386 141.166 241.098 140.722C240.81 140.278 240.666 139.774 240.666 139.21C240.666 138.31 241.002 137.602 241.674 137.086C242.358 136.57 243.408 136.312 244.824 136.312H247.056C247.056 135.7 246.87 135.232 246.498 134.908C246.126 134.572 245.568 134.404 244.824 134.404C244.308 134.404 243.798 134.488 243.294 134.656C242.802 134.812 242.382 135.028 242.034 135.304L241.026 133.342C241.554 132.97 242.184 132.682 242.916 132.478C243.66 132.274 244.422 132.172 245.202 132.172ZM244.986 140.254C245.466 140.254 245.892 140.146 246.264 139.93C246.636 139.702 246.9 139.372 247.056 138.94V137.95H245.13C243.978 137.95 243.402 138.328 243.402 139.084C243.402 139.444 243.54 139.732 243.816 139.948C244.104 140.152 244.494 140.254 244.986 140.254ZM255.087 133.594C255.423 133.126 255.873 132.772 256.437 132.532C257.013 132.292 257.673 132.172 258.417 132.172V134.764C258.105 134.74 257.895 134.728 257.787 134.728C256.983 134.728 256.353 134.956 255.897 135.412C255.441 135.856 255.213 136.528 255.213 137.428V142H252.405V132.316H255.087V133.594ZM269.485 137.194C269.485 137.23 269.467 137.482 269.431 137.95H262.105C262.237 138.55 262.549 139.024 263.041 139.372C263.533 139.72 264.145 139.894 264.877 139.894C265.381 139.894 265.825 139.822 266.209 139.678C266.605 139.522 266.971 139.282 267.307 138.958L268.801 140.578C267.889 141.622 266.557 142.144 264.805 142.144C263.713 142.144 262.747 141.934 261.907 141.514C261.067 141.082 260.419 140.488 259.963 139.732C259.507 138.976 259.279 138.118 259.279 137.158C259.279 136.21 259.501 135.358 259.945 134.602C260.401 133.834 261.019 133.24 261.799 132.82C262.591 132.388 263.473 132.172 264.445 132.172C265.393 132.172 266.251 132.376 267.019 132.784C267.787 133.192 268.387 133.78 268.819 134.548C269.263 135.304 269.485 136.186 269.485 137.194ZM264.463 134.296C263.827 134.296 263.293 134.476 262.861 134.836C262.429 135.196 262.165 135.688 262.069 136.312H266.839C266.743 135.7 266.479 135.214 266.047 134.854C265.615 134.482 265.087 134.296 264.463 134.296Z" fill="#81DA4F"/>
<path d="M36.542 37.532C36.266 37.736 35.924 37.892 35.516 38C35.12 38.096 34.7 38.144 34.256 38.144C33.104 38.144 32.21 37.85 31.574 37.262C30.95 36.674 30.638 35.81 30.638 34.67V30.692H29.144V28.532H30.638V26.174H33.446V28.532H35.858V30.692H33.446V34.634C33.446 35.042 33.548 35.36 33.752 35.588C33.968 35.804 34.268 35.912 34.652 35.912C35.096 35.912 35.474 35.792 35.786 35.552L36.542 37.532ZM42.4274 38.144C41.4074 38.144 40.4894 37.934 39.6734 37.514C38.8694 37.082 38.2394 36.488 37.7834 35.732C37.3274 34.976 37.0994 34.118 37.0994 33.158C37.0994 32.198 37.3274 31.34 37.7834 30.584C38.2394 29.828 38.8694 29.24 39.6734 28.82C40.4894 28.388 41.4074 28.172 42.4274 28.172C43.4474 28.172 44.3594 28.388 45.1634 28.82C45.9674 29.24 46.5974 29.828 47.0534 30.584C47.5094 31.34 47.7374 32.198 47.7374 33.158C47.7374 34.118 47.5094 34.976 47.0534 35.732C46.5974 36.488 45.9674 37.082 45.1634 37.514C44.3594 37.934 43.4474 38.144 42.4274 38.144ZM42.4274 35.84C43.1474 35.84 43.7354 35.6 44.1914 35.12C44.6594 34.628 44.8934 33.974 44.8934 33.158C44.8934 32.342 44.6594 31.694 44.1914 31.214C43.7354 30.722 43.1474 30.476 42.4274 30.476C41.7074 30.476 41.1134 30.722 40.6454 31.214C40.1774 31.694 39.9434 32.342 39.9434 33.158C39.9434 33.974 40.1774 34.628 40.6454 35.12C41.1134 35.6 41.7074 35.84 42.4274 35.84ZM60.436 28.172C61.336 28.172 62.152 28.382 62.884 28.802C63.628 29.21 64.21 29.792 64.63 30.548C65.05 31.292 65.26 32.162 65.26 33.158C65.26 34.154 65.05 35.03 64.63 35.786C64.21 36.53 63.628 37.112 62.884 37.532C62.152 37.94 61.336 38.144 60.436 38.144C59.104 38.144 58.09 37.724 57.394 36.884V38H54.712V24.644H57.52V29.342C58.228 28.562 59.2 28.172 60.436 28.172ZM59.95 35.84C60.67 35.84 61.258 35.6 61.714 35.12C62.182 34.628 62.416 33.974 62.416 33.158C62.416 32.342 62.182 31.694 61.714 31.214C61.258 30.722 60.67 30.476 59.95 30.476C59.23 30.476 58.636 30.722 58.168 31.214C57.712 31.694 57.484 32.342 57.484 33.158C57.484 33.974 57.712 34.628 58.168 35.12C58.636 35.6 59.23 35.84 59.95 35.84ZM76.6258 33.194C76.6258 33.23 76.6078 33.482 76.5718 33.95H69.2458C69.3778 34.55 69.6898 35.024 70.1818 35.372C70.6738 35.72 71.2858 35.894 72.0178 35.894C72.5218 35.894 72.9658 35.822 73.3498 35.678C73.7458 35.522 74.1118 35.282 74.4478 34.958L75.9418 36.578C75.0298 37.622 73.6978 38.144 71.9458 38.144C70.8538 38.144 69.8878 37.934 69.0478 37.514C68.2078 37.082 67.5598 36.488 67.1038 35.732C66.6478 34.976 66.4198 34.118 66.4198 33.158C66.4198 32.21 66.6418 31.358 67.0858 30.602C67.5418 29.834 68.1598 29.24 68.9398 28.82C69.7318 28.388 70.6138 28.172 71.5858 28.172C72.5338 28.172 73.3918 28.376 74.1598 28.784C74.9278 29.192 75.5278 29.78 75.9598 30.548C76.4038 31.304 76.6258 32.186 76.6258 33.194ZM71.6038 30.296C70.9678 30.296 70.4338 30.476 70.0018 30.836C69.5698 31.196 69.3058 31.688 69.2098 32.312H73.9798C73.8838 31.7 73.6198 31.214 73.1878 30.854C72.7558 30.482 72.2278 30.296 71.6038 30.296ZM86.2569 41.492C85.5849 40.388 85.0689 39.122 84.7089 37.694C84.3489 36.254 84.1689 34.712 84.1689 33.068C84.1689 31.424 84.3489 29.882 84.7089 28.442C85.0689 26.99 85.5849 25.724 86.2569 24.644H87.4809C86.7729 25.856 86.2509 27.158 85.9149 28.55C85.5909 29.942 85.4289 31.448 85.4289 33.068C85.4289 34.688 85.5909 36.194 85.9149 37.586C86.2509 38.978 86.7729 40.28 87.4809 41.492H86.2569ZM94.9887 25.4C96.5967 25.4 97.8567 25.784 98.7687 26.552C99.6807 27.32 100.137 28.376 100.137 29.72C100.137 31.064 99.6807 32.12 98.7687 32.888C97.8567 33.644 96.5967 34.022 94.9887 34.022H91.6047V38H90.2727V25.4H94.9887ZM94.9527 32.852C96.2007 32.852 97.1547 32.582 97.8147 32.042C98.4747 31.49 98.8047 30.716 98.8047 29.72C98.8047 28.7 98.4747 27.92 97.8147 27.38C97.1547 26.828 96.2007 26.552 94.9527 26.552H91.6047V32.852H94.9527ZM103.725 30.386C104.025 29.75 104.469 29.27 105.057 28.946C105.657 28.622 106.395 28.46 107.271 28.46V29.702L106.965 29.684C105.969 29.684 105.189 29.99 104.625 30.602C104.061 31.214 103.779 32.072 103.779 33.176V38H102.501V28.532H103.725V30.386ZM117.741 33.662H109.821C109.893 34.646 110.271 35.444 110.955 36.056C111.639 36.656 112.503 36.956 113.547 36.956C114.135 36.956 114.675 36.854 115.167 36.65C115.659 36.434 116.085 36.122 116.445 35.714L117.165 36.542C116.745 37.046 116.217 37.43 115.581 37.694C114.957 37.958 114.267 38.09 113.511 38.09C112.539 38.09 111.675 37.886 110.919 37.478C110.175 37.058 109.593 36.482 109.173 35.75C108.753 35.018 108.543 34.19 108.543 33.266C108.543 32.342 108.741 31.514 109.137 30.782C109.545 30.05 110.097 29.48 110.793 29.072C111.501 28.664 112.293 28.46 113.169 28.46C114.045 28.46 114.831 28.664 115.527 29.072C116.223 29.48 116.769 30.05 117.165 30.782C117.561 31.502 117.759 32.33 117.759 33.266L117.741 33.662ZM113.169 29.558C112.257 29.558 111.489 29.852 110.865 30.44C110.253 31.016 109.905 31.772 109.821 32.708H116.535C116.451 31.772 116.097 31.016 115.473 30.44C114.861 29.852 114.093 29.558 113.169 29.558ZM122.898 38.09C122.13 38.09 121.392 37.982 120.684 37.766C119.988 37.538 119.442 37.256 119.046 36.92L119.622 35.912C120.018 36.224 120.516 36.482 121.116 36.686C121.716 36.878 122.34 36.974 122.988 36.974C123.852 36.974 124.488 36.842 124.896 36.578C125.316 36.302 125.526 35.918 125.526 35.426C125.526 35.078 125.412 34.808 125.184 34.616C124.956 34.412 124.668 34.262 124.32 34.166C123.972 34.058 123.51 33.956 122.934 33.86C122.166 33.716 121.548 33.572 121.08 33.428C120.612 33.272 120.21 33.014 119.874 32.654C119.55 32.294 119.388 31.796 119.388 31.16C119.388 30.368 119.718 29.72 120.378 29.216C121.038 28.712 121.956 28.46 123.132 28.46C123.744 28.46 124.356 28.544 124.968 28.712C125.58 28.868 126.084 29.078 126.48 29.342L125.922 30.368C125.142 29.828 124.212 29.558 123.132 29.558C122.316 29.558 121.698 29.702 121.278 29.99C120.87 30.278 120.666 30.656 120.666 31.124C120.666 31.484 120.78 31.772 121.008 31.988C121.248 32.204 121.542 32.366 121.89 32.474C122.238 32.57 122.718 32.672 123.33 32.78C124.086 32.924 124.692 33.068 125.148 33.212C125.604 33.356 125.994 33.602 126.318 33.95C126.642 34.298 126.804 34.778 126.804 35.39C126.804 36.218 126.456 36.878 125.76 37.37C125.076 37.85 124.122 38.09 122.898 38.09ZM137.411 33.662H129.491C129.563 34.646 129.941 35.444 130.625 36.056C131.309 36.656 132.173 36.956 133.217 36.956C133.805 36.956 134.345 36.854 134.837 36.65C135.329 36.434 135.755 36.122 136.115 35.714L136.835 36.542C136.415 37.046 135.887 37.43 135.251 37.694C134.627 37.958 133.937 38.09 133.181 38.09C132.209 38.09 131.345 37.886 130.589 37.478C129.845 37.058 129.263 36.482 128.843 35.75C128.423 35.018 128.213 34.19 128.213 33.266C128.213 32.342 128.411 31.514 128.807 30.782C129.215 30.05 129.767 29.48 130.463 29.072C131.171 28.664 131.963 28.46 132.839 28.46C133.715 28.46 134.501 28.664 135.197 29.072C135.893 29.48 136.439 30.05 136.835 30.782C137.231 31.502 137.429 32.33 137.429 33.266L137.411 33.662ZM132.839 29.558C131.927 29.558 131.159 29.852 130.535 30.44C129.923 31.016 129.575 31.772 129.491 32.708H136.205C136.121 31.772 135.767 31.016 135.143 30.44C134.531 29.852 133.763 29.558 132.839 29.558ZM144.854 28.46C146.042 28.46 146.984 28.808 147.68 29.504C148.388 30.188 148.742 31.19 148.742 32.51V38H147.464V32.636C147.464 31.652 147.218 30.902 146.726 30.386C146.234 29.87 145.532 29.612 144.62 29.612C143.6 29.612 142.79 29.918 142.19 30.53C141.602 31.13 141.308 31.964 141.308 33.032V38H140.03V28.532H141.254V30.278C141.602 29.702 142.082 29.258 142.694 28.946C143.318 28.622 144.038 28.46 144.854 28.46ZM157.198 37.424C156.958 37.64 156.658 37.808 156.298 37.928C155.95 38.036 155.584 38.09 155.2 38.09C154.312 38.09 153.628 37.85 153.148 37.37C152.668 36.89 152.428 36.212 152.428 35.336V29.612H150.736V28.532H152.428V26.462H153.706V28.532H156.586V29.612H153.706V35.264C153.706 35.828 153.844 36.26 154.12 36.56C154.408 36.848 154.816 36.992 155.344 36.992C155.608 36.992 155.86 36.95 156.1 36.866C156.352 36.782 156.568 36.662 156.748 36.506L157.198 37.424ZM158.462 41.492C159.17 40.28 159.692 38.984 160.028 37.604C160.364 36.212 160.532 34.7 160.532 33.068C160.532 31.436 160.364 29.93 160.028 28.55C159.692 27.158 159.17 25.856 158.462 24.644H159.686C160.358 25.724 160.874 26.99 161.234 28.442C161.606 29.882 161.792 31.424 161.792 33.068C161.792 34.712 161.612 36.254 161.252 37.694C160.892 39.134 160.37 40.4 159.686 41.492H158.462Z" fill="#222831"/>
<path d="M90.3536 68.3536C90.5488 68.1583 90.5488 67.8417 90.3536 67.6464L87.1716 64.4645C86.9763 64.2692 86.6597 64.2692 86.4645 64.4645C86.2692 64.6597 86.2692 64.9763 86.4645 65.1716L89.2929 68L86.4645 70.8284C86.2692 71.0237 86.2692 71.3403 86.4645 71.5355C86.6597 71.7308 86.9763 71.7308 87.1716 71.5355L90.3536 68.3536ZM50 68.5H90V67.5H50V68.5Z" fill="#222831"/>
<path d="M224.354 136.354C224.549 136.158 224.549 135.842 224.354 135.646L221.172 132.464C220.976 132.269 220.66 132.269 220.464 132.464C220.269 132.66 220.269 132.976 220.464 133.172L223.293 136L220.464 138.828C220.269 139.024 220.269 139.34 220.464 139.536C220.66 139.731 220.976 139.731 221.172 139.536L224.354 136.354ZM184 136.5H224V135.5H184V136.5Z" fill="#222831"/>
<path d="M192.354 100.354C192.549 100.158 192.549 99.8417 192.354 99.6464L189.172 96.4645C188.976 96.2692 188.66 96.2692 188.464 96.4645C188.269 96.6597 188.269 96.9763 188.464 97.1716L191.293 100L188.464 102.828C188.269 103.024 188.269 103.34 188.464 103.536C188.66 103.731 188.976 103.731 189.172 103.536L192.354 100.354ZM152 100.5H192V99.5H152V100.5Z" fill="#222831"/>
<defs>
<filter id="filter0_d_192_2" x="0" y="0" width="307" height="186" filterUnits="userSpaceOnUse" color-interpolation-filters="sRGB">
<feFlood flood-opacity="0" result="BackgroundImageFix"/>
<feColorMatrix in="SourceAlpha" type="matrix" values="0 0 0 0 0 0 0 0 0 0 0 0 0 0 0 0 0 0 127 0" result="hardAlpha"/>
<feOffset dy="2"/>
<feGaussianBlur stdDeviation="4"/>
<feComposite in2="hardAlpha" operator="out"/>
<feColorMatrix type="matrix" values="0 0 0 0 0.4125 0 0 0 0 0.4125 0 0 0 0 0.4125 0 0 0 0.25 0"/>
<feBlend mode="normal" in2="BackgroundImageFix" result="effect1_dropShadow_192_2"/>
<feBlend mode="normal" in="SourceGraphic" in2="effect1_dropShadow_192_2" result="shape"/>
</filter>
</defs>
</svg>
