<svg width="41" height="41" viewBox="0 0 41 41" fill="none" xmlns="http://www.w3.org/2000/svg">
<g filter="url(#filter0_d_171_488)">
<circle cx="20.5" cy="18.5" r="12.5" fill="white"/>
</g>
<path d="M24.584 13.2L20.342 23H18.102L13.874 13.2H16.324L19.306 20.2L22.33 13.2H24.584Z" fill="#50A5FE"/>
<path d="M25.036 25.096C24.5 25.096 23.976 25.032 23.464 24.904C22.952 24.768 22.544 24.6 22.24 24.4L22.864 23.056C23.152 23.24 23.5 23.392 23.908 23.512C24.316 23.624 24.716 23.68 25.108 23.68C25.9 23.68 26.296 23.484 26.296 23.092C26.296 22.908 26.188 22.776 25.972 22.696C25.756 22.616 25.424 22.548 24.976 22.492C24.448 22.412 24.012 22.32 23.668 22.216C23.324 22.112 23.024 21.928 22.768 21.664C22.52 21.4 22.396 21.024 22.396 20.536C22.396 20.128 22.512 19.768 22.744 19.456C22.984 19.136 23.328 18.888 23.776 18.712C24.232 18.536 24.768 18.448 25.384 18.448C25.84 18.448 26.292 18.5 26.74 18.604C27.196 18.7 27.572 18.836 27.868 19.012L27.244 20.344C26.676 20.024 26.056 19.864 25.384 19.864C24.984 19.864 24.684 19.92 24.484 20.032C24.284 20.144 24.184 20.288 24.184 20.464C24.184 20.664 24.292 20.804 24.508 20.884C24.724 20.964 25.068 21.04 25.54 21.112C26.068 21.2 26.5 21.296 26.836 21.4C27.172 21.496 27.464 21.676 27.712 21.94C27.96 22.204 28.084 22.572 28.084 23.044C28.084 23.444 27.964 23.8 27.724 24.112C27.484 24.424 27.132 24.668 26.668 24.844C26.212 25.012 25.668 25.096 25.036 25.096Z" fill="#50A5FE"/>
<defs>
<filter id="filter0_d_171_488" x="0" y="0" width="41" height="41" filterUnits="userSpaceOnUse" color-interpolation-filters="sRGB">
<feFlood flood-opacity="0" result="BackgroundImageFix"/>
<feColorMatrix in="SourceAlpha" type="matrix" values="0 0 0 0 0 0 0 0 0 0 0 0 0 0 0 0 0 0 127 0" result="hardAlpha"/>
<feOffset dy="2"/>
<feGaussianBlur stdDeviation="4"/>
<feComposite in2="hardAlpha" operator="out"/>
<feColorMatrix type="matrix" values="0 0 0 0 0.533333 0 0 0 0 0.533333 0 0 0 0 0.533333 0 0 0 0.25 0"/>
<feBlend mode="normal" in2="BackgroundImageFix" result="effect1_dropShadow_171_488"/>
<feBlend mode="normal" in="SourceGraphic" in2="effect1_dropShadow_171_488" result="shape"/>
</filter>
</defs>
</svg>
