<svg width="61" height="61" viewBox="0 0 61 61" fill="none" xmlns="http://www.w3.org/2000/svg">
<g filter="url(#filter0_d_182_2)">
<circle cx="30.5" cy="28.5" r="22.5" fill="white"/>
</g>
<path d="M29.178 30.126C29.178 30.17 29.156 30.478 29.112 31.05H20.158C20.3193 31.7833 20.7007 32.3627 21.302 32.788C21.9033 33.2133 22.6513 33.426 23.546 33.426C24.162 33.426 24.7047 33.338 25.174 33.162C25.658 32.9713 26.1053 32.678 26.516 32.282L28.342 34.262C27.2273 35.538 25.5993 36.176 23.458 36.176C22.1233 36.176 20.9427 35.9193 19.916 35.406C18.8893 34.878 18.0973 34.152 17.54 33.228C16.9827 32.304 16.704 31.2553 16.704 30.082C16.704 28.9233 16.9753 27.882 17.518 26.958C18.0753 26.0193 18.8307 25.2933 19.784 24.78C20.752 24.252 21.83 23.988 23.018 23.988C24.1767 23.988 25.2253 24.2373 26.164 24.736C27.1027 25.2347 27.836 25.9533 28.364 26.892C28.9067 27.816 29.178 28.894 29.178 30.126ZM23.04 26.584C22.2627 26.584 21.61 26.804 21.082 27.244C20.554 27.684 20.2313 28.2853 20.114 29.048H25.944C25.8267 28.3 25.504 27.706 24.976 27.266C24.448 26.8113 23.8027 26.584 23.04 26.584ZM43.5189 19.676V36H40.2409V34.636C39.3902 35.6627 38.1582 36.176 36.5449 36.176C35.4302 36.176 34.4182 35.9267 33.5089 35.428C32.6142 34.9293 31.9102 34.218 31.3969 33.294C30.8836 32.37 30.6269 31.2993 30.6269 30.082C30.6269 28.8647 30.8836 27.794 31.3969 26.87C31.9102 25.946 32.6142 25.2347 33.5089 24.736C34.4182 24.2373 35.4302 23.988 36.5449 23.988C38.0556 23.988 39.2362 24.4647 40.0869 25.418V19.676H43.5189ZM37.1389 33.36C38.0042 33.36 38.7229 33.0667 39.2949 32.48C39.8669 31.8787 40.1529 31.0793 40.1529 30.082C40.1529 29.0847 39.8669 28.2927 39.2949 27.706C38.7229 27.1047 38.0042 26.804 37.1389 26.804C36.2589 26.804 35.5329 27.1047 34.9609 27.706C34.3889 28.2927 34.1029 29.0847 34.1029 30.082C34.1029 31.0793 34.3889 31.8787 34.9609 32.48C35.5329 33.0667 36.2589 33.36 37.1389 33.36Z" fill="#50A5FE"/>
<defs>
<filter id="filter0_d_182_2" x="0" y="0" width="61" height="61" filterUnits="userSpaceOnUse" color-interpolation-filters="sRGB">
<feFlood flood-opacity="0" result="BackgroundImageFix"/>
<feColorMatrix in="SourceAlpha" type="matrix" values="0 0 0 0 0 0 0 0 0 0 0 0 0 0 0 0 0 0 127 0" result="hardAlpha"/>
<feOffset dy="2"/>
<feGaussianBlur stdDeviation="4"/>
<feComposite in2="hardAlpha" operator="out"/>
<feColorMatrix type="matrix" values="0 0 0 0 0.533333 0 0 0 0 0.533333 0 0 0 0 0.533333 0 0 0 0.25 0"/>
<feBlend mode="normal" in2="BackgroundImageFix" result="effect1_dropShadow_182_2"/>
<feBlend mode="normal" in="SourceGraphic" in2="effect1_dropShadow_182_2" result="shape"/>
</filter>
</defs>
</svg>
