<svg width="21" height="22" viewBox="0 0 21 22" fill="none" xmlns="http://www.w3.org/2000/svg">
<circle cx="10.5" cy="10.5" r="10.5" fill="white"/>
<path d="M6.872 16L3.56 5.52H5.256L6.84 10.976C7.02133 11.584 7.18133 12.16 7.32 12.704C7.45867 13.2373 7.61867 13.808 7.8 14.416H7.864C8.056 13.808 8.22133 13.2373 8.36 12.704C8.49867 12.16 8.65867 11.584 8.84 10.976L10.408 5.52H12.04L8.744 16H6.872Z" fill="black"/>
<path d="M14.284 18.168C13.6307 18.168 13.0147 18.0653 12.436 17.86C11.8573 17.6453 11.358 17.3933 10.938 17.104L11.554 16.208C11.9553 16.488 12.3893 16.7073 12.856 16.866C13.332 17.0247 13.8687 17.104 14.466 17.104C14.998 17.104 15.39 17.0153 15.642 16.838C15.894 16.6513 16.02 16.4273 16.02 16.166C16.02 16.0447 15.9967 15.9327 15.95 15.83C15.9033 15.7273 15.8053 15.634 15.656 15.55C15.516 15.4567 15.3153 15.368 15.054 15.284C14.7927 15.2 14.4473 15.1113 14.018 15.018C13.1127 14.8313 12.4407 14.5793 12.002 14.262C11.5727 13.9353 11.358 13.5107 11.358 12.988C11.358 12.6987 11.4187 12.4327 11.54 12.19C11.6707 11.9473 11.8573 11.7373 12.1 11.56C12.352 11.3827 12.66 11.2427 13.024 11.14C13.388 11.0373 13.808 10.986 14.284 10.986C14.8253 10.986 15.3387 11.0793 15.824 11.266C16.3187 11.4433 16.7387 11.6487 17.084 11.882L16.44 12.75C16.1133 12.5353 15.754 12.3673 15.362 12.246C14.9793 12.1153 14.578 12.05 14.158 12.05C13.6353 12.05 13.2667 12.134 13.052 12.302C12.8467 12.47 12.744 12.6753 12.744 12.918C12.744 13.1887 12.8887 13.394 13.178 13.534C13.4673 13.674 13.948 13.814 14.62 13.954C15.18 14.0753 15.6373 14.206 15.992 14.346C16.356 14.486 16.6407 14.64 16.846 14.808C17.0607 14.976 17.21 15.1673 17.294 15.382C17.378 15.5873 17.42 15.8207 17.42 16.082C17.42 16.3713 17.35 16.642 17.21 16.894C17.07 17.146 16.8647 17.37 16.594 17.566C16.3327 17.7527 16.006 17.8973 15.614 18C15.2313 18.112 14.788 18.168 14.284 18.168Z" fill="black"/>
</svg>
