<svg width="61" height="61" viewBox="0 0 61 61" fill="none" xmlns="http://www.w3.org/2000/svg">
<g filter="url(#filter0_d_192_14)">
<circle cx="30.5" cy="28.5" r="22.5" fill="white"/>
</g>
<path d="M16.2178 23.9734H19.3378V34.7334H16.2178V23.9734ZM17.7778 22.4734C17.2045 22.4734 16.7378 22.3067 16.3778 21.9734C16.0178 21.6401 15.8378 21.2267 15.8378 20.7334C15.8378 20.2401 16.0178 19.8267 16.3778 19.4934C16.7378 19.1601 17.2045 18.9934 17.7778 18.9934C18.3512 18.9934 18.8178 19.1534 19.1778 19.4734C19.5378 19.7934 19.7178 20.1934 19.7178 20.6734C19.7178 21.1934 19.5378 21.6267 19.1778 21.9734C18.8178 22.3067 18.3512 22.4734 17.7778 22.4734ZM28.7735 23.8134C30.1068 23.8134 31.1801 24.2134 31.9935 25.0134C32.8201 25.8134 33.2335 27.0001 33.2335 28.5734V34.7334H30.1135V29.0534C30.1135 28.2001 29.9268 27.5667 29.5535 27.1534C29.1801 26.7267 28.6401 26.5134 27.9335 26.5134C27.1468 26.5134 26.5201 26.7601 26.0535 27.2534C25.5868 27.7334 25.3535 28.4534 25.3535 29.4134V34.7334H22.2335V23.9734H25.2135V25.2334C25.6268 24.7801 26.1401 24.4334 26.7535 24.1934C27.3668 23.9401 28.0401 23.8134 28.7735 23.8134ZM47.2788 23.9734V32.9334C47.2788 34.9067 46.7654 36.3734 45.7388 37.3334C44.7121 38.2934 43.2121 38.7734 41.2388 38.7734C40.1988 38.7734 39.2121 38.6467 38.2788 38.3934C37.3454 38.1401 36.5721 37.7734 35.9588 37.2934L37.1988 35.0534C37.6521 35.4267 38.2254 35.7201 38.9188 35.9334C39.6121 36.1601 40.3054 36.2734 40.9988 36.2734C42.0788 36.2734 42.8721 36.0267 43.3788 35.5334C43.8988 35.0534 44.1588 34.3201 44.1588 33.3334V32.8734C43.3454 33.7667 42.2121 34.2134 40.7588 34.2134C39.7721 34.2134 38.8654 34.0001 38.0388 33.5734C37.2254 33.1334 36.5788 32.5201 36.0988 31.7334C35.6188 30.9467 35.3788 30.0401 35.3788 29.0134C35.3788 27.9867 35.6188 27.0801 36.0988 26.2934C36.5788 25.5067 37.2254 24.9001 38.0388 24.4734C38.8654 24.0334 39.7721 23.8134 40.7588 23.8134C42.3188 23.8134 43.5054 24.3267 44.3188 25.3534V23.9734H47.2788ZM41.3788 31.6534C42.2054 31.6534 42.8788 31.4134 43.3988 30.9334C43.9321 30.4401 44.1988 29.8001 44.1988 29.0134C44.1988 28.2267 43.9321 27.5934 43.3988 27.1134C42.8788 26.6201 42.2054 26.3734 41.3788 26.3734C40.5521 26.3734 39.8721 26.6201 39.3388 27.1134C38.8054 27.5934 38.5388 28.2267 38.5388 29.0134C38.5388 29.8001 38.8054 30.4401 39.3388 30.9334C39.8721 31.4134 40.5521 31.6534 41.3788 31.6534Z" fill="#50A5FE"/>
<defs>
<filter id="filter0_d_192_14" x="0" y="0" width="61" height="61" filterUnits="userSpaceOnUse" color-interpolation-filters="sRGB">
<feFlood flood-opacity="0" result="BackgroundImageFix"/>
<feColorMatrix in="SourceAlpha" type="matrix" values="0 0 0 0 0 0 0 0 0 0 0 0 0 0 0 0 0 0 127 0" result="hardAlpha"/>
<feOffset dy="2"/>
<feGaussianBlur stdDeviation="4"/>
<feComposite in2="hardAlpha" operator="out"/>
<feColorMatrix type="matrix" values="0 0 0 0 0.533333 0 0 0 0 0.533333 0 0 0 0 0.533333 0 0 0 0.25 0"/>
<feBlend mode="normal" in2="BackgroundImageFix" result="effect1_dropShadow_192_14"/>
<feBlend mode="normal" in="SourceGraphic" in2="effect1_dropShadow_192_14" result="shape"/>
</filter>
</defs>
</svg>
