<svg width="55" height="55" viewBox="0 0 55 55" fill="none" xmlns="http://www.w3.org/2000/svg">
<circle cx="27.5" cy="27.5" r="27.5" transform="rotate(-180 27.5 27.5)" fill="white"/>
<g filter="url(#filter0_d_171_310)">
<path d="M11.9393 26.9393C11.3536 27.5251 11.3536 28.4749 11.9393 29.0607L21.4853 38.6066C22.0711 39.1924 23.0208 39.1924 23.6066 38.6066C24.1924 38.0208 24.1924 37.0711 23.6066 36.4853L15.1213 28L23.6066 19.5147C24.1924 18.9289 24.1924 17.9792 23.6066 17.3934C23.0208 16.8076 22.0711 16.8076 21.4853 17.3934L11.9393 26.9393ZM42 26.5L13 26.5L13 29.5L42 29.5L42 26.5Z" fill="#50A5FE"/>
</g>
<g filter="url(#filter1_d_171_310)">
<path d="M42 29.5C42.8284 29.5 43.5 28.8284 43.5 28C43.5 27.1716 42.8284 26.5 42 26.5L42 29.5ZM39 29.5L42 29.5L42 26.5L39 26.5L39 29.5Z" fill="#50A5FE"/>
</g>
<defs>
<filter id="filter0_d_171_310" x="3.5" y="8.9541" width="46.5" height="38.0918" filterUnits="userSpaceOnUse" color-interpolation-filters="sRGB">
<feFlood flood-opacity="0" result="BackgroundImageFix"/>
<feColorMatrix in="SourceAlpha" type="matrix" values="0 0 0 0 0 0 0 0 0 0 0 0 0 0 0 0 0 0 127 0" result="hardAlpha"/>
<feOffset/>
<feGaussianBlur stdDeviation="4"/>
<feComposite in2="hardAlpha" operator="out"/>
<feColorMatrix type="matrix" values="0 0 0 0 0 0 0 0 0 0 0 0 0 0 0 0 0 0 0.11 0"/>
<feBlend mode="normal" in2="BackgroundImageFix" result="effect1_dropShadow_171_310"/>
<feBlend mode="normal" in="SourceGraphic" in2="effect1_dropShadow_171_310" result="shape"/>
</filter>
<filter id="filter1_d_171_310" x="31" y="18.5" width="20.5" height="19" filterUnits="userSpaceOnUse" color-interpolation-filters="sRGB">
<feFlood flood-opacity="0" result="BackgroundImageFix"/>
<feColorMatrix in="SourceAlpha" type="matrix" values="0 0 0 0 0 0 0 0 0 0 0 0 0 0 0 0 0 0 127 0" result="hardAlpha"/>
<feOffset/>
<feGaussianBlur stdDeviation="4"/>
<feComposite in2="hardAlpha" operator="out"/>
<feColorMatrix type="matrix" values="0 0 0 0 0 0 0 0 0 0 0 0 0 0 0 0 0 0 0.11 0"/>
<feBlend mode="normal" in2="BackgroundImageFix" result="effect1_dropShadow_171_310"/>
<feBlend mode="normal" in="SourceGraphic" in2="effect1_dropShadow_171_310" result="shape"/>
</filter>
</defs>
</svg>
