<svg width="81" height="79" viewBox="0 0 81 79" fill="none" xmlns="http://www.w3.org/2000/svg">
<path d="M67.7749 42.3364C66.0038 42.9255 64.0712 42.7871 62.4021 41.9517C60.733 41.1162 59.464 39.6521 58.8742 37.8812C58.7252 37.4348 58.6218 36.9744 58.5656 36.5071L49.6119 39.4916L46.42 29.9015C47.5454 30.0894 48.6997 29.9966 49.7807 29.6315C53.4692 28.4068 55.4605 24.4193 54.2358 20.7308C53.8516 19.5819 53.1776 18.5515 52.2789 17.7391C51.3802 16.9268 50.2871 16.3599 49.1054 16.0933C47.9236 15.8267 46.6931 15.8694 45.5326 16.2172C44.3722 16.565 43.321 17.2063 42.4808 18.0789L39.2889 8.49358L63.5946 0.398114C64.4734 0.105012 65.4014 -0.0119852 66.3254 0.0538122C67.2495 0.11961 68.1516 0.366911 68.98 0.781575C69.8084 1.19624 70.547 1.77014 71.1535 2.47044C71.76 3.17075 72.2225 3.98374 72.5145 4.86292L80.61 29.1686L71.6563 32.1483C72.1736 33.0535 72.4838 34.0622 72.5647 35.1016C72.6455 36.1411 72.4949 37.1855 72.1237 38.1598C71.7525 39.1341 71.17 40.014 70.418 40.7362C69.6661 41.4584 68.7634 42.0049 67.7749 42.3364V42.3364Z" fill="#F8881B"/>
<path d="M67.7748 42.3364C68.766 42.0067 69.6714 41.4605 70.4252 40.7374C71.1791 40.0144 71.7627 39.1326 72.1335 38.1561C71.2996 39.0464 70.2487 39.7048 69.0838 40.067C67.9189 40.4291 66.6799 40.4826 65.4882 40.2221C64.2964 39.9615 63.1928 39.396 62.2852 38.5808C61.3777 37.7657 60.6974 36.7288 60.311 35.5717C60.162 35.1269 60.0586 34.6681 60.0024 34.2024L51.0487 37.1822L48.6282 29.9112C47.8964 30.0262 47.1508 30.023 46.42 29.9015L49.6119 39.4917L58.5656 36.5071C58.6217 36.9744 58.7251 37.4348 58.8741 37.8813C59.464 39.6521 60.733 41.1163 62.402 41.9517C64.0711 42.7872 66.0037 42.9256 67.7748 42.3364V42.3364Z" fill="#F4D3B2"/>
<path d="M60.9041 4.67487C61.7829 4.38177 62.7109 4.26477 63.635 4.33057C64.5591 4.39637 65.4611 4.64367 66.2896 5.05834C67.118 5.473 67.8566 6.04689 68.463 6.7472C69.0695 7.44751 69.532 8.2605 69.8241 9.13968L76.907 30.4029L80.61 29.1686L72.5145 4.86292C72.2225 3.98374 71.76 3.17075 71.1535 2.47044C70.547 1.77014 69.8084 1.19624 68.98 0.781576C68.1516 0.366911 67.2495 0.11961 66.3254 0.0538122C65.4014 -0.0119852 64.4734 0.105012 63.5946 0.398114L39.2889 8.49358L40.3014 11.5312L60.9041 4.67487Z" fill="#F08013"/>
<path d="M33.2811 78.8889L33.2811 68.966C32.3241 69.4013 31.2818 69.6167 30.2306 69.5963C29.1795 69.576 28.1463 69.3205 27.2068 68.8486C26.2674 68.3767 25.4455 67.7003 24.8017 66.8692C24.1578 66.0381 23.7083 65.0733 23.4861 64.0457C23.264 63.0182 23.2748 61.9539 23.5178 60.931C23.7608 59.9081 24.2298 58.9527 24.8904 58.1348C25.551 57.317 26.3864 56.6575 27.3353 56.2047C28.2841 55.752 29.3224 55.5176 30.3737 55.5186C31.3766 55.5161 32.3683 55.7299 33.2811 56.1454L33.2811 46.2177L42.717 46.2177C42.5102 47.2399 42.533 48.2952 42.7839 49.3074C43.0348 50.3196 43.5075 51.2635 44.1677 52.0707C44.828 52.8779 45.6593 53.5284 46.6017 53.975C47.544 54.4217 48.5738 54.6534 49.6167 54.6534C50.6595 54.6534 51.6894 54.4217 52.6317 53.975C53.5741 53.5284 54.4054 52.8779 55.0657 52.0707C55.7259 51.2635 56.1986 50.3196 56.4495 49.3074C56.7004 48.2952 56.7232 47.2399 56.5164 46.2177L65.9523 46.2177L65.9523 71.8349C65.9523 72.7612 65.7698 73.6785 65.4153 74.5343C65.0608 75.3902 64.5412 76.1678 63.8862 76.8228C63.2312 77.4778 62.4535 77.9974 61.5977 78.3519C60.7419 78.7064 59.8246 78.8889 58.8983 78.8889L33.2811 78.8889Z" fill="#67BAEB"/>
<path d="M41.1982 48.6382C41.0839 49.2114 41.0258 49.7943 41.0246 50.3788C41.0246 52.701 41.9471 54.9281 43.5892 56.5702C45.2313 58.2123 47.4584 59.1348 49.7806 59.1348C54.6167 59.1348 58.5318 55.2148 58.5318 50.3788C58.5323 49.7945 58.4757 49.2115 58.3631 48.6382L65.9523 48.6382L65.9523 46.2177L56.5164 46.2177C56.7192 47.2379 56.6932 48.2903 56.4404 49.2992C56.1876 50.3081 55.7142 51.2484 55.0543 52.0524C54.3944 52.8564 53.5645 53.504 52.6242 53.9487C51.684 54.3934 50.6568 54.624 49.6167 54.624C48.5766 54.624 47.5494 54.3934 46.6092 53.9487C45.6689 53.504 44.8389 52.8564 44.1791 52.0524C43.5192 51.2484 43.0458 50.3081 42.793 49.2992C42.5401 48.2903 42.5142 47.2379 42.717 46.2177L33.2811 46.2177L33.2811 48.6382L41.1982 48.6382Z" fill="#3D9AF3"/>
<path d="M16.9455 36.2612C15.0794 36.2612 13.2896 37.0022 11.9695 38.3213C10.6495 39.6404 9.90728 41.4297 9.906 43.2959C9.90386 44.3045 10.121 45.3015 10.5425 46.2178L0.609958 46.2178L0.609959 20.6006C0.60996 18.7298 1.35314 16.9356 2.67603 15.6127C3.99891 14.2898 5.79312 13.5466 7.66396 13.5466L33.2811 13.5466L33.2811 23.6527C34.354 23.0881 35.5544 22.8101 36.7662 22.8457C37.9781 22.8813 39.1602 23.2293 40.198 23.8559C41.2359 24.4825 42.0943 25.3665 42.6902 26.4223C43.286 27.4781 43.5991 28.6699 43.5991 29.8822C43.5991 31.0945 43.286 32.2863 42.6902 33.3421C42.0943 34.3979 41.2359 35.282 40.198 35.9086C39.1602 36.5352 37.9781 36.8831 36.7662 36.9187C35.5544 36.9543 34.354 36.6763 33.2811 36.1117L33.2811 46.2178L23.3486 46.2178C23.77 45.3015 23.9872 44.3045 23.9851 43.2959C23.9838 41.4297 23.2416 39.6404 21.9215 38.3213C20.6015 37.0022 18.8117 36.2612 16.9455 36.2612Z" fill="#F4C23F"/>
<path d="M33.2811 36.1117C34.9275 36.9756 36.8488 37.153 38.6256 36.6053C40.4023 36.0575 41.8903 34.8291 42.7645 33.1882C43.6388 31.5473 43.8284 29.6272 43.2919 27.847C42.7554 26.0668 41.5365 24.5711 39.9011 23.6864C40.7134 24.9996 41.0718 26.5432 40.921 28.0799C40.7703 29.6166 40.1189 31.0612 39.0669 32.1914C38.015 33.3217 36.6208 34.0751 35.0989 34.3356C33.577 34.5961 32.0117 34.3494 30.6437 33.6334L30.6437 43.7347L23.9706 43.7347C23.9199 44.5939 23.709 45.4361 23.3486 46.2178L33.2811 46.2178L33.2811 36.1117Z" fill="#F8E4A9"/>
<path d="M3.75353 24.0095C3.75353 22.1386 4.49672 20.3444 5.8196 19.0216C7.14248 17.6987 8.93669 16.9555 10.8075 16.9555L33.281 16.9555L33.281 13.5466L7.66384 13.5466C5.79301 13.5466 3.9988 14.2898 2.67591 15.6127C1.35303 16.9356 0.609848 18.7298 0.609848 20.6006L0.609846 46.2178L3.75353 46.2178L3.75353 24.0095Z" fill="#F4A93F"/>
<path d="M33.2811 78.8889L7.66396 78.8889C5.79313 78.8889 3.99892 78.1457 2.67603 76.8228C1.35315 75.5 0.609968 73.7058 0.609968 71.8349L0.609969 46.2178L10.5425 46.2178C10.121 45.3014 9.90387 44.3044 9.90601 43.2959C9.90601 41.4289 10.6477 39.6383 11.9678 38.3182C13.288 36.998 15.0785 36.2563 16.9455 36.2563C18.8125 36.2563 20.6031 36.998 21.9233 38.3182C23.2434 39.6383 23.9851 41.4289 23.9851 43.2959C23.9872 44.3044 23.7701 45.3014 23.3486 46.2178L33.2811 46.2178L33.2811 56.1454C32.3241 55.7102 31.2818 55.4948 30.2307 55.5151C29.1795 55.5354 28.1463 55.7909 27.2068 56.2629C26.2674 56.7348 25.4455 57.4111 24.8017 58.2422C24.1579 59.0734 23.7083 60.0381 23.4862 61.0657C23.264 62.0933 23.2748 63.1576 23.5178 64.1805C23.7608 65.2033 24.2298 66.1588 24.8904 66.9766C25.5511 67.7945 26.3864 68.454 27.3353 68.9067C28.2842 69.3595 29.3224 69.5939 30.3737 69.5929C31.3764 69.5929 32.3675 69.3793 33.2811 68.9661L33.2811 78.8889Z" fill="#DE3226"/>
<path d="M23.4401 63.778C23.3703 64.1825 23.3348 64.5922 23.334 65.0027C23.3358 66.1793 23.6323 67.3367 24.1964 68.3693C24.7605 69.4019 25.5743 70.2767 26.5634 70.9139C27.5526 71.5511 28.6856 71.9304 29.859 72.0172C31.0324 72.1039 32.2089 71.8954 33.281 71.4106L33.281 68.966C32.3674 69.3792 31.3763 69.5929 30.3736 69.5928C26.9068 69.5928 24.0235 67.0808 23.4401 63.778Z" fill="#B11A31"/>
<path d="M23.3485 48.6671L33.281 48.6671L33.281 46.2177L23.9657 46.2177C23.9108 47.0649 23.7016 47.895 23.3485 48.6671V48.6671Z" fill="#B11A31"/>
<path d="M16.9454 38.7057C18.6003 38.7054 20.2023 39.2881 21.4703 40.3515C22.7382 41.4149 23.591 42.891 23.8789 44.5206C23.9486 44.116 23.984 43.7063 23.985 43.2959C23.985 41.4289 23.2433 39.6383 21.9232 38.3182C20.603 36.998 18.8125 36.2563 16.9454 36.2563C15.0784 36.2563 13.2879 36.998 11.9677 38.3182C10.6476 39.6383 9.90591 41.4289 9.90591 43.2959C9.90687 43.7063 9.94235 44.116 10.012 44.5206C10.5954 41.2178 13.4787 38.7057 16.9454 38.7057Z" fill="#B11A31"/>
<path d="M9.92519 46.2177L0.609862 46.2177L0.609862 48.6671L10.5424 48.6671C10.1892 47.895 9.98006 47.0649 9.92519 46.2177Z" fill="#B11A31"/>
<path d="M52.4759 78.8889C53.9644 78.8889 55.1711 77.6822 55.1711 76.1937C55.1711 74.7051 53.9644 73.4984 52.4759 73.4984L41.9831 73.4984C40.4945 73.4984 39.2878 74.7051 39.2878 76.1937C39.2878 77.6822 40.4945 78.8889 41.9831 78.8889L52.4759 78.8889Z" fill="white"/>
<path d="M17.9582 78.889C19.4467 78.889 20.6534 77.6822 20.6534 76.1937C20.6534 74.7051 19.4467 73.4984 17.9582 73.4984L9.96685 73.4984C8.47829 73.4984 7.27158 74.7051 7.27158 76.1937C7.27158 77.6822 8.47829 78.889 9.96685 78.889L17.9582 78.889Z" fill="white"/>
</svg>
