<svg width="25" height="25" viewBox="0 0 25 25" fill="none" xmlns="http://www.w3.org/2000/svg">
<circle cx="12.5" cy="12.5" r="11.5" fill="#26C1FC" stroke="#26C1FC" stroke-width="2"/>
<rect x="7" y="12.853" width="1.71763" height="5.89589" rx="0.858815" transform="rotate(-45.5328 7 12.853)" fill="white"/>
<path d="M17.2692 8.5864C17.5854 8.26254 18.1043 8.25636 18.4282 8.5726V8.5726C18.7569 8.89354 18.7576 9.42191 18.4299 9.74378L15.7786 12.3474C15.3212 12.7965 14.5474 12.5334 14.4586 11.8986V11.8986C14.4251 11.6593 14.5043 11.4179 14.6731 11.245L17.2692 8.5864Z" fill="white"/>
<path d="M16.4539 9.52398C16.7538 9.23626 17.2314 9.25076 17.5133 9.55615V9.55615V9.55615C17.7585 9.9077 17.718 10.3842 17.4169 10.6893L11.811 16.3682C11.4785 16.705 10.9367 16.7108 10.5971 16.3812V16.3812C10.2468 16.0412 10.2484 15.4785 10.6006 15.1405L16.4539 9.52398Z" fill="white"/>
</svg>
