<svg width="474" height="445" viewBox="0 0 474 445" fill="none" xmlns="http://www.w3.org/2000/svg">
<path d="M237.6 419.6C363.521 419.6 465.6 327.46 465.6 213.8C465.6 100.14 363.521 8 237.6 8C111.679 8 9.59998 100.14 9.59998 213.8C9.59998 327.46 111.679 419.6 237.6 419.6Z" fill="#8FE3F9"/>
<path d="M237.6 419.6C363.521 419.6 465.6 327.46 465.6 213.8C465.6 100.14 363.521 8 237.6 8C111.679 8 9.59998 100.14 9.59998 213.8C9.59998 327.46 111.679 419.6 237.6 419.6Z" fill="#8FE3F9"/>
<path d="M243.6 415.6C295.7 415.6 343.7 400.3 382.1 374.6L371.6 349.9C349.6 298 297.4 264.1 239.5 264.1C181.6 264.1 129.4 298 107.4 349.9L98.8 370.3C138.1 398.6 188.6 415.6 243.6 415.6Z" fill="#B2EBF9"/>
<path d="M237.5 196.6L193.9 260.6L226.8 304.4C232.2 311.6 243.1 311.6 248.5 304.4L281.1 260.6L237.5 196.6Z" fill="#A4E0EA"/>
<path d="M237.6 395.6C116.1 395.6 16.9 309.9 10 201.8C9.7 205.8 9.59998 209.8 9.59998 213.8C9.59998 327.4 111.7 419.6 237.6 419.6C363.5 419.6 465.6 327.5 465.6 213.8C465.6 209.8 465.5 205.8 465.2 201.8C458.3 309.9 359 395.6 237.6 395.6Z" fill="#7AD1E5"/>
<path d="M374.4 354.4C336.3 380.2 288.9 395.6 237.6 395.6C187.6 395.6 141.4 381.1 103.9 356.5L98.9 368.8C138.3 398 188.7 415.6 243.7 415.6C293.4 415.6 339.4 401.2 376.9 376.8C378.7 375.6 380.4 374.3 382.2 373L374.4 354.4Z" fill="#A4E0EA"/>
<path d="M4 214.5C10.4 227.6 19 239.8 29.8 250.7C82.1 303 167 303 219.3 250.7C263.1 206.9 270.2 140.4 240.8 89.2002" fill="#7AD1E5"/>
<path d="M464.8 230.1C440.8 266.2 399.8 289.9 353.2 289.9C279.2 289.9 219.2 229.9 219.2 155.9C219.2 122.9 231.1 92.6998 250.9 69.2998" fill="#7AD1E5"/>
<path d="M237.6 419.6C363.521 419.6 465.6 327.46 465.6 213.8C465.6 100.14 363.521 8 237.6 8C111.679 8 9.59998 100.14 9.59998 213.8C9.59998 327.46 111.679 419.6 237.6 419.6Z" stroke="#413D51" stroke-width="16" stroke-miterlimit="10" stroke-linecap="round" stroke-linejoin="round"/>
<path d="M237.5 168.6L193.9 232.6L237.7 290.9L281.2 232.6L237.5 168.6Z" fill="#413D51"/>
<path d="M237.5 168.6L193.9 232.6L237.7 290.9L281.2 232.6L237.5 168.6Z" stroke="#413D51" stroke-width="16" stroke-miterlimit="10" stroke-linecap="round" stroke-linejoin="round"/>
<path d="M336.5 30.1998C306.5 16.1998 272.4 8.2998 236.5 8.2998C200.6 8.2998 166.5 16.1998 136.5 30.1998V170.3H336.5V30.1998Z" fill="#413D51"/>
<path d="M349.3 44.2004L458 40.9004C442.3 80.2004 440.2 139.3 453.9 203.9C436.5 240.7 399.5 266.8 356 268.1C294.2 270 242.5 221.4 240.7 159.5C238.8 97.7004 287.4 46.1004 349.3 44.2004Z" fill="#413D51"/>
<path d="M349.3 44.2004L458 40.9004C442.3 80.2004 440.2 139.3 453.9 203.9C436.5 240.7 399.5 266.8 356 268.1C294.2 270 242.5 221.4 240.7 159.5C238.8 97.7004 287.4 46.1004 349.3 44.2004Z" stroke="#413D51" stroke-width="16" stroke-miterlimit="10" stroke-linecap="round" stroke-linejoin="round"/>
<path d="M353.2 268C415.056 268 465.2 217.856 465.2 156C465.2 94.1446 415.056 44.0005 353.2 44.0005C291.344 44.0005 241.2 94.1446 241.2 156C241.2 217.856 291.344 268 353.2 268Z" fill="#F7E8AD"/>
<path d="M353.2 268C415.056 268 465.2 217.856 465.2 156C465.2 94.1446 415.056 44.0005 353.2 44.0005C291.344 44.0005 241.2 94.1446 241.2 156C241.2 217.856 291.344 268 353.2 268Z" fill="#F7E8AD"/>
<path d="M432.4 76.8005C410.9 55.3005 382.7 44.4005 354.5 44.0005C375.7 48.1005 396 58.3005 412.4 74.8005C456.1 118.5 456.1 189.4 412.4 233.2C390.2 255.4 361 266.3 332 266C367.3 272.8 405.1 262.5 432.4 235.2C476.1 191.4 476.1 120.5 432.4 76.8005Z" fill="#F7D6A1"/>
<path opacity="0.7" d="M386.321 215.822C419.125 183.018 418.935 129.643 385.897 96.605C352.859 63.567 299.483 63.377 266.68 96.1808C233.876 128.984 234.066 182.36 267.104 215.398C300.142 248.436 353.517 248.626 386.321 215.822Z" fill="white"/>
<path d="M447.2 102.9C444.1 98.9005 438.1 87.9005 434.4 84.2005C390.4 40.8005 319.5 41.2005 276.1 85.3005C267.5 94.0005 260.6 103.8 255.5 114.3C317.2 92.6005 384.8 97.8005 447.2 102.9Z" fill="#EFCA92"/>
<path d="M353.2 268C415.056 268 465.2 217.856 465.2 156C465.2 94.1446 415.056 44.0005 353.2 44.0005C291.344 44.0005 241.2 94.1446 241.2 156C241.2 217.856 291.344 268 353.2 268Z" stroke="#413D51" stroke-width="16" stroke-miterlimit="10" stroke-linecap="round" stroke-linejoin="round"/>
<path d="M353.2 268C415.056 268 465.2 217.856 465.2 156C465.2 94.1446 415.056 44.0005 353.2 44.0005C291.344 44.0005 241.2 94.1446 241.2 156C241.2 217.856 291.344 268 353.2 268Z" stroke="#413D51" stroke-width="16" stroke-miterlimit="10" stroke-linecap="round" stroke-linejoin="round"/>
<path d="M442.5 88.4004C439.4 84.4004 436.1 80.5004 432.4 76.8004C388.7 33.1004 317.8 33.1004 274 76.8004C265.3 85.5004 258.4 95.2004 253.2 105.6C315.2 84.4004 380.1 82.8004 442.5 88.4004Z" fill="#413D51"/>
<path d="M298.7 206.4C321.896 206.4 340.7 187.596 340.7 164.4C340.7 141.204 321.896 122.4 298.7 122.4C275.504 122.4 256.7 141.204 256.7 164.4C256.7 187.596 275.504 206.4 298.7 206.4Z" fill="#413D51"/>
<path d="M274.9 178.7C282.632 178.7 288.9 172.432 288.9 164.7C288.9 156.968 282.632 150.7 274.9 150.7C267.168 150.7 260.9 156.968 260.9 164.7C260.9 172.432 267.168 178.7 274.9 178.7Z" fill="white"/>
<path d="M124.6 44.1999L15.8 40.8999C31.5 80.1999 33.6 139.3 19.9 203.9C37.3 240.7 74.3 266.8 117.8 268.1C179.6 270 231.3 221.4 233.1 159.5C235 97.6999 186.4 46.0999 124.6 44.1999Z" fill="#413D51"/>
<path d="M124.6 44.1999L15.8 40.8999C31.5 80.1999 33.6 139.3 19.9 203.9C37.3 240.7 74.3 266.8 117.8 268.1C179.6 270 231.3 221.4 233.1 159.5C235 97.6999 186.4 46.0999 124.6 44.1999Z" stroke="#413D51" stroke-width="16" stroke-miterlimit="10" stroke-linecap="round" stroke-linejoin="round"/>
<path d="M120.6 268C182.456 268 232.6 217.856 232.6 156C232.6 94.1441 182.456 44 120.6 44C58.7441 44 8.59998 94.1441 8.59998 156C8.59998 217.856 58.7441 268 120.6 268Z" fill="#F7E8AD"/>
<path d="M120.6 268C182.456 268 232.6 217.856 232.6 156C232.6 94.1441 182.456 44 120.6 44C58.7441 44 8.59998 94.1441 8.59998 156C8.59998 217.856 58.7441 268 120.6 268Z" fill="#F7E8AD"/>
<path d="M41.4 76.8C62.9 55.3 91.1 44.4 119.3 44C98.1 48.1 77.8 58.3 61.4 74.8C17.7 118.5 17.7 189.4 61.4 233.2C83.6 255.4 112.8 266.3 141.8 266C106.5 272.8 68.7 262.5 41.4 235.2C-2.3 191.4 -2.3 120.5 41.4 76.8Z" fill="#F7D6A1"/>
<path opacity="0.7" d="M206.707 215.417C239.745 182.379 239.935 129.004 207.131 96.2004C174.327 63.3967 120.952 63.5866 87.914 96.6247C54.876 129.663 54.686 183.038 87.4898 215.842C120.293 248.645 173.669 248.455 206.707 215.417Z" fill="white"/>
<path opacity="0.89" d="M26.7 102.9C29.8 98.9 35.8 87.9 39.5 84.2C83.5 40.8 154.4 41.2 197.8 85.3C206.4 94 213.3 103.8 218.4 114.3C156.6 92.6 89 97.8 26.7 102.9Z" fill="#EFCA92"/>
<path d="M120.6 268C182.456 268 232.6 217.856 232.6 156C232.6 94.1441 182.456 44 120.6 44C58.7441 44 8.59998 94.1441 8.59998 156C8.59998 217.856 58.7441 268 120.6 268Z" stroke="#413D51" stroke-width="16" stroke-miterlimit="10" stroke-linecap="round" stroke-linejoin="round"/>
<path d="M120.6 268C182.456 268 232.6 217.856 232.6 156C232.6 94.1441 182.456 44 120.6 44C58.7441 44 8.59998 94.1441 8.59998 156C8.59998 217.856 58.7441 268 120.6 268Z" stroke="#413D51" stroke-width="16" stroke-miterlimit="10" stroke-linecap="round" stroke-linejoin="round"/>
<path d="M31.4 88.3999C34.5 84.3999 37.8 80.4999 41.5 76.7999C85.2 33.0999 156.1 33.0999 199.9 76.7999C208.6 85.4999 215.5 95.1999 220.7 105.6C158.7 84.3999 93.7 82.7999 31.4 88.3999Z" fill="#413D51"/>
<path d="M175.2 206.4C198.396 206.4 217.2 187.596 217.2 164.4C217.2 141.204 198.396 122.4 175.2 122.4C152.004 122.4 133.2 141.204 133.2 164.4C133.2 187.596 152.004 206.4 175.2 206.4Z" fill="#413D51"/>
<path d="M199 178.7C206.732 178.7 213 172.432 213 164.7C213 156.968 206.732 150.7 199 150.7C191.268 150.7 185 156.968 185 164.7C185 172.432 191.268 178.7 199 178.7Z" fill="white"/>
<path d="M183.7 444.6C174.9 444.6 167.7 437.4 167.7 428.6V410.6C167.7 401.8 174.9 394.6 183.7 394.6C192.5 394.6 199.7 401.8 199.7 410.6V428.6C199.7 437.4 192.6 444.6 183.7 444.6Z" fill="#413D51"/>
<path d="M151.7 444.6C142.9 444.6 135.7 437.4 135.7 428.6V410.6C135.7 401.8 142.9 394.6 151.7 394.6C160.5 394.6 167.7 401.8 167.7 410.6V428.6C167.7 437.4 160.6 444.6 151.7 444.6Z" fill="#413D51"/>
<path d="M215.5 444.6C206.7 444.6 199.5 437.4 199.5 428.6V410.6C199.5 401.8 206.7 394.6 215.5 394.6C224.3 394.6 231.5 401.8 231.5 410.6V428.6C231.5 437.4 224.3 444.6 215.5 444.6Z" fill="#413D51"/>
<path d="M257.7 444.6C248.9 444.6 241.7 437.4 241.7 428.6V410.6C241.7 401.8 248.9 394.6 257.7 394.6C266.5 394.6 273.7 401.8 273.7 410.6V428.6C273.7 437.4 266.5 444.6 257.7 444.6Z" fill="#413D51"/>
<path d="M289.5 444.6C280.7 444.6 273.5 437.4 273.5 428.6V410.6C273.5 401.8 280.7 394.6 289.5 394.6C298.3 394.6 305.5 401.8 305.5 410.6V428.6C305.5 437.4 298.3 444.6 289.5 444.6Z" fill="#413D51"/>
<path d="M321.5 444.6C312.7 444.6 305.5 437.4 305.5 428.6V410.6C305.5 401.8 312.7 394.6 321.5 394.6C330.3 394.6 337.5 401.8 337.5 410.6V428.6C337.5 437.4 330.3 444.6 321.5 444.6Z" fill="#413D51"/>
<path d="M227.7 313.9C227.7 322.3 220.9 329.1 212.5 329.1C204.1 329.1 197.3 322.3 197.3 313.9" stroke="#413D51" stroke-width="8" stroke-miterlimit="10" stroke-linecap="round" stroke-linejoin="round"/>
<path d="M274.2 313.9C274.2 322.3 267.4 329.1 259 329.1C250.6 329.1 243.8 322.3 243.8 313.9" stroke="#413D51" stroke-width="8" stroke-miterlimit="10" stroke-linecap="round" stroke-linejoin="round"/>
<path opacity="0.31" d="M58.8 275.1C56.6 279.8 51.1 281.9 46.3 279.7C41.5 277.5 39.5 272 41.7 267.2" stroke="#72C8D6" stroke-width="8" stroke-miterlimit="10" stroke-linecap="round" stroke-linejoin="round"/>
<path opacity="0.31" d="M88.6 290.6C86.4 295.3 80.9 297.4 76.1 295.2C71.4 293 69.3 287.5 71.5 282.7" stroke="#72C8D6" stroke-width="8" stroke-miterlimit="10" stroke-linecap="round" stroke-linejoin="round"/>
<path opacity="0.31" d="M71.3 302.5C69.1 307.2 63.6 309.3 58.8 307.1C54.1 304.9 52 299.4 54.2 294.6" stroke="#72C8D6" stroke-width="8" stroke-miterlimit="10" stroke-linecap="round" stroke-linejoin="round"/>
<path opacity="0.31" d="M97.5 322.4C95.3 327.1 89.8 329.2 85 327C80.3 324.8 78.2 319.3 80.4 314.5" stroke="#72C8D6" stroke-width="8" stroke-miterlimit="10" stroke-linecap="round" stroke-linejoin="round"/>
<path opacity="0.31" d="M117.5 304.4C115.3 309.1 109.8 311.2 105 309C100.3 306.8 98.2 301.3 100.4 296.5" stroke="#72C8D6" stroke-width="8" stroke-miterlimit="10" stroke-linecap="round" stroke-linejoin="round"/>
<path opacity="0.31" d="M419.5 277.1C421.7 281.8 427.2 283.9 432 281.7C436.8 279.5 438.8 274 436.6 269.2" stroke="#72C8D6" stroke-width="8" stroke-miterlimit="10" stroke-linecap="round" stroke-linejoin="round"/>
<path opacity="0.31" d="M389.8 292.6C392 297.3 397.5 299.4 402.3 297.2C407 295 409.1 289.5 406.9 284.7" stroke="#72C8D6" stroke-width="8" stroke-miterlimit="10" stroke-linecap="round" stroke-linejoin="round"/>
<path opacity="0.31" d="M407 304.5C409.2 309.2 414.7 311.3 419.5 309.1C424.2 306.9 426.3 301.4 424.1 296.6" stroke="#72C8D6" stroke-width="8" stroke-miterlimit="10" stroke-linecap="round" stroke-linejoin="round"/>
<path opacity="0.31" d="M380.9 324.4C383.1 329.1 388.6 331.2 393.4 329C398.1 326.8 400.2 321.3 398 316.5" stroke="#72C8D6" stroke-width="8" stroke-miterlimit="10" stroke-linecap="round" stroke-linejoin="round"/>
<path opacity="0.31" d="M360.9 306.4C363.1 311.1 368.6 313.2 373.4 311C378.1 308.8 380.2 303.3 378 298.5" stroke="#72C8D6" stroke-width="8" stroke-miterlimit="10" stroke-linecap="round" stroke-linejoin="round"/>
<path d="M204.5 350.4C204.5 358.8 197.7 365.6 189.3 365.6C180.9 365.6 174.1 358.8 174.1 350.4" stroke="#413D51" stroke-width="8" stroke-miterlimit="10" stroke-linecap="round" stroke-linejoin="round"/>
<path d="M251 350.4C251 358.8 244.2 365.6 235.8 365.6C227.4 365.6 220.6 358.8 220.6 350.4" stroke="#413D51" stroke-width="8" stroke-miterlimit="10" stroke-linecap="round" stroke-linejoin="round"/>
<path d="M297.5 350.4C297.5 358.8 290.7 365.6 282.3 365.6C273.9 365.6 267.1 358.8 267.1 350.4" stroke="#413D51" stroke-width="8" stroke-miterlimit="10" stroke-linecap="round" stroke-linejoin="round"/>
</svg>
