<svg width="36" height="36" viewBox="0 0 36 36" fill="none" xmlns="http://www.w3.org/2000/svg">
<g filter="url(#filter0_d_252_9)">
<circle cx="18" cy="16" r="10" fill="#E6E6E6"/>
</g>
<path d="M18 2C20.7689 2 23.4757 2.82109 25.778 4.35942C28.0803 5.89776 29.8747 8.08426 30.9343 10.6424C31.9939 13.2006 32.2712 16.0155 31.731 18.7313C31.1908 21.447 29.8574 23.9415 27.8995 25.8995C25.9416 27.8574 23.447 29.1908 20.7313 29.731C18.0155 30.2712 15.2006 29.9939 12.6425 28.9343C10.0843 27.8747 7.89778 26.0803 6.35944 23.778C4.8211 21.4757 4.00001 18.769 4 16L18 16L18 2Z" fill="#50A5FE"/>
<defs>
<filter id="filter0_d_252_9" x="0" y="0" width="36" height="36" filterUnits="userSpaceOnUse" color-interpolation-filters="sRGB">
<feFlood flood-opacity="0" result="BackgroundImageFix"/>
<feColorMatrix in="SourceAlpha" type="matrix" values="0 0 0 0 0 0 0 0 0 0 0 0 0 0 0 0 0 0 127 0" result="hardAlpha"/>
<feOffset dy="2"/>
<feGaussianBlur stdDeviation="4"/>
<feComposite in2="hardAlpha" operator="out"/>
<feColorMatrix type="matrix" values="0 0 0 0 0.533333 0 0 0 0 0.533333 0 0 0 0 0.533333 0 0 0 0.25 0"/>
<feBlend mode="normal" in2="BackgroundImageFix" result="effect1_dropShadow_252_9"/>
<feBlend mode="normal" in="SourceGraphic" in2="effect1_dropShadow_252_9" result="shape"/>
</filter>
</defs>
</svg>
