<svg width="36" height="36" viewBox="0 0 36 36" fill="none" xmlns="http://www.w3.org/2000/svg">
<g filter="url(#filter0_d_252_12)">
<circle cx="18" cy="16" r="10" fill="#E6E6E6"/>
</g>
<path d="M18 2C19.8385 2 21.659 2.36212 23.3576 3.06569C25.0561 3.76925 26.5995 4.80049 27.8995 6.10051C29.1995 7.40053 30.2307 8.94388 30.9343 10.6424C31.6379 12.341 32 14.1615 32 16C32 17.8385 31.6379 19.659 30.9343 21.3576C30.2307 23.0561 29.1995 24.5995 27.8995 25.8995C26.5995 27.1995 25.0561 28.2307 23.3576 28.9343C21.659 29.6379 19.8385 30 18 30L18 16L18 2Z" fill="#50A5FE"/>
<defs>
<filter id="filter0_d_252_12" x="0" y="0" width="36" height="36" filterUnits="userSpaceOnUse" color-interpolation-filters="sRGB">
<feFlood flood-opacity="0" result="BackgroundImageFix"/>
<feColorMatrix in="SourceAlpha" type="matrix" values="0 0 0 0 0 0 0 0 0 0 0 0 0 0 0 0 0 0 127 0" result="hardAlpha"/>
<feOffset dy="2"/>
<feGaussianBlur stdDeviation="4"/>
<feComposite in2="hardAlpha" operator="out"/>
<feColorMatrix type="matrix" values="0 0 0 0 0.533333 0 0 0 0 0.533333 0 0 0 0 0.533333 0 0 0 0.25 0"/>
<feBlend mode="normal" in2="BackgroundImageFix" result="effect1_dropShadow_252_12"/>
<feBlend mode="normal" in="SourceGraphic" in2="effect1_dropShadow_252_12" result="shape"/>
</filter>
</defs>
</svg>
