<svg width="41" height="41" viewBox="0 0 41 41" fill="none" xmlns="http://www.w3.org/2000/svg">
<g filter="url(#filter0_d_171_496)">
<circle cx="20.5" cy="18.5" r="12.5" fill="white"/>
</g>
<path d="M18.008 18.89C18.6053 19.0673 19.0627 19.3567 19.38 19.758C19.6973 20.1593 19.856 20.654 19.856 21.242C19.856 22.11 19.5247 22.7867 18.862 23.272C18.2087 23.7573 17.2707 24 16.048 24H11.218V14.2H15.782C16.9207 14.2 17.8073 14.4193 18.442 14.858C19.0767 15.2967 19.394 15.922 19.394 16.734C19.394 17.2193 19.2727 17.6487 19.03 18.022C18.7873 18.386 18.4467 18.6753 18.008 18.89ZM13.472 18.26H15.586C16.0807 18.26 16.454 18.162 16.706 17.966C16.958 17.7607 17.084 17.462 17.084 17.07C17.084 16.6873 16.9533 16.3933 16.692 16.188C16.44 15.9827 16.0713 15.88 15.586 15.88H13.472V18.26ZM15.964 22.32C17.028 22.32 17.56 21.9 17.56 21.06C17.56 20.248 17.028 19.842 15.964 19.842H13.472V22.32H15.964ZM26.2836 24.168C25.285 24.168 24.3796 23.9533 23.5676 23.524C22.765 23.0853 22.1303 22.4833 21.6636 21.718C21.2063 20.9433 20.9776 20.0707 20.9776 19.1C20.9776 18.1293 21.2063 17.2613 21.6636 16.496C22.1303 15.7213 22.765 15.1193 23.5676 14.69C24.3796 14.2513 25.2896 14.032 26.2976 14.032C27.147 14.032 27.9123 14.1813 28.5936 14.48C29.2843 14.7787 29.863 15.208 30.3296 15.768L28.8736 17.112C28.211 16.3467 27.3896 15.964 26.4096 15.964C25.803 15.964 25.2616 16.0993 24.7856 16.37C24.3096 16.6313 23.9363 17 23.6656 17.476C23.4043 17.952 23.2736 18.4933 23.2736 19.1C23.2736 19.7067 23.4043 20.248 23.6656 20.724C23.9363 21.2 24.3096 21.5733 24.7856 21.844C25.2616 22.1053 25.803 22.236 26.4096 22.236C27.3896 22.236 28.211 21.8487 28.8736 21.074L30.3296 22.418C29.863 22.9873 29.2843 23.4213 28.5936 23.72C27.903 24.0187 27.133 24.168 26.2836 24.168Z" fill="#50A5FE"/>
<defs>
<filter id="filter0_d_171_496" x="0" y="0" width="41" height="41" filterUnits="userSpaceOnUse" color-interpolation-filters="sRGB">
<feFlood flood-opacity="0" result="BackgroundImageFix"/>
<feColorMatrix in="SourceAlpha" type="matrix" values="0 0 0 0 0 0 0 0 0 0 0 0 0 0 0 0 0 0 127 0" result="hardAlpha"/>
<feOffset dy="2"/>
<feGaussianBlur stdDeviation="4"/>
<feComposite in2="hardAlpha" operator="out"/>
<feColorMatrix type="matrix" values="0 0 0 0 0.533333 0 0 0 0 0.533333 0 0 0 0 0.533333 0 0 0 0.25 0"/>
<feBlend mode="normal" in2="BackgroundImageFix" result="effect1_dropShadow_171_496"/>
<feBlend mode="normal" in="SourceGraphic" in2="effect1_dropShadow_171_496" result="shape"/>
</filter>
</defs>
</svg>
