<svg width="60" height="40" viewBox="0 0 60 40" fill="none" xmlns="http://www.w3.org/2000/svg">
<path fill-rule="evenodd" clip-rule="evenodd" d="M3 2C2.44772 2 2 2.44772 2 3V14C2 14.5523 2.44772 15 3 15H14C14.5523 15 15 14.5523 15 14V3C15 2.44772 14.5523 2 14 2H9.5V0H14C15.6569 0 17 1.34315 17 3V14C17 15.6569 15.6569 17 14 17H3C1.34315 17 0 15.6569 0 14V3C0 1.34315 1.34315 0 3 0H4.5V2H3Z" fill="#005EFE"/>
<path d="M12.5312 12.2344C12.5729 12.3385 12.5938 12.4479 12.5938 12.5625C12.5938 12.6667 12.5417 12.776 12.4375 12.8906C12.3438 13.0052 12.1823 13.0625 11.9531 13.0625C11.7344 13.0625 11.5729 12.9427 11.4688 12.7031L10.6406 10.7188H6.28125L5.46875 12.7031C5.36458 12.9427 5.19792 13.0625 4.96875 13.0625C4.75 13.0625 4.58854 13.0052 4.48438 12.8906C4.39062 12.776 4.34375 12.6667 4.34375 12.5625C4.34375 12.4479 4.36458 12.3385 4.40625 12.2344L7.65625 4.53125C7.80208 4.17708 8.05208 4 8.40625 4H8.53125C8.875 4 9.125 4.17708 9.28125 4.53125L12.5312 12.2344ZM10.2031 9.65625L8.46875 5.48438L6.73438 9.65625H10.2031Z" fill="#222831"/>
<path d="M8 1C8 0.447715 8.44772 0 9 0H10C10.5523 0 11 0.447715 11 1V1C11 1.55228 10.5523 2 10 2H9C8.44772 2 8 1.55228 8 1V1Z" fill="#005EFE"/>
<path d="M3 1C3 0.447715 3.44772 0 4 0H5C5.55228 0 6 0.447715 6 1V1C6 1.55228 5.55228 2 5 2H4C3.44772 2 3 1.55228 3 1V1Z" fill="#005EFE"/>
<rect x="19" y="4" width="8" height="2" rx="1" fill="#222831"/>
<rect x="19" y="7" width="5" height="2" rx="1" fill="#222831"/>
<rect x="19" y="10" width="3" height="2" rx="1" fill="#222831"/>
<path fill-rule="evenodd" clip-rule="evenodd" d="M14 38C14.5523 38 15 37.5523 15 37L15 26C15 25.4477 14.5523 25 14 25L3 25C2.44772 25 2 25.4477 2 26L2 37C2 37.5523 2.44772 38 3 38L7.5 38L7.5 40L3 40C1.34315 40 1.17422e-07 38.6569 2.62268e-07 37L1.22392e-06 26C1.36877e-06 24.3431 1.34315 23 3 23L14 23C15.6569 23 17 24.3431 17 26L17 37C17 38.6569 15.6569 40 14 40L12.5 40L12.5 38L14 38Z" fill="#005EFE"/>
<path d="M9 39C9 39.5523 8.55228 40 8 40L7 40C6.44772 40 6 39.5523 6 39V39C6 38.4477 6.44772 38 7 38L8 38C8.55228 38 9 38.4477 9 39V39Z" fill="#005EFE"/>
<path d="M14 39C14 39.5523 13.5523 40 13 40L12 40C11.4477 40 11 39.5523 11 39V39C11 38.4477 11.4477 38 12 38L13 38C13.5523 38 14 38.4477 14 39V39Z" fill="#005EFE"/>
<path d="M18.9999 28.0001C18.9999 27.4478 19.4476 27.0001 19.9999 27.0001H25.9999C26.5522 27.0001 26.9999 27.4478 26.9999 28.0001V28.0001C26.9999 28.5524 26.5522 29.0001 25.9999 29.0001H19.9999C19.4476 29.0001 18.9999 28.5524 18.9999 28.0001V28.0001Z" fill="#222831"/>
<path d="M18.9999 31.0001C18.9999 30.4478 19.4476 30.0001 19.9999 30.0001H22.9999C23.5522 30.0001 23.9999 30.4478 23.9999 31.0001V31.0001C23.9999 31.5524 23.5522 32.0001 22.9999 32.0001H19.9999C19.4476 32.0001 18.9999 31.5524 18.9999 31.0001V31.0001Z" fill="#222831"/>
<path d="M18.9999 34.0001C18.9999 33.4478 19.4476 33.0001 19.9999 33.0001H20.9999C21.5522 33.0001 21.9999 33.4478 21.9999 34.0001V34.0001C21.9999 34.5524 21.5522 35.0001 20.9999 35.0001H19.9999C19.4476 35.0001 18.9999 34.5524 18.9999 34.0001V34.0001Z" fill="#222831"/>
<path d="M11.6562 34.4062C11.7188 34.375 11.8125 34.3594 11.9375 34.3594C12.0625 34.3594 12.1719 34.4115 12.2656 34.5156C12.3594 34.6094 12.4062 34.7188 12.4062 34.8438C12.4062 35.0729 12.3073 35.2396 12.1094 35.3438C11.7135 35.5729 11.2865 35.7604 10.8281 35.9062C10.3802 36.0521 9.83333 36.125 9.1875 36.125C8.55208 36.125 7.95833 36.0208 7.40625 35.8125C6.86458 35.6042 6.39583 35.3021 6 34.9062C5.14583 34.0729 4.71875 32.9479 4.71875 31.5312C4.71875 30.125 5.14583 29 6 28.1562C6.82292 27.3438 7.89062 26.9375 9.20312 26.9375C9.83854 26.9375 10.3802 27.0156 10.8281 27.1719C11.2865 27.3281 11.6354 27.474 11.875 27.6094C12.1146 27.7344 12.2604 27.8385 12.3125 27.9219C12.375 27.9948 12.4062 28.0938 12.4062 28.2188C12.4062 28.3438 12.3594 28.4583 12.2656 28.5625C12.1719 28.6562 12.0625 28.7031 11.9375 28.7031C11.8229 28.7031 11.7292 28.6875 11.6562 28.6562C11.3125 28.4688 10.9583 28.3229 10.5938 28.2188C10.2396 28.1042 9.79688 28.0469 9.26562 28.0469C8.73438 28.0469 8.25 28.1406 7.8125 28.3281C7.38542 28.5052 7.02604 28.75 6.73438 29.0625C6.16146 29.6875 5.88021 30.5104 5.89062 31.5312C5.89062 32.5521 6.17188 33.375 6.73438 34C7.35938 34.6771 8.21875 35.0156 9.3125 35.0156C9.8125 35.0156 10.2396 34.9635 10.5938 34.8594C10.9583 34.7448 11.3125 34.5938 11.6562 34.4062Z" fill="#222831"/>
<path d="M41 24C41 23.4477 41.4477 23 42 23H43C43.5523 23 44 23.4477 44 24V24C44 24.5523 43.5523 25 43 25H42C41.4477 25 41 24.5523 41 24V24Z" fill="#005EFE"/>
<path d="M36 24C36 23.4477 36.4477 23 37 23H38C38.5523 23 39 23.4477 39 24V24C39 24.5523 38.5523 25 38 25H37C36.4477 25 36 24.5523 36 24V24Z" fill="#005EFE"/>
<path fill-rule="evenodd" clip-rule="evenodd" d="M36 25C35.4477 25 35 25.4477 35 26V37C35 37.5523 35.4477 38 36 38H47C47.5523 38 48 37.5523 48 37V26C48 25.4477 47.5523 25 47 25H42.5V23H47C48.6569 23 50 24.3431 50 26V37C50 38.6569 48.6569 40 47 40H36C34.3431 40 33 38.6569 33 37V26C33 24.3431 34.3431 23 36 23H37.5V25H36Z" fill="#005EFE"/>
<path d="M41.3906 27.0625C42.8177 27.0625 43.9531 27.5417 44.7969 28.5C45.1719 28.9167 45.4479 29.3906 45.625 29.9219C45.8125 30.4531 45.9062 30.9896 45.9062 31.5312C45.9062 32.0729 45.8125 32.6094 45.625 33.1406C45.4479 33.6719 45.1719 34.1458 44.7969 34.5625C43.9531 35.5208 42.8177 36 41.3906 36H38.8125C38.6562 36 38.5208 35.9427 38.4062 35.8281C38.2917 35.7135 38.2344 35.5781 38.2344 35.4219V27.6562C38.2344 27.5 38.2917 27.3646 38.4062 27.25C38.5208 27.125 38.6562 27.0625 38.8125 27.0625H41.3906ZM41.25 34.9062C42.3125 34.9062 43.1667 34.5938 43.8125 33.9688C44.4479 33.3438 44.7656 32.5312 44.7656 31.5312C44.7656 30.5312 44.4479 29.7188 43.8125 29.0938C43.1667 28.4688 42.3125 28.1562 41.25 28.1562H39.4062V34.9062H41.25Z" fill="#222831"/>
<path d="M52 28.0003C52 27.448 52.4477 27.0003 53 27.0003H59C59.5523 27.0003 60 27.448 60 28.0003V28.0003C60 28.5526 59.5523 29.0003 59 29.0003H53C52.4477 29.0003 52 28.5526 52 28.0003V28.0003Z" fill="#222831"/>
<path d="M52 31.0003C52 30.448 52.4477 30.0003 53 30.0003H56C56.5523 30.0003 57 30.448 57 31.0003V31.0003C57 31.5526 56.5523 32.0003 56 32.0003H53C52.4477 32.0003 52 31.5526 52 31.0003V31.0003Z" fill="#222831"/>
<path d="M52 34.0003C52 33.448 52.4477 33.0003 53 33.0003H54C54.5523 33.0003 55 33.448 55 34.0003V34.0003C55 34.5526 54.5523 35.0003 54 35.0003H53C52.4477 35.0003 52 34.5526 52 34.0003V34.0003Z" fill="#222831"/>
<path fill-rule="evenodd" clip-rule="evenodd" d="M36 2C35.4477 2 35 2.44772 35 3V14C35 14.5523 35.4477 15 36 15H47C47.5523 15 48 14.5523 48 14V3C48 2.44772 47.5523 2 47 2H42.5V0H47C48.6569 0 50 1.34315 50 3V14C50 15.6569 48.6569 17 47 17H36C34.3431 17 33 15.6569 33 14V3C33 1.34315 34.3431 0 36 0H42.5V2H36Z" fill="#005EFE"/>
<path d="M52 5C52 4.44772 52.4477 4 53 4H59C59.5523 4 60 4.44772 60 5V5C60 5.55228 59.5523 6 59 6H53C52.4477 6 52 5.55228 52 5V5Z" fill="#222831"/>
<path d="M52 8C52 7.44772 52.4477 7 53 7H56C56.5523 7 57 7.44772 57 8V8C57 8.55228 56.5523 9 56 9H53C52.4477 9 52 8.55228 52 8V8Z" fill="#222831"/>
<path d="M52 11C52 10.4477 52.4477 10 53 10H54C54.5523 10 55 10.4477 55 11V11C55 11.5523 54.5523 12 54 12H53C52.4477 12 52 11.5523 52 11V11Z" fill="#222831"/>
<path d="M44.7031 6.39062C44.7031 7.31771 44.2865 7.96875 43.4531 8.34375C44.2656 8.61458 44.8021 9.06771 45.0625 9.70312C45.1562 9.94271 45.2031 10.2292 45.2031 10.5625C45.2031 10.8854 45.1406 11.2031 45.0156 11.5156C44.901 11.8177 44.7135 12.0833 44.4531 12.3125C43.901 12.7708 43.0521 13 41.9062 13H38.8125C38.6562 13 38.5208 12.9427 38.4062 12.8281C38.2917 12.7135 38.2344 12.5781 38.2344 12.4219V4.65625C38.2344 4.5 38.2917 4.36458 38.4062 4.25C38.5208 4.125 38.6562 4.0625 38.8125 4.0625H41.8438C42.7812 4.0625 43.4896 4.28125 43.9688 4.71875C44.4583 5.14583 44.7031 5.70312 44.7031 6.39062ZM43.5938 6.46875C43.5938 6.07292 43.4323 5.75521 43.1094 5.51562C42.7969 5.27604 42.3438 5.15625 41.75 5.15625H39.4062V7.92188H41.5312C42.6354 7.92188 43.2917 7.63021 43.5 7.04688C43.5625 6.86979 43.5938 6.67708 43.5938 6.46875ZM41.7969 11.9062C43.0052 11.9062 43.7292 11.6146 43.9688 11.0312C44.0417 10.8438 44.0781 10.6458 44.0781 10.4375C44.0781 9.92708 43.8854 9.55729 43.5 9.32812C43.1146 9.08854 42.5521 8.96875 41.8125 8.96875H39.4062V11.9062H41.7969Z" fill="#222831"/>
</svg>
