<svg width="78" height="80" viewBox="0 0 78 80" fill="none" xmlns="http://www.w3.org/2000/svg">
<path fill-rule="evenodd" clip-rule="evenodd" d="M3.9 2.6C3.18203 2.6 2.6 3.18203 2.6 3.9V18.2C2.6 18.918 3.18203 19.5 3.9 19.5H18.2C18.918 19.5 19.5 18.918 19.5 18.2V3.9C19.5 3.18203 18.918 2.6 18.2 2.6H12.35V0H18.2C20.3539 0 22.1 1.74609 22.1 3.9V18.2C22.1 20.3539 20.3539 22.1 18.2 22.1H3.9C1.74609 22.1 0 20.3539 0 18.2V3.9C0 1.74609 1.74609 0 3.9 0H5.85V2.6H3.9Z" fill="#FFF16C"/>
<path d="M16.2906 15.9047C16.3448 16.0401 16.3719 16.1823 16.3719 16.3312C16.3719 16.4666 16.3041 16.6088 16.1687 16.7578C16.0469 16.9068 15.837 16.9812 15.539 16.9812C15.2547 16.9812 15.0448 16.8255 14.9094 16.514L13.8328 13.9344H8.1656L7.10935 16.514C6.97393 16.8255 6.75727 16.9812 6.45935 16.9812C6.17498 16.9812 5.96508 16.9068 5.82966 16.7578C5.70779 16.6088 5.64685 16.4666 5.64685 16.3312C5.64685 16.1823 5.67393 16.0401 5.7281 15.9047L9.9531 5.89061C10.1427 5.43019 10.4677 5.19998 10.9281 5.19998H11.0906C11.5375 5.19998 11.8625 5.43019 12.0656 5.89061L16.2906 15.9047ZM13.264 12.5531L11.0094 7.12967L8.75466 12.5531H13.264Z" fill="white"/>
<path d="M10.4 1.3C10.4 0.58203 10.9821 0 11.7 0H13C13.718 0 14.3 0.58203 14.3 1.3V1.3C14.3 2.01797 13.718 2.6 13 2.6H11.7C10.9821 2.6 10.4 2.01797 10.4 1.3V1.3Z" fill="#FFF16C"/>
<path d="M3.90002 1.3C3.90002 0.58203 4.48205 0 5.20002 0H6.50002C7.21799 0 7.80002 0.58203 7.80002 1.3V1.3C7.80002 2.01797 7.21799 2.6 6.50002 2.6H5.20002C4.48205 2.6 3.90002 2.01797 3.90002 1.3V1.3Z" fill="#FFF16C"/>
<rect x="24.7" y="5.19998" width="10.4" height="2.6" rx="1" fill="white"/>
<rect x="24.7" y="9.09999" width="6.5" height="2.6" rx="1" fill="white"/>
<rect x="24.7" y="13" width="3.9" height="2.6" rx="1" fill="white"/>
<path fill-rule="evenodd" clip-rule="evenodd" d="M18.2 49.4C18.9179 49.4 19.5 48.818 19.5 48.1L19.5 33.8C19.5 33.0821 18.9179 32.5 18.2 32.5L3.89998 32.5C3.18201 32.5 2.59998 33.0821 2.59998 33.8L2.59998 48.1C2.59998 48.818 3.18201 49.4 3.89998 49.4L9.74998 49.4L9.74998 52L3.89998 52C1.74607 52 -2.34508e-05 50.254 -2.32625e-05 48.1L-2.20123e-05 33.8C-2.1824e-05 31.6461 1.74607 29.9 3.89998 29.9L18.2 29.9C20.3539 29.9 22.1 31.6461 22.1 33.8L22.1 48.1C22.1 50.254 20.3539 52 18.2 52L16.25 52L16.25 49.4L18.2 49.4Z" fill="#FFB1E0"/>
<path d="M11.7 50.7C11.7 51.418 11.1179 52 10.4 52L9.09995 52C8.38198 52 7.79995 51.418 7.79995 50.7V50.7C7.79995 49.9821 8.38198 49.4 9.09995 49.4L10.4 49.4C11.1179 49.4 11.7 49.9821 11.7 50.7V50.7Z" fill="#FFB1E0"/>
<path d="M18.2 50.7C18.2 51.418 17.6179 52 16.9 52L15.6 52C14.882 52 14.3 51.418 14.3 50.7V50.7C14.3 49.9821 14.882 49.4 15.6 49.4L16.9 49.4C17.6179 49.4 18.2 49.9821 18.2 50.7V50.7Z" fill="#FFB1E0"/>
<path d="M24.7 36.4002C24.7 35.6822 25.282 35.1002 26 35.1002H33.8C34.5179 35.1002 35.1 35.6822 35.1 36.4002V36.4002C35.1 37.1181 34.5179 37.7002 33.8 37.7002H26C25.282 37.7002 24.7 37.1181 24.7 36.4002V36.4002Z" fill="white"/>
<path d="M24.7 40.3002C24.7 39.5822 25.282 39.0002 26 39.0002H29.9C30.6179 39.0002 31.2 39.5822 31.2 40.3002V40.3002C31.2 41.0182 30.6179 41.6002 29.9 41.6002H26C25.282 41.6002 24.7 41.0182 24.7 40.3002V40.3002Z" fill="white"/>
<path d="M24.7 44.2002C24.7 43.4822 25.282 42.9002 26 42.9002H27.3C28.0179 42.9002 28.6 43.4822 28.6 44.2002V44.2002C28.6 44.9182 28.0179 45.5002 27.3 45.5002H26C25.282 45.5002 24.7 44.9182 24.7 44.2002V44.2002Z" fill="white"/>
<path d="M15.1531 44.7282C15.2344 44.6876 15.3563 44.6673 15.5188 44.6673C15.6813 44.6673 15.8235 44.735 15.9453 44.8704C16.0672 44.9923 16.1281 45.1344 16.1281 45.2969C16.1281 45.5949 15.9995 45.8115 15.7422 45.9469C15.2276 46.2449 14.6724 46.4886 14.0766 46.6782C13.4943 46.8678 12.7834 46.9626 11.9438 46.9626C11.1177 46.9626 10.3459 46.8271 9.62815 46.5563C8.92398 46.2855 8.31461 45.8928 7.80002 45.3782C6.68961 44.2949 6.1344 42.8324 6.1344 40.9907C6.1344 39.1626 6.68961 37.7001 7.80002 36.6032C8.86982 35.5469 10.2578 35.0188 11.9641 35.0188C12.7901 35.0188 13.4943 35.1204 14.0766 35.3235C14.6724 35.5266 15.1261 35.7162 15.4375 35.8923C15.749 36.0548 15.9386 36.1902 16.0063 36.2985C16.0875 36.3933 16.1281 36.5219 16.1281 36.6844C16.1281 36.8469 16.0672 36.9959 15.9453 37.1313C15.8235 37.2532 15.6813 37.3141 15.5188 37.3141C15.3698 37.3141 15.2479 37.2938 15.1531 37.2532C14.7063 37.0094 14.2459 36.8199 13.7719 36.6844C13.3115 36.5355 12.736 36.461 12.0453 36.461C11.3547 36.461 10.725 36.5829 10.1563 36.8266C9.60107 37.0568 9.13388 37.3751 8.75471 37.7813C8.00992 38.5938 7.6443 39.6636 7.65784 40.9907C7.65784 42.3178 8.02346 43.3876 8.75471 44.2001C9.56721 45.0803 10.6844 45.5204 12.1063 45.5204C12.7563 45.5204 13.3115 45.4527 13.7719 45.3173C14.2459 45.1683 14.7063 44.9719 15.1531 44.7282Z" fill="white"/>
<path d="M53.2999 31.2001C53.2999 30.4821 53.882 29.9001 54.5999 29.9001H55.8999C56.6179 29.9001 57.1999 30.4821 57.1999 31.2001V31.2001C57.1999 31.9181 56.6179 32.5001 55.8999 32.5001H54.5999C53.882 32.5001 53.2999 31.9181 53.2999 31.2001V31.2001Z" fill="#F77463"/>
<path d="M46.7999 31.2001C46.7999 30.4821 47.382 29.9001 48.0999 29.9001H49.3999C50.1179 29.9001 50.6999 30.4821 50.6999 31.2001V31.2001C50.6999 31.9181 50.1179 32.5001 49.3999 32.5001H48.0999C47.382 32.5001 46.7999 31.9181 46.7999 31.2001V31.2001Z" fill="#F77463"/>
<path fill-rule="evenodd" clip-rule="evenodd" d="M46.7999 32.5001C46.0819 32.5001 45.4999 33.0821 45.4999 33.8001V48.1001C45.4999 48.818 46.0819 49.4001 46.7999 49.4001H61.0999C61.8179 49.4001 62.3999 48.818 62.3999 48.1001V33.8001C62.3999 33.0821 61.8179 32.5001 61.0999 32.5001H55.2499V29.9001L61.0999 29.9001C63.2538 29.9001 64.9999 31.6462 64.9999 33.8001V48.1001C64.9999 50.254 63.2538 52.0001 61.0999 52.0001H46.7999C44.646 52.0001 42.8999 50.254 42.8999 48.1001V33.8001C42.8999 31.6462 44.646 29.9001 46.7999 29.9001H48.7499V32.5001H46.7999Z" fill="#F77463"/>
<path d="M53.8077 35.1813C55.6629 35.1813 57.139 35.8043 58.2358 37.0501C58.7233 37.5918 59.0822 38.2079 59.3124 38.8985C59.5562 39.5891 59.678 40.2865 59.678 40.9907C59.678 41.6949 59.5562 42.3923 59.3124 43.0829C59.0822 43.7735 58.7233 44.3897 58.2358 44.9313C57.139 46.1772 55.6629 46.8001 53.8077 46.8001H50.4562C50.253 46.8001 50.077 46.7256 49.928 46.5766C49.7791 46.4277 49.7046 46.2516 49.7046 46.0485V35.9532C49.7046 35.7501 49.7791 35.574 49.928 35.4251C50.077 35.2626 50.253 35.1813 50.4562 35.1813H53.8077ZM53.6249 45.3782C55.0062 45.3782 56.1166 44.972 56.9562 44.1595C57.7822 43.347 58.1952 42.2907 58.1952 40.9907C58.1952 39.6907 57.7822 38.6345 56.9562 37.822C56.1166 37.0095 55.0062 36.6032 53.6249 36.6032H51.228V45.3782H53.6249Z" fill="white"/>
<path d="M67.6 36.4005C67.6 35.6825 68.182 35.1005 68.9 35.1005H76.7C77.4179 35.1005 78 35.6825 78 36.4005V36.4005C78 37.1184 77.4179 37.7005 76.7 37.7005H68.9C68.182 37.7005 67.6 37.1184 67.6 36.4005V36.4005Z" fill="white"/>
<path d="M67.6 40.3005C67.6 39.5825 68.182 39.0005 68.9 39.0005H72.8C73.5179 39.0005 74.1 39.5825 74.1 40.3005V40.3005C74.1 41.0184 73.5179 41.6005 72.8 41.6005H68.9C68.182 41.6005 67.6 41.0184 67.6 40.3005V40.3005Z" fill="white"/>
<path d="M67.6 44.2005C67.6 43.4825 68.182 42.9005 68.9 42.9005H70.2C70.9179 42.9005 71.5 43.4825 71.5 44.2005V44.2005C71.5 44.9185 70.9179 45.5005 70.2 45.5005H68.9C68.182 45.5005 67.6 44.9185 67.6 44.2005V44.2005Z" fill="white"/>
<path fill-rule="evenodd" clip-rule="evenodd" d="M46.7999 2.6C46.0819 2.6 45.4999 3.18203 45.4999 3.9V18.2C45.4999 18.918 46.0819 19.5 46.7999 19.5H61.0999C61.8179 19.5 62.3999 18.918 62.3999 18.2V3.9C62.3999 3.18203 61.8179 2.6 61.0999 2.6H55.2499V0H61.0999C63.2538 0 64.9999 1.74609 64.9999 3.9V18.2C64.9999 20.3539 63.2538 22.1 61.0999 22.1H46.7999C44.646 22.1 42.8999 20.3539 42.8999 18.2V3.9C42.8999 1.74609 44.646 0 46.7999 0H55.2499V2.6H46.7999Z" fill="#78E08F"/>
<path d="M67.6 6.49998C67.6 5.78201 68.182 5.19998 68.9 5.19998H76.7C77.4179 5.19998 78 5.78201 78 6.49998V6.49998C78 7.21795 77.4179 7.79998 76.7 7.79998H68.9C68.182 7.79998 67.6 7.21795 67.6 6.49998V6.49998Z" fill="white"/>
<path d="M67.6 10.4C67.6 9.68202 68.182 9.09999 68.9 9.09999H72.8C73.5179 9.09999 74.1 9.68202 74.1 10.4V10.4C74.1 11.118 73.5179 11.7 72.8 11.7H68.9C68.182 11.7 67.6 11.118 67.6 10.4V10.4Z" fill="white"/>
<path d="M67.6 14.3C67.6 13.582 68.182 13 68.9 13H70.2C70.9179 13 71.5 13.582 71.5 14.3V14.3C71.5 15.018 70.9179 15.6 70.2 15.6H68.9C68.182 15.6 67.6 15.018 67.6 14.3V14.3Z" fill="white"/>
<path d="M58.114 8.30781C58.114 9.51302 57.5723 10.3594 56.489 10.8469C57.5452 11.199 58.2426 11.788 58.5812 12.6141C58.703 12.9255 58.764 13.2979 58.764 13.7312C58.764 14.151 58.6827 14.5641 58.5202 14.9703C58.3713 15.363 58.1275 15.7083 57.789 16.0062C57.0713 16.6021 55.9676 16.9 54.478 16.9H50.4562C50.253 16.9 50.077 16.8255 49.928 16.6766C49.7791 16.5276 49.7046 16.3516 49.7046 16.1484V6.05312C49.7046 5.85 49.7791 5.67396 49.928 5.525C50.077 5.3625 50.253 5.28125 50.4562 5.28125H54.3968C55.6155 5.28125 56.5364 5.56562 57.1593 6.13437C57.7957 6.68958 58.114 7.41406 58.114 8.30781ZM56.6718 8.40937C56.6718 7.89479 56.4619 7.48177 56.0421 7.17031C55.6358 6.85885 55.0468 6.70312 54.2749 6.70312H51.228V10.2984H53.9905C55.4259 10.2984 56.2791 9.91927 56.5499 9.16094C56.6312 8.93073 56.6718 8.68021 56.6718 8.40937ZM54.3358 15.4781C55.9067 15.4781 56.8478 15.099 57.1593 14.3406C57.2541 14.0969 57.3015 13.8396 57.3015 13.5687C57.3015 12.9052 57.0509 12.4245 56.5499 12.1266C56.0489 11.8151 55.3176 11.6594 54.3562 11.6594H51.228V15.4781H54.3358Z" fill="white"/>
<path fill-rule="evenodd" clip-rule="evenodd" d="M14.8365 42.8669C13.8222 43.3042 13.3545 44.4809 13.7918 45.4953L19.7865 59.4002L16.7396 57.0369C16.0332 56.4891 15.0561 56.5313 14.4013 57.0888L14.3043 57.0135C13.4948 56.3856 12.3295 56.5329 11.7016 57.3424C11.0737 58.152 11.2209 59.3172 12.0305 59.9451L23.2127 68.6182C23.4246 68.7826 23.6608 68.8938 23.9054 68.954L24.6022 70.5701C25.0395 71.5844 26.2163 72.0522 27.2306 71.6149L28.2854 71.1601L28.5097 71.6804C28.947 72.6947 30.1238 73.1625 31.1381 72.7252L31.312 72.6502C31.5931 72.9327 32.0289 73.0304 32.417 72.8631L35.3555 71.5962C35.6242 71.4803 35.8162 71.2607 35.9048 71.0044L40.0841 69.2026C40.5912 68.984 40.8251 68.3956 40.6065 67.8884L40.3457 67.2836L40.8211 67.0787C42.3426 66.4227 43.0442 64.6576 42.3883 63.1361L42.1482 62.5794C42.9045 62.0456 43.2108 61.0383 42.8297 60.1544L38.4245 49.9366C37.9872 48.9223 36.8105 48.4545 35.7961 48.8918L32.9462 50.1205L32.471 49.0183C32.2524 48.5111 31.664 48.2772 31.1568 48.4959L27.2176 50.1942L26.9012 49.4605C26.6826 48.9533 26.0942 48.7194 25.587 48.9381L22.6485 50.205C22.4078 50.3088 22.2286 50.4958 22.1302 50.718L18.9245 43.2824C18.4872 42.2681 17.3104 41.8003 16.2961 42.2376L14.8365 42.8669Z" fill="white"/>
<path d="M35.2255 48.5484C34.4897 48.8327 33.9713 49.3149 33.6228 49.8723C32.9594 48.1554 31.0892 47.3276 29.3723 47.991C28.6365 48.2753 27.9955 48.8048 27.5718 49.5323C26.6074 48.4955 25.2193 48.1861 23.9929 48.6599C23.2571 48.9442 22.7387 49.4264 22.3902 49.9838L20.0211 43.8519C19.3577 42.135 17.4875 41.3072 15.7706 41.9706C14.0536 42.6339 13.2259 44.5042 13.8892 46.2211L18.1063 57.1359C14.8006 55.876 11.4392 55.2015 10.3857 57.5818C8.88055 60.9823 15.8793 63.775 22.5994 69.4945C27.3628 73.4328 31.998 73.7561 35.9224 72.2399C41.6864 70.0129 44.546 63.5521 42.319 57.7881L39.476 50.4298C38.8127 48.7129 36.9424 47.885 35.2255 48.5484ZM39.2921 53.6017L41.0927 58.262C42.9406 63.0449 40.4768 69.0709 35.4485 71.0137C30.7882 72.8142 27.0952 71.2813 23.5135 68.5776C15.726 62.2841 10.8706 59.9316 11.5757 58.1088C12.4035 56.2386 16.852 57.9025 20.4698 59.6055L15.1155 45.7473C14.7364 44.7662 15.2631 43.576 16.2443 43.1969C17.2254 42.8178 18.4156 43.3446 18.7947 44.3258L23.7699 57.2028L24.9963 56.7289L23.3379 52.4366C22.9588 51.4554 23.4856 50.2652 24.4667 49.8862C25.4479 49.5071 26.638 50.0339 27.0171 51.015L28.2017 54.081L29.428 53.6071L28.7173 51.7675C28.3382 50.7864 28.865 49.5962 29.8461 49.2171C30.8273 48.838 32.0174 49.3649 32.3965 50.346L33.5811 53.4119L34.8075 52.9381L34.5706 52.3249C34.1915 51.3438 34.7183 50.1536 35.6994 49.7746C36.6806 49.3955 37.8707 49.9223 38.2498 50.9034L39.2923 53.6016L39.2921 53.6017Z" fill="white"/>
</svg>
