<svg width="50" height="50" viewBox="0 0 50 50" fill="none" xmlns="http://www.w3.org/2000/svg">
<path fill-rule="evenodd" clip-rule="evenodd" d="M2.46315 1.6421C2.00969 1.6421 1.6421 2.00969 1.6421 2.46315V11.4947C1.6421 11.9481 2.00969 12.3157 2.46315 12.3157H11.4947C11.9481 12.3157 12.3157 11.9481 12.3157 11.4947V2.46315C12.3157 2.00969 11.9481 1.6421 11.4947 1.6421H7.79996V0H11.4947C12.855 0 13.9578 1.10279 13.9578 2.46315V11.4947C13.9578 12.855 12.855 13.9578 11.4947 13.9578H2.46315C1.10279 13.9578 0 12.855 0 11.4947V2.46315C0 1.10279 1.10279 0 2.46315 0H3.69472V1.6421H2.46315Z" fill="#FFF16C"/>
<path d="M10.2887 10.045C10.323 10.1305 10.3401 10.2203 10.3401 10.3144C10.3401 10.3999 10.2973 10.4897 10.2118 10.5838C10.1348 10.6779 10.0022 10.7249 9.81407 10.7249C9.63447 10.7249 9.5019 10.6266 9.41638 10.4299L8.73645 8.8006H5.15719L4.49009 10.4299C4.40456 10.6266 4.26772 10.7249 4.07956 10.7249C3.89996 10.7249 3.76739 10.6779 3.68187 10.5838C3.60489 10.4897 3.56641 10.3999 3.56641 10.3144C3.56641 10.2203 3.58351 10.1305 3.61772 10.045L6.28613 3.72036C6.40587 3.42957 6.61113 3.28418 6.90192 3.28418H7.00455C7.28678 3.28418 7.49205 3.42957 7.62033 3.72036L10.2887 10.045ZM8.37724 7.92824L6.95323 4.50292L5.52923 7.92824H8.37724Z" fill="#222831"/>
<path d="M6.56836 0.821049C6.56836 0.367596 6.93596 0 7.38941 0H8.21046C8.66391 0 9.03151 0.367596 9.03151 0.821049V0.821049C9.03151 1.2745 8.66391 1.6421 8.21046 1.6421H7.38941C6.93596 1.6421 6.56836 1.2745 6.56836 0.821049V0.821049Z" fill="#FFF16C"/>
<path d="M2.46313 0.821049C2.46313 0.367596 2.83073 0 3.28418 0H4.10523C4.55868 0 4.92628 0.367596 4.92628 0.821049V0.821049C4.92628 1.2745 4.55868 1.6421 4.10523 1.6421H3.28418C2.83073 1.6421 2.46313 1.2745 2.46313 0.821049V0.821049Z" fill="#FFF16C"/>
<rect x="15.5999" y="3.28418" width="6.56839" height="1.6421" rx="0.821049" fill="#222831"/>
<rect x="15.5999" y="5.74731" width="4.10524" height="1.6421" rx="0.821049" fill="#222831"/>
<rect x="15.5999" y="8.21051" width="2.46315" height="1.6421" rx="0.821049" fill="#222831"/>
<path fill-rule="evenodd" clip-rule="evenodd" d="M11.4946 31.1998C11.9481 31.1998 12.3157 30.8322 12.3157 30.3788L12.3157 21.3472C12.3157 20.8938 11.9481 20.5262 11.4946 20.5262L2.46308 20.5262C2.00963 20.5262 1.64204 20.8938 1.64204 21.3472L1.64203 30.3788C1.64203 30.8322 2.00963 31.1998 2.46308 31.1998L6.1578 31.1998L6.1578 32.8419L2.46308 32.8419C1.10272 32.8419 -6.27269e-05 31.7391 -6.2608e-05 30.3788L-6.18184e-05 21.3472C-6.16995e-05 19.9869 1.10273 18.8841 2.46308 18.8841L11.4946 18.8841C12.855 18.8841 13.9578 19.9869 13.9578 21.3472L13.9578 30.3788C13.9578 31.7391 12.855 32.8419 11.4946 32.8419L10.263 32.8419L10.263 31.1998L11.4946 31.1998Z" fill="#BF8FFD"/>
<path d="M7.3894 32.0209C7.3894 32.4743 7.02181 32.8419 6.56836 32.8419L5.74731 32.8419C5.29385 32.8419 4.92626 32.4743 4.92626 32.0209V32.0209C4.92626 31.5674 5.29385 31.1998 5.74731 31.1998L6.56836 31.1998C7.02181 31.1998 7.3894 31.5674 7.3894 32.0209V32.0209Z" fill="#BF8FFD"/>
<path d="M11.4946 32.0209C11.4946 32.4743 11.127 32.8419 10.6736 32.8419L9.85253 32.8419C9.39908 32.8419 9.03148 32.4743 9.03148 32.0209V32.0209C9.03148 31.5674 9.39908 31.1998 9.85253 31.1998L10.6736 31.1998C11.127 31.1998 11.4946 31.5674 11.4946 32.0209V32.0209Z" fill="#BF8FFD"/>
<path d="M15.5999 22.9894C15.5999 22.536 15.9674 22.1684 16.4209 22.1684H21.3472C21.8006 22.1684 22.1682 22.536 22.1682 22.9894V22.9894C22.1682 23.4429 21.8006 23.8105 21.3472 23.8105H16.4209C15.9674 23.8105 15.5999 23.4429 15.5999 22.9894V22.9894Z" fill="#222831"/>
<path d="M15.5999 25.4526C15.5999 24.9991 15.9674 24.6315 16.4209 24.6315H18.884C19.3375 24.6315 19.7051 24.9991 19.7051 25.4526V25.4526C19.7051 25.906 19.3375 26.2736 18.884 26.2736H16.4209C15.9674 26.2736 15.5999 25.906 15.5999 25.4526V25.4526Z" fill="#222831"/>
<path d="M15.5999 27.9158C15.5999 27.4623 15.9674 27.0947 16.4209 27.0947H17.242C17.6954 27.0947 18.063 27.4623 18.063 27.9158V27.9158C18.063 28.3692 17.6954 28.7368 17.242 28.7368H16.4209C15.9674 28.7368 15.5999 28.3692 15.5999 27.9158V27.9158Z" fill="#222831"/>
<path d="M9.57041 28.2492C9.62173 28.2236 9.6987 28.2107 9.80133 28.2107C9.90397 28.2107 9.99377 28.2535 10.0707 28.339C10.1477 28.416 10.1862 28.5058 10.1862 28.6084C10.1862 28.7966 10.105 28.9334 9.94245 29.0189C9.61745 29.2071 9.2668 29.361 8.89048 29.4808C8.52272 29.6005 8.07371 29.6604 7.54345 29.6604C7.02174 29.6604 6.53425 29.5749 6.08096 29.4038C5.63622 29.2328 5.25136 28.9847 4.92636 28.6597C4.22505 27.9755 3.87439 27.0518 3.87439 25.8887C3.87439 24.7341 4.22505 23.8104 4.92636 23.1177C5.60201 22.4506 6.47865 22.117 7.55628 22.117C8.07799 22.117 8.52272 22.1811 8.89048 22.3094C9.2668 22.4377 9.55331 22.5575 9.75002 22.6686C9.94673 22.7713 10.0665 22.8568 10.1092 22.9252C10.1605 22.9851 10.1862 23.0663 10.1862 23.169C10.1862 23.2716 10.1477 23.3657 10.0707 23.4512C9.99377 23.5282 9.90397 23.5667 9.80133 23.5667C9.70726 23.5667 9.63028 23.5538 9.57041 23.5282C9.28818 23.3742 8.99739 23.2545 8.69805 23.169C8.40726 23.0749 8.04378 23.0279 7.6076 23.0279C7.17141 23.0279 6.77372 23.1048 6.41451 23.2588C6.06385 23.4042 5.76879 23.6052 5.52932 23.8617C5.05892 24.3749 4.828 25.0505 4.83656 25.8887C4.83656 26.7269 5.06748 27.4025 5.52932 27.9157C6.04247 28.4716 6.74806 28.7495 7.64608 28.7495C8.05661 28.7495 8.40726 28.7068 8.69805 28.6212C8.99739 28.5272 9.28818 28.4032 9.57041 28.2492Z" fill="#222831"/>
<path d="M33.663 19.7051C33.663 19.2517 34.0306 18.8841 34.484 18.8841H35.3051C35.7585 18.8841 36.1261 19.2517 36.1261 19.7051V19.7051C36.1261 20.1586 35.7585 20.5262 35.3051 20.5262H34.484C34.0306 20.5262 33.663 20.1586 33.663 19.7051V19.7051Z" fill="#F77463"/>
<path d="M29.5577 19.7051C29.5577 19.2517 29.9253 18.8841 30.3788 18.8841H31.1998C31.6533 18.8841 32.0209 19.2517 32.0209 19.7051V19.7051C32.0209 20.1586 31.6533 20.5262 31.1998 20.5262H30.3788C29.9253 20.5262 29.5577 20.1586 29.5577 19.7051V19.7051Z" fill="#F77463"/>
<path fill-rule="evenodd" clip-rule="evenodd" d="M29.5576 20.5262C29.1042 20.5262 28.7366 20.8938 28.7366 21.3472V30.3788C28.7366 30.8322 29.1042 31.1998 29.5576 31.1998H38.5892C39.0426 31.1998 39.4102 30.8322 39.4102 30.3788V21.3472C39.4102 20.8938 39.0426 20.5262 38.5892 20.5262H34.8944V18.8841H38.5892C39.9495 18.8841 41.0523 19.9869 41.0523 21.3472V30.3788C41.0523 31.7391 39.9495 32.8419 38.5892 32.8419H29.5576C28.1973 32.8419 27.0945 31.7391 27.0945 30.3788V21.3472C27.0945 19.9869 28.1973 18.8841 29.5576 18.8841H30.7892V20.5262H29.5576Z" fill="#F77463"/>
<path d="M33.9836 22.2196C35.1554 22.2196 36.0876 22.613 36.7803 23.3999C37.0882 23.742 37.3149 24.1311 37.4603 24.5673C37.6142 25.0035 37.6912 25.4439 37.6912 25.8887C37.6912 26.3334 37.6142 26.7739 37.4603 27.21C37.3149 27.6462 37.0882 28.0354 36.7803 28.3775C36.0876 29.1643 35.1554 29.5577 33.9836 29.5577H31.8669C31.7386 29.5577 31.6274 29.5107 31.5333 29.4166C31.4393 29.3225 31.3922 29.2113 31.3922 29.0831V22.7071C31.3922 22.5788 31.4393 22.4676 31.5333 22.3736C31.6274 22.2709 31.7386 22.2196 31.8669 22.2196H33.9836ZM33.8682 28.6597C34.7406 28.6597 35.4419 28.4031 35.9721 27.89C36.4938 27.3768 36.7547 26.7097 36.7547 25.8887C36.7547 25.0676 36.4938 24.4005 35.9721 23.8874C35.4419 23.3742 34.7406 23.1176 33.8682 23.1176H32.3544V28.6597H33.8682Z" fill="#222831"/>
<path d="M42.6946 22.9896C42.6946 22.5361 43.0622 22.1685 43.5156 22.1685H48.4419C48.8954 22.1685 49.263 22.5361 49.263 22.9896V22.9896C49.263 23.443 48.8954 23.8106 48.4419 23.8106H43.5156C43.0622 23.8106 42.6946 23.443 42.6946 22.9896V22.9896Z" fill="#222831"/>
<path d="M42.6946 25.4528C42.6946 24.9993 43.0622 24.6317 43.5156 24.6317H45.9788C46.4322 24.6317 46.7998 24.9993 46.7998 25.4528V25.4528C46.7998 25.9062 46.4322 26.2738 45.9788 26.2738H43.5156C43.0622 26.2738 42.6946 25.9062 42.6946 25.4528V25.4528Z" fill="#222831"/>
<path d="M42.6946 27.916C42.6946 27.4625 43.0622 27.0949 43.5156 27.0949H44.3367C44.7901 27.0949 45.1577 27.4625 45.1577 27.916V27.916C45.1577 28.3694 44.7901 28.737 44.3367 28.737H43.5156C43.0622 28.737 42.6946 28.3694 42.6946 27.916V27.916Z" fill="#222831"/>
<path fill-rule="evenodd" clip-rule="evenodd" d="M29.5576 1.6421C29.1042 1.6421 28.7366 2.00969 28.7366 2.46315V11.4947C28.7366 11.9481 29.1042 12.3157 29.5576 12.3157H38.5892C39.0426 12.3157 39.4102 11.9481 39.4102 11.4947V2.46315C39.4102 2.00969 39.0426 1.6421 38.5892 1.6421H34.8944V0H38.5892C39.9495 0 41.0523 1.10279 41.0523 2.46315V11.4947C41.0523 12.855 39.9495 13.9578 38.5892 13.9578H29.5576C28.1973 13.9578 27.0945 12.855 27.0945 11.4947V2.46315C27.0945 1.10279 28.1973 0 29.5576 0H34.8944V1.6421H29.5576Z" fill="#78E08F"/>
<path d="M42.6946 4.10523C42.6946 3.65178 43.0622 3.28418 43.5156 3.28418H48.4419C48.8954 3.28418 49.263 3.65178 49.263 4.10523V4.10523C49.263 4.55868 48.8954 4.92628 48.4419 4.92628H43.5156C43.0622 4.92628 42.6946 4.55868 42.6946 4.10523V4.10523Z" fill="#222831"/>
<path d="M42.6946 6.56836C42.6946 6.11491 43.0622 5.74731 43.5156 5.74731H45.9788C46.4322 5.74731 46.7998 6.11491 46.7998 6.56836V6.56836C46.7998 7.02182 46.4322 7.38941 45.9788 7.38941H43.5156C43.0622 7.38941 42.6946 7.02182 42.6946 6.56836V6.56836Z" fill="#222831"/>
<path d="M42.6946 9.03156C42.6946 8.57811 43.0622 8.21051 43.5156 8.21051H44.3367C44.7901 8.21051 45.1577 8.57811 45.1577 9.03156V9.03156C45.1577 9.48501 44.7901 9.85261 44.3367 9.85261H43.5156C43.0622 9.85261 42.6946 9.48501 42.6946 9.03156V9.03156Z" fill="#222831"/>
<path d="M36.7034 5.24701C36.7034 6.00819 36.3613 6.54273 35.6771 6.85062C36.3442 7.07299 36.7846 7.44503 36.9984 7.96674C37.0754 8.16345 37.1139 8.39864 37.1139 8.67233C37.1139 8.93746 37.0626 9.19831 36.9599 9.45489C36.8659 9.70291 36.7119 9.921 36.4981 10.1092C36.0448 10.4855 35.3478 10.6736 34.407 10.6736H31.8669C31.7386 10.6736 31.6274 10.6266 31.5333 10.5325C31.4393 10.4384 31.3922 10.3273 31.3922 10.199V3.82301C31.3922 3.69472 31.4393 3.58354 31.5333 3.48946C31.6274 3.38683 31.7386 3.33551 31.8669 3.33551H34.3557C35.1254 3.33551 35.707 3.51511 36.1004 3.87432C36.5024 4.22498 36.7034 4.68254 36.7034 5.24701ZM35.7925 5.31116C35.7925 4.98616 35.66 4.72531 35.3948 4.5286C35.1382 4.33189 34.7662 4.23353 34.2787 4.23353H32.3544V6.50424H34.0991C35.0057 6.50424 35.5445 6.26477 35.7155 5.78583C35.7669 5.64043 35.7925 5.48221 35.7925 5.31116ZM34.3172 9.77561C35.3093 9.77561 35.9037 9.53614 36.1004 9.05719C36.1603 8.90325 36.1902 8.74075 36.1902 8.5697C36.1902 8.15062 36.032 7.847 35.7155 7.65884C35.3991 7.46214 34.9373 7.36378 34.33 7.36378H32.3544V9.77561H34.3172Z" fill="#222831"/>
<path fill-rule="evenodd" clip-rule="evenodd" d="M9.83136 26.875C8.93618 27.2609 8.52336 28.2995 8.9093 29.1947L12.4967 37.5157L10.5724 36.0232C10.1262 35.6772 9.50909 35.7038 9.09557 36.0559L9.0343 36.0084C8.523 35.6118 7.78704 35.7048 7.39048 36.2161C6.99391 36.7274 7.08692 37.4634 7.59821 37.8599L14.6607 43.3377C14.7945 43.4414 14.9437 43.5117 15.0981 43.5497L15.3395 44.1095C15.7254 45.0047 16.764 45.4175 17.6591 45.0315C17.7302 45.0009 17.7982 44.9662 17.8629 44.9278C18.2492 45.6707 19.1053 46.0357 19.9024 45.8124C20.1688 45.9716 20.5053 46.005 20.8122 45.8727L21.9914 45.3643C22.2221 45.2649 22.3962 45.089 22.4969 44.879C22.5887 44.8676 22.6804 44.8431 22.7695 44.8047L24.9778 43.8526C25.485 43.634 25.7189 43.0456 25.5002 42.5384L25.4682 42.464C26.5096 41.8022 26.966 40.486 26.5229 39.3065C26.9376 38.7519 27.0524 37.997 26.7585 37.3154L24.5598 32.2154C24.1225 31.2011 22.9457 30.7333 21.9314 31.1706L20.8081 31.6549L20.6538 31.2971C20.4352 30.79 19.8468 30.5561 19.3396 30.7747L17.19 31.7015L17.1361 31.5764C16.9174 31.0692 16.329 30.8354 15.8219 31.054L14.6426 31.5624C14.3437 31.6913 14.1397 31.9486 14.0674 32.242L12.151 27.7971C11.7651 26.9019 10.7265 26.4891 9.83136 26.875Z" fill="white"/>
<path d="M22.2476 30.662C21.7829 30.8416 21.4555 31.1461 21.2354 31.4982C20.8164 30.4138 19.6352 29.891 18.5509 30.3099C18.0861 30.4895 17.6813 30.824 17.4137 31.2834C16.8046 30.6286 15.9279 30.4332 15.1534 30.7324C14.6886 30.912 14.3612 31.2165 14.1411 31.5686L12.6448 27.6958C12.2259 26.6114 11.0447 26.0886 9.96032 26.5076C8.87594 26.9266 8.35315 28.1078 8.7721 29.1921L11.4355 36.0856C9.34774 35.29 7.22476 34.864 6.55935 36.3673C5.60876 38.5149 10.029 40.2788 14.2732 43.891C17.2817 46.3784 20.2092 46.5826 22.6877 45.625C26.3281 44.2184 28.1342 40.138 26.7277 36.4976L24.9321 31.8502C24.5132 30.7659 23.332 30.243 22.2476 30.662ZM24.8159 33.8536L25.9531 36.7969C27.1203 39.8177 25.5642 43.6235 22.3884 44.8505C19.4451 45.9877 17.1127 45.0195 14.8506 43.312C9.93216 39.3371 6.86562 37.8514 7.31098 36.7001C7.83379 35.5189 10.6433 36.5698 12.9283 37.6454L9.54657 28.8929C9.30716 28.2732 9.63984 27.5216 10.2595 27.2821C10.8792 27.0427 11.6309 27.3754 11.8703 27.9951L15.0125 36.1279L15.7871 35.8286L14.7397 33.1177C14.5002 32.498 14.833 31.7463 15.4526 31.5069C16.0723 31.2675 16.8239 31.6002 17.0634 32.2199L17.8115 34.1562L18.5861 33.857L18.1372 32.6951C17.8977 32.0755 18.2305 31.3238 18.8501 31.0844C19.4698 30.8449 20.2215 31.1777 20.4609 31.7973L21.209 33.7337L21.9836 33.4344L21.8339 33.0472C21.5945 32.4275 21.9272 31.6758 22.5469 31.4364C23.1666 31.197 23.9182 31.5297 24.1576 32.1494L24.8161 33.8535L24.8159 33.8536Z" fill="#222831"/>
</svg>
