<?xml version="1.0" standalone="no"?>
<!DOCTYPE svg PUBLIC "-//W3C//DTD SVG 20010904//EN"
 "http://www.w3.org/TR/2001/REC-SVG-20010904/DTD/svg10.dtd">
<svg version="1.0" xmlns="http://www.w3.org/2000/svg"
 width="1040.000000pt" height="1040.000000pt" viewBox="0 0 1040.000000 1040.000000"
 preserveAspectRatio="xMidYMid meet">
<metadata>
Created by potrace 1.14, written by Peter Selinger 2001-2017
</metadata>
<g transform="translate(0.000000,1040.000000) scale(0.100000,-0.100000)"
fill="#000000" stroke="none">
<path d="M3749 9416 c-25 -25 -26 -31 -25 -131 1 -64 -3 -105 -9 -105 -7 0 -7
-3 0 -8 9 -6 13 -158 5 -187 -1 -5 -1 -14 0 -20 7 -30 4 -101 -5 -107 -7 -5
-7 -8 0 -8 9 0 13 -312 5 -345 -1 -5 -1 -14 0 -20 7 -30 4 -101 -5 -107 -7 -5
-6 -8 0 -8 13 0 10 -161 -3 -169 -7 -5 -50 -148 -103 -341 -12 -43 -8 -28 -69
-245 -29 -99 -53 -187 -56 -195 -2 -8 -22 -78 -44 -154 -22 -76 -42 -147 -43
-156 -7 -46 -8 -46 -361 -45 l-336 1 -27 -35 c-16 -19 -33 -39 -38 -45 -10
-11 -147 -173 -217 -257 -56 -67 -101 -120 -126 -148 -13 -14 -31 -38 -40 -53
-9 -16 -21 -28 -27 -28 -6 0 -18 -12 -27 -27 -9 -16 -25 -37 -35 -48 -10 -11
-41 -47 -68 -80 -28 -33 -52 -62 -56 -65 -3 -3 -54 -63 -113 -135 -59 -71
-129 -154 -154 -184 -61 -70 -68 -79 -212 -251 -266 -316 -272 -324 -320 -380
-21 -25 -65 -76 -97 -115 -76 -91 -105 -125 -123 -145 -8 -9 -31 -36 -51 -60
-20 -25 -45 -55 -55 -67 -11 -12 -26 -30 -34 -40 -17 -21 -105 -125 -137 -163
-79 -93 -214 -254 -248 -295 -22 -27 -47 -56 -55 -65 -8 -8 -58 -67 -110 -130
-52 -63 -97 -117 -100 -120 -3 -3 -28 -32 -55 -65 -28 -33 -61 -73 -75 -89
-14 -17 -37 -43 -53 -59 -40 -42 -50 -65 -43 -101 9 -48 45 -63 141 -60 44 1
181 5 305 9 124 3 277 8 340 10 63 2 214 6 335 10 121 3 276 8 345 10 173 6
477 15 650 20 339 9 581 17 675 21 55 2 107 4 115 4 49 0 146 2 220 5 100 4
546 17 639 19 l65 1 39 -105 c21 -58 54 -144 73 -193 19 -48 34 -93 34 -100 0
-6 6 -24 14 -39 8 -15 24 -56 36 -90 12 -35 25 -72 30 -83 18 -44 55 -141 56
-150 1 -5 14 -41 29 -80 31 -81 85 -225 89 -240 2 -5 6 -17 9 -25 15 -38 96
-257 101 -275 7 -24 6 -26 -282 -333 -17 -19 -65 -71 -105 -114 -39 -44 -85
-94 -102 -112 -84 -89 -125 -139 -126 -154 -4 -44 2 -67 23 -86 21 -20 32 -20
377 -21 l356 0 125 -100 c69 -55 127 -102 130 -105 3 -3 37 -30 75 -60 39 -30
75 -58 80 -62 6 -4 30 -26 55 -48 25 -22 48 -40 52 -40 4 0 17 -10 30 -22 13
-13 41 -36 63 -53 22 -16 49 -38 60 -48 46 -44 75 -56 109 -44 17 6 43 22 57
36 14 14 70 67 124 116 54 50 113 104 131 120 17 17 76 71 129 120 54 50 119
109 144 133 25 24 55 47 66 51 11 4 166 6 345 5 195 -1 338 2 358 8 38 11 67
61 51 89 -4 9 -6 18 -4 21 2 2 -14 24 -36 48 -54 59 -131 143 -243 264 -50 54
-122 132 -161 174 -38 42 -94 101 -122 132 -29 30 -53 61 -53 68 0 7 18 61 40
120 23 59 43 114 45 122 5 19 63 176 80 215 11 25 25 66 30 85 1 3 7 19 14 35
6 17 23 62 37 100 14 39 29 79 34 90 12 29 23 58 25 70 2 6 26 71 54 146 28
74 51 141 51 147 0 7 4 12 8 12 5 0 9 6 9 13 0 7 13 46 29 87 15 41 29 77 29
80 1 3 6 21 13 40 12 36 12 36 70 34 31 -1 149 -5 262 -9 113 -3 266 -8 340
-10 194 -7 502 -16 668 -19 78 -2 145 -6 148 -9 3 -3 16 -2 29 3 13 5 25 6 28
3 3 -3 70 -7 149 -9 79 -2 220 -6 313 -9 94 -3 247 -8 340 -10 94 -3 242 -7
330 -10 88 -2 248 -7 355 -10 107 -4 256 -8 330 -10 74 -3 202 -6 284 -9 l149
-4 29 29 c43 42 33 77 -44 160 -18 20 -51 57 -73 84 -71 87 -401 478 -420 499
-6 6 -30 36 -55 66 -25 30 -59 71 -77 90 -17 19 -42 49 -54 65 -13 17 -26 32
-29 35 -3 3 -52 61 -110 130 -57 69 -117 139 -132 155 -15 17 -28 33 -28 37 0
4 -10 17 -23 30 -13 13 -59 66 -103 118 -43 52 -81 97 -84 100 -4 4 -163 193
-230 273 -8 10 -23 28 -33 40 -11 12 -33 39 -50 61 -18 21 -41 48 -52 60 -11
11 -38 43 -60 71 -22 27 -49 59 -60 71 -11 12 -27 30 -35 40 -18 23 -170 204
-185 220 -5 7 -26 31 -45 55 -31 38 -165 196 -254 300 -17 20 -47 56 -66 79
-19 24 -39 48 -45 54 -5 6 -57 67 -115 136 -58 69 -112 133 -121 143 -10 11
-34 40 -55 66 l-38 47 -333 -1 c-184 0 -338 2 -343 5 -7 4 -53 146 -65 201 -2
9 -33 119 -69 245 -37 126 -68 239 -71 252 -2 12 -6 26 -9 30 -2 4 -14 41 -25
82 -35 130 -92 324 -99 335 -4 5 -7 273 -7 594 l-1 583 -27 24 c-33 28 -77 31
-100 7 -9 -10 -35 -38 -57 -63 -36 -39 -185 -195 -450 -470 -225 -234 -446
-463 -526 -546 l-90 -95 -224 -1 -224 0 -105 109 c-92 95 -428 443 -591 613
-271 281 -401 419 -417 438 -10 12 -34 25 -53 28 -29 5 -40 1 -61 -20z m230
-365 c47 -49 167 -174 266 -277 99 -103 200 -208 225 -234 283 -290 282 -290
253 -290 -15 0 -209 -1 -430 -1 l-402 -1 -3 -41 c-2 -23 -3 177 -3 446 -1 268
1 487 4 487 2 0 43 -40 90 -89z m2536 -371 c-1 -252 -4 -462 -8 -466 -3 -4 -5
3 -2 14 4 20 2 20 -422 20 -233 0 -426 2 -428 4 -2 2 55 64 127 138 202 210
337 351 537 558 101 106 187 192 190 192 3 0 6 -207 6 -460z m1 -495 c-1 -8
-5 -17 -8 -21 -5 -4 -4 16 1 34 3 9 9 -1 7 -13z m-1824 -316 c-123 -120 -226
-219 -230 -219 -6 0 -80 65 -217 189 -22 20 -91 81 -152 136 -62 54 -113 102
-113 106 0 3 210 7 467 7 l468 0 -223 -219z m759 24 c107 -105 232 -228 278
-273 l84 -82 -49 -45 c-27 -24 -78 -70 -114 -101 -35 -31 -85 -75 -110 -98
-25 -22 -58 -52 -73 -64 -15 -13 -44 -39 -65 -58 -20 -19 -63 -58 -96 -86 -32
-28 -69 -61 -82 -73 -26 -24 -31 -22 -83 28 -9 9 -43 40 -76 69 -33 29 -94 84
-136 121 -41 38 -86 78 -100 89 -43 38 -151 134 -198 177 l-46 43 279 273 279
273 57 -1 57 0 194 -192z m969 187 c0 -3 -21 -25 -47 -47 -71 -61 -93 -80
-144 -126 -25 -23 -71 -64 -102 -91 -32 -28 -71 -61 -86 -75 -15 -14 -44 -41
-64 -59 -21 -19 -41 -32 -46 -30 -10 3 -441 426 -441 432 0 1 209 3 465 3 256
0 465 -3 465 -7z m-2530 -140 c25 -21 108 -96 218 -195 30 -27 64 -58 76 -68
11 -10 47 -41 79 -69 32 -29 66 -59 76 -67 36 -32 165 -147 191 -171 15 -14
56 -50 90 -80 35 -30 83 -73 108 -95 l44 -41 -23 -17 c-78 -57 -402 -277 -409
-277 -5 0 -10 -4 -12 -9 -1 -4 -28 -24 -58 -44 -30 -20 -149 -101 -265 -181
-115 -79 -282 -193 -370 -253 -88 -59 -162 -110 -165 -113 -18 -20 -188 -127
-185 -117 11 35 49 164 51 178 2 9 15 52 28 95 14 44 27 90 29 104 3 14 12 48
22 76 9 28 18 60 20 70 2 10 4 19 5 19 1 0 3 7 5 16 1 8 14 53 28 100 26 86
155 535 162 567 3 9 23 80 46 157 22 77 44 154 49 170 23 86 82 291 86 297 3
4 15 -1 27 -12 12 -10 33 -28 47 -40z m2721 -46 c12 -43 22 -83 24 -89 1 -5 5
-17 8 -25 6 -14 53 -176 61 -210 2 -9 23 -82 46 -164 23 -82 43 -154 45 -160
1 -6 5 -18 8 -26 8 -20 56 -188 63 -220 3 -14 14 -52 25 -84 10 -33 19 -67 19
-77 0 -10 5 -21 11 -24 6 -4 8 -13 5 -20 -2 -7 -2 -16 2 -19 3 -4 7 -12 9 -19
5 -23 21 -82 73 -262 29 -99 53 -184 54 -190 5 -22 29 -101 38 -128 6 -15 8
-30 5 -33 -6 -6 -260 165 -265 178 -2 4 -8 8 -13 8 -6 0 -34 18 -64 40 -30 22
-58 40 -64 40 -5 0 -11 4 -13 8 -1 4 -82 61 -178 127 -96 65 -176 122 -178
127 -2 4 -7 8 -12 8 -6 0 -667 447 -690 467 -6 5 62 69 305 283 33 29 93 83
134 119 41 36 90 80 109 96 18 17 51 46 72 66 21 20 53 48 72 64 47 39 151
132 206 183 53 49 52 50 83 -64z m-1633 -921 c42 -38 82 -73 89 -80 16 -15 11
-98 -11 -182 -10 -35 -19 -76 -21 -90 -3 -14 -12 -57 -21 -96 -8 -38 -18 -81
-20 -95 -3 -14 -7 -33 -10 -42 -3 -10 -8 -30 -10 -45 -5 -25 -15 -74 -30 -138
-5 -19 -8 -35 -18 -87 -3 -13 -16 -72 -30 -133 -14 -60 -27 -121 -30 -135 -2
-14 -5 -25 -6 -25 -2 0 -8 -30 -15 -70 -2 -16 -9 -48 -15 -70 -9 -34 -81 -361
-94 -427 -3 -13 -14 -66 -26 -118 -12 -52 -23 -104 -25 -115 -2 -11 -10 -49
-19 -85 -8 -36 -18 -80 -21 -99 -3 -19 -7 -37 -9 -40 -2 -3 -7 -22 -10 -41 -3
-19 -10 -50 -15 -69 -6 -18 -10 -36 -9 -40 0 -3 0 -8 -2 -11 -1 -3 -3 -14 -5
-25 -3 -11 -16 -72 -30 -135 -15 -63 -29 -126 -31 -140 -3 -14 -12 -54 -20
-90 -9 -36 -18 -76 -20 -90 -2 -14 -7 -36 -10 -50 -9 -38 -15 -63 -19 -85 -3
-11 -18 -81 -35 -155 -17 -74 -33 -146 -35 -160 -2 -14 -11 -56 -20 -95 -9
-38 -19 -81 -22 -95 -2 -14 -9 -45 -14 -70 -6 -25 -13 -54 -15 -65 -2 -11 -15
-67 -28 -125 l-23 -105 -22 48 c-11 27 -21 52 -21 57 0 4 -13 41 -29 81 -16
41 -43 115 -61 164 -18 50 -36 99 -41 110 -5 11 -38 101 -74 200 -36 99 -72
195 -80 213 -8 18 -15 36 -15 41 0 5 -7 25 -15 45 -8 20 -15 38 -15 41 0 3 -7
19 -15 35 -9 17 -13 30 -11 30 3 0 -6 25 -19 55 -14 30 -25 57 -25 60 -1 7 -4
14 -55 150 -25 66 -47 125 -49 130 -6 24 -29 91 -35 100 -3 6 -7 15 -8 20 -6
26 -173 472 -182 487 -6 10 -11 23 -11 29 0 6 -32 95 -71 197 -39 103 -73 196
-76 207 -2 11 -9 29 -14 40 -4 11 -25 64 -44 118 l-37 98 24 19 c13 11 31 22
41 25 9 4 17 11 17 16 0 5 4 9 10 9 8 0 96 56 110 70 3 3 32 23 65 45 33 22
65 45 72 50 6 6 68 48 137 95 161 109 378 257 391 267 6 5 28 20 50 33 22 13
42 27 45 30 3 4 68 49 145 101 77 52 142 96 145 99 3 3 25 19 50 35 25 17 101
69 170 115 69 47 127 88 130 91 5 6 43 28 49 29 1 0 37 -30 79 -67z m559 45
c15 -13 36 -27 45 -33 43 -26 285 -192 302 -207 11 -10 23 -18 27 -18 4 0 14
-6 21 -12 7 -7 63 -46 123 -87 61 -41 144 -98 185 -126 41 -29 93 -64 115 -78
22 -15 45 -30 50 -35 6 -4 53 -37 105 -72 52 -35 97 -67 98 -72 2 -4 8 -8 13
-8 5 0 39 -22 76 -48 61 -43 310 -214 367 -252 13 -8 36 -24 52 -34 16 -11 30
-20 31 -21 3 -1 -142 -399 -237 -650 -23 -60 -43 -114 -44 -120 -2 -5 -8 -23
-15 -40 -6 -16 -16 -41 -21 -55 -5 -14 -43 -117 -85 -230 -85 -230 -84 -228
-85 -235 0 -3 -10 -26 -21 -52 -12 -27 -22 -55 -24 -63 -5 -19 -153 -419 -165
-445 -13 -29 -61 -166 -67 -192 -3 -13 -9 -23 -12 -23 -4 0 -8 -6 -8 -12 0 -7
-15 -51 -32 -98 -41 -106 -122 -325 -193 -519 -12 -34 -18 -24 -33 54 -4 22
-5 27 -36 163 -23 102 -22 100 -34 157 -4 22 -14 65 -21 95 -8 30 -17 71 -20
90 -3 19 -12 60 -19 90 -8 30 -16 66 -19 80 -6 30 -42 198 -101 465 -24 110
-46 211 -49 225 -2 14 -11 52 -19 85 -8 33 -18 78 -23 100 -4 22 -8 45 -10 50
-3 13 -33 146 -46 205 -5 25 -11 54 -13 65 -2 11 -10 49 -19 85 -8 36 -18 80
-21 99 -3 19 -8 37 -10 41 -2 4 -7 20 -9 36 -3 16 -8 39 -11 52 -18 80 -19 85
-50 232 -2 14 -8 39 -12 55 -4 17 -7 32 -8 35 0 3 -6 28 -13 55 -6 28 -14 61
-16 75 -3 14 -15 68 -26 120 -12 52 -23 106 -26 120 -3 14 -7 33 -10 42 -3 9
-7 27 -9 40 -8 40 -45 209 -65 292 -10 44 -17 83 -14 88 3 4 1 8 -3 8 -5 0 -9
8 -10 18 0 9 -11 62 -23 117 -32 145 -32 154 5 190 52 51 150 135 157 135 3 0
19 -10 35 -22z m-2207 -123 c0 -6 -9 -42 -21 -80 -19 -66 -22 -78 -33 -122 -3
-10 -21 -74 -41 -143 -20 -69 -38 -132 -40 -140 -8 -30 -46 -165 -51 -180 -6
-17 -25 25 -79 175 -20 55 -49 134 -65 175 -84 223 -117 316 -115 320 6 10
445 5 445 -5z m4180 0 c0 -11 -7 -31 -135 -375 -49 -129 -92 -250 -97 -269 -5
-18 -13 -29 -18 -25 -8 9 -157 514 -166 564 -2 14 -11 43 -18 65 -8 22 -13 42
-11 45 6 10 445 5 445 -5z m-4770 -70 c0 -8 6 -29 14 -47 8 -18 23 -58 34 -88
11 -30 23 -64 28 -75 4 -11 8 -24 10 -30 2 -5 42 -113 89 -240 48 -126 88
-234 89 -240 2 -5 7 -21 13 -35 6 -14 25 -65 43 -115 18 -49 37 -101 43 -115
6 -14 11 -29 13 -35 5 -22 96 -261 105 -277 5 -10 9 -24 9 -32 0 -7 7 -27 15
-42 23 -45 18 -59 -27 -79 -24 -10 -89 -40 -146 -67 -57 -26 -105 -48 -107
-48 -2 0 -47 -21 -101 -46 -55 -26 -117 -54 -139 -64 -22 -10 -80 -37 -128
-60 -124 -58 -201 -93 -207 -95 -3 -1 -23 -10 -45 -20 -22 -10 -42 -19 -45
-20 -3 0 -49 -22 -103 -48 -54 -26 -100 -47 -102 -47 -2 0 -50 -22 -107 -49
-99 -47 -177 -83 -188 -86 -3 0 -36 -16 -74 -33 -38 -18 -73 -32 -77 -32 -5 0
-9 -5 -9 -10 0 -6 -3 -9 -7 -8 -5 1 -21 -4 -36 -10 -16 -7 -33 -12 -38 -12 -5
0 -9 -5 -9 -10 0 -6 -3 -9 -7 -8 -5 1 -33 -9 -63 -24 -30 -14 -104 -48 -165
-76 -60 -28 -144 -66 -185 -85 -165 -76 -234 -107 -250 -112 -3 -1 -45 -21
-95 -44 -117 -56 -217 -103 -280 -131 -27 -12 -63 -28 -79 -36 -26 -12 -27
-12 -15 4 8 9 19 22 24 28 41 46 76 87 114 134 25 30 47 57 50 60 5 4 56 65
123 145 41 50 152 181 164 195 13 14 73 85 119 141 47 56 274 326 291 346 11
12 26 30 34 40 15 18 95 114 136 163 59 70 150 177 161 190 7 8 23 27 35 42
13 14 39 45 57 68 19 24 40 48 46 54 5 6 30 36 55 66 25 30 48 57 51 60 5 4
62 72 129 154 8 10 26 31 40 46 14 15 32 36 40 47 42 52 107 129 120 143 8 9
29 33 45 54 17 22 37 46 46 55 8 9 87 102 174 206 87 105 162 192 165 195 3 3
22 26 42 52 19 26 38 45 42 41 3 -3 6 -1 6 5 0 7 5 12 10 12 6 0 10 -7 10 -15z
m4962 -17 c14 -18 38 -47 54 -65 16 -17 43 -48 59 -69 17 -20 35 -42 40 -48 6
-6 32 -38 60 -71 27 -33 52 -62 55 -65 3 -3 28 -32 55 -65 28 -33 55 -65 60
-71 6 -6 24 -28 40 -49 17 -20 35 -43 42 -49 6 -7 35 -42 64 -77 29 -35 56
-66 59 -69 3 -3 37 -43 75 -90 38 -47 76 -91 83 -98 7 -8 67 -80 135 -160 67
-81 129 -154 137 -162 8 -9 24 -28 35 -42 11 -14 39 -47 61 -74 36 -42 160
-189 328 -388 71 -85 167 -199 211 -251 24 -27 154 -183 290 -345 137 -162
262 -311 279 -331 78 -91 78 -91 2 -55 -28 13 -78 36 -111 51 -33 15 -89 41
-125 58 -36 17 -67 31 -70 32 -8 2 -68 29 -140 63 -36 17 -94 44 -130 60 -36
17 -101 47 -145 67 -44 21 -98 45 -120 55 -38 16 -74 33 -253 116 -40 19 -77
34 -82 34 -6 0 -10 5 -10 12 0 6 -3 8 -6 5 -4 -4 -28 4 -53 17 -25 13 -68 34
-96 46 -27 13 -84 38 -125 57 -41 19 -99 46 -130 60 -30 14 -82 38 -115 53
-33 16 -100 46 -150 68 -108 48 -276 126 -327 152 -21 11 -38 17 -38 14 0 -4
-6 -2 -12 4 -7 5 -65 33 -128 62 -63 29 -142 65 -175 80 -33 15 -96 44 -140
64 -103 46 -111 51 -107 68 4 17 110 307 122 333 5 11 18 47 30 80 11 33 24
69 29 80 9 20 109 291 115 310 2 6 6 19 11 30 63 166 80 211 80 215 0 6 33 96
45 125 5 11 20 52 34 90 14 39 31 84 37 100 14 33 16 40 18 55 2 19 19 10 43
-22z m-2496 -231 c2 -7 5 -23 8 -37 3 -14 8 -36 11 -50 7 -32 10 -45 35 -155
11 -49 22 -104 25 -122 3 -17 9 -42 14 -55 4 -13 7 -31 6 -40 -2 -10 0 -18 4
-18 4 0 7 -8 8 -17 0 -10 6 -40 12 -68 6 -27 14 -63 17 -80 7 -35 9 -42 17
-75 4 -14 9 -36 12 -50 2 -14 10 -47 15 -75 6 -27 13 -61 16 -75 3 -14 9 -41
14 -60 5 -19 11 -46 13 -60 3 -14 10 -44 16 -68 7 -24 14 -55 16 -70 5 -32 12
-67 19 -90 3 -9 7 -28 10 -42 3 -14 7 -36 11 -50 3 -14 7 -34 9 -45 2 -11 9
-40 15 -65 5 -25 12 -56 15 -70 3 -14 12 -54 20 -90 8 -36 28 -128 44 -205 17
-77 36 -162 42 -190 6 -27 13 -59 15 -70 3 -11 9 -38 14 -60 12 -46 68 -308
75 -345 2 -14 6 -32 8 -40 3 -13 -65 -15 -564 -15 l-566 0 3 25 c2 14 4 25 5
25 2 0 5 15 13 60 3 17 8 39 11 50 9 40 25 111 30 135 9 45 15 71 20 88 3 9 8
33 11 52 3 19 10 51 15 70 5 19 11 46 14 60 2 14 12 57 20 95 9 39 18 79 20
90 2 11 9 43 16 70 6 28 13 57 15 65 13 72 21 107 25 115 4 7 5 16 14 65 4 25
11 59 16 75 5 17 11 44 14 60 2 17 5 32 6 35 1 3 2 8 2 11 -1 4 3 22 9 40 6
19 12 45 15 59 2 14 7 36 10 50 3 14 8 36 10 50 3 14 9 41 14 60 5 19 11 46
14 60 3 14 7 36 11 50 7 35 13 61 19 90 12 54 30 135 31 140 1 3 5 23 9 45 5
22 19 87 33 145 13 58 26 116 29 130 3 14 7 33 10 42 3 10 7 28 9 40 2 13 6
34 8 48 3 14 10 44 16 68 7 24 14 55 16 70 3 15 6 34 8 42 2 8 8 34 12 58 7
40 16 48 21 19z m-1867 -1374 c7 -21 16 -47 21 -58 14 -33 101 -269 105 -285
4 -13 94 -256 112 -300 3 -8 7 -19 9 -25 1 -5 42 -113 89 -240 48 -126 88
-239 89 -250 1 -17 -6 -20 -49 -22 -52 -1 -399 -12 -610 -18 -66 -2 -210 -6
-320 -10 -110 -3 -263 -7 -340 -10 -153 -5 -464 -14 -700 -20 -82 -2 -222 -7
-310 -10 -184 -6 -380 -12 -685 -20 -118 -4 -229 -8 -247 -10 -53 -6 -45 9 18
35 32 14 59 28 59 31 0 3 6 6 13 6 6 0 50 18 97 41 47 22 112 52 145 67 137
62 285 130 365 168 104 48 173 80 180 81 3 1 30 13 60 28 93 44 270 127 278
129 4 1 36 16 72 33 36 16 67 31 70 31 6 2 105 47 176 81 28 13 56 24 62 24 7
0 12 4 12 8 0 4 17 14 37 21 34 13 115 49 273 123 36 17 92 43 125 58 33 15
92 42 130 60 39 17 93 42 120 55 81 36 145 66 230 105 44 21 100 47 125 58 25
11 70 32 100 46 30 14 60 26 65 26 6 0 17 -17 24 -37z m3838 -4 c48 -22 108
-50 133 -61 25 -11 87 -40 139 -64 51 -24 95 -44 96 -44 2 0 51 -22 110 -50
59 -27 111 -50 116 -50 5 0 9 -5 9 -12 0 -6 3 -8 6 -5 4 4 19 0 33 -8 14 -8
58 -29 96 -46 39 -17 90 -41 115 -52 25 -11 47 -21 50 -22 3 -1 49 -22 103
-48 55 -26 100 -47 102 -47 2 0 47 -21 102 -46 54 -25 116 -54 138 -64 22 -10
99 -45 170 -78 72 -33 157 -72 190 -87 112 -51 170 -77 255 -117 47 -22 103
-48 125 -58 51 -23 139 -63 235 -108 41 -19 154 -70 250 -114 96 -44 179 -83
183 -87 5 -5 -16 -7 -45 -5 -29 1 -154 6 -278 9 -124 3 -281 8 -350 10 -157 5
-398 13 -980 29 -183 6 -357 11 -705 22 -99 3 -236 7 -305 9 -69 2 -231 6
-360 10 -129 4 -247 7 -262 8 -16 0 -28 1 -28 1 0 1 23 60 51 131 27 72 52
137 54 145 5 20 53 150 64 175 11 25 115 306 118 320 3 14 141 384 156 418 7
15 15 27 19 27 4 0 46 -18 95 -41z m-1377 -1346 c4 -4 18 -55 30 -113 12 -58
24 -113 26 -122 11 -51 15 -65 18 -83 2 -11 10 -42 16 -70 7 -27 14 -59 15
-70 2 -11 8 -40 15 -65 7 -25 14 -54 15 -65 2 -11 17 -85 35 -165 37 -173 36
-168 45 -203 6 -22 -7 -68 -55 -200 -35 -95 -67 -176 -72 -181 -4 -6 -283 -10
-692 -12 l-685 -1 -10 26 c-14 35 -55 145 -56 151 -1 3 -5 14 -10 25 -58 146
-61 158 -48 215 7 30 15 69 18 85 5 27 19 87 31 138 7 29 23 104 29 135 2 13
6 31 9 40 3 9 8 32 11 51 3 19 7 37 9 40 2 3 7 22 10 41 3 19 10 50 15 68 5
17 8 32 6 32 -3 0 -1 10 4 23 5 13 12 41 16 63 4 21 8 44 9 49 2 8 17 76 21
95 5 27 18 76 20 80 5 9 1197 2 1205 -7z m152 -1529 c13 -11 51 -52 86 -90
100 -109 200 -218 289 -312 45 -48 79 -89 76 -92 -6 -6 -672 -7 -681 0 -4 3
-21 25 -37 50 -17 25 -33 50 -38 55 -23 30 -57 87 -57 95 0 6 -4 10 -10 10 -5
0 -10 7 -10 15 0 8 -4 15 -10 15 -5 0 -10 7 -10 15 0 8 -4 15 -8 15 -5 0 -17
16 -27 34 l-19 35 -297 -2 c-164 -1 -300 -5 -302 -7 -2 -3 -50 -75 -107 -160
-56 -85 -108 -159 -115 -165 -9 -8 -585 -13 -682 -6 -7 1 4 18 25 39 20 21 84
90 142 152 58 63 128 139 157 170 28 30 71 76 95 102 33 36 51 48 78 50 19 2
351 3 737 3 697 0 702 0 725 -21z m-481 -414 c35 -52 65 -97 68 -100 8 -7 29
-41 38 -60 7 -15 16 -27 39 -53 6 -7 16 -22 22 -33 12 -23 22 -13 -213 -229
-154 -142 -180 -165 -185 -165 -5 0 -116 86 -171 133 -14 12 -91 74 -171 137
l-145 115 117 175 117 175 211 0 210 0 63 -95z"/>
</g>
</svg>
