<svg width="385" height="136" viewBox="0 0 385 136" fill="none" xmlns="http://www.w3.org/2000/svg">
<g filter="url(#filter0_d_183_21)">
<rect x="8" y="6" width="369" height="120" rx="8" fill="white"/>
</g>
<path d="M216.848 64.316L213.338 74H210.638L208.46 67.988L206.21 74H203.51L200.018 64.316H202.664L204.95 70.868L207.326 64.316H209.702L212.006 70.868L214.364 64.316H216.848ZM221.743 64.172C223.243 64.172 224.395 64.532 225.199 65.252C226.003 65.96 226.405 67.034 226.405 68.474V74H223.777V72.794C223.249 73.694 222.265 74.144 220.825 74.144C220.081 74.144 219.433 74.018 218.881 73.766C218.341 73.514 217.927 73.166 217.639 72.722C217.351 72.278 217.207 71.774 217.207 71.21C217.207 70.31 217.543 69.602 218.215 69.086C218.899 68.57 219.949 68.312 221.365 68.312H223.597C223.597 67.7 223.411 67.232 223.039 66.908C222.667 66.572 222.109 66.404 221.365 66.404C220.849 66.404 220.339 66.488 219.835 66.656C219.343 66.812 218.923 67.028 218.575 67.304L217.567 65.342C218.095 64.97 218.725 64.682 219.457 64.478C220.201 64.274 220.963 64.172 221.743 64.172ZM221.527 72.254C222.007 72.254 222.433 72.146 222.805 71.93C223.177 71.702 223.441 71.372 223.597 70.94V69.95H221.671C220.519 69.95 219.943 70.328 219.943 71.084C219.943 71.444 220.081 71.732 220.357 71.948C220.645 72.152 221.035 72.254 221.527 72.254ZM232.204 74.144C231.4 74.144 230.614 74.048 229.846 73.856C229.078 73.652 228.466 73.4 228.01 73.1L228.946 71.084C229.378 71.36 229.9 71.588 230.512 71.768C231.124 71.936 231.724 72.02 232.312 72.02C233.5 72.02 234.094 71.726 234.094 71.138C234.094 70.862 233.932 70.664 233.608 70.544C233.284 70.424 232.786 70.322 232.114 70.238C231.322 70.118 230.668 69.98 230.152 69.824C229.636 69.668 229.186 69.392 228.802 68.996C228.43 68.6 228.244 68.036 228.244 67.304C228.244 66.692 228.418 66.152 228.766 65.684C229.126 65.204 229.642 64.832 230.314 64.568C230.998 64.304 231.802 64.172 232.726 64.172C233.41 64.172 234.088 64.25 234.76 64.406C235.444 64.55 236.008 64.754 236.452 65.018L235.516 67.016C234.664 66.536 233.734 66.296 232.726 66.296C232.126 66.296 231.676 66.38 231.376 66.548C231.076 66.716 230.926 66.932 230.926 67.196C230.926 67.496 231.088 67.706 231.412 67.826C231.736 67.946 232.252 68.06 232.96 68.168C233.752 68.3 234.4 68.444 234.904 68.6C235.408 68.744 235.846 69.014 236.218 69.41C236.59 69.806 236.776 70.358 236.776 71.066C236.776 71.666 236.596 72.2 236.236 72.668C235.876 73.136 235.348 73.502 234.652 73.766C233.968 74.018 233.152 74.144 232.204 74.144ZM245.875 77.492C245.155 76.4 244.597 75.134 244.201 73.694C243.817 72.254 243.625 70.712 243.625 69.068C243.625 67.424 243.817 65.882 244.201 64.442C244.597 62.99 245.155 61.724 245.875 60.644H248.557C247.801 61.976 247.249 63.332 246.901 64.712C246.553 66.08 246.379 67.532 246.379 69.068C246.379 70.604 246.553 72.062 246.901 73.442C247.249 74.81 247.801 76.16 248.557 77.492H245.875ZM265.592 64.316L262.082 74H259.382L257.204 67.988L254.954 74H252.254L248.762 64.316H251.408L253.694 70.868L256.07 64.316H258.446L260.75 70.868L263.108 64.316H265.592ZM270.487 64.172C271.987 64.172 273.139 64.532 273.943 65.252C274.747 65.96 275.149 67.034 275.149 68.474V74H272.521V72.794C271.993 73.694 271.009 74.144 269.569 74.144C268.825 74.144 268.177 74.018 267.625 73.766C267.085 73.514 266.671 73.166 266.383 72.722C266.095 72.278 265.951 71.774 265.951 71.21C265.951 70.31 266.287 69.602 266.959 69.086C267.643 68.57 268.693 68.312 270.109 68.312H272.341C272.341 67.7 272.155 67.232 271.783 66.908C271.411 66.572 270.853 66.404 270.109 66.404C269.593 66.404 269.083 66.488 268.579 66.656C268.087 66.812 267.667 67.028 267.319 67.304L266.311 65.342C266.839 64.97 267.469 64.682 268.201 64.478C268.945 64.274 269.707 64.172 270.487 64.172ZM270.271 72.254C270.751 72.254 271.177 72.146 271.549 71.93C271.921 71.702 272.185 71.372 272.341 70.94V69.95H270.415C269.263 69.95 268.687 70.328 268.687 71.084C268.687 71.444 268.825 71.732 269.101 71.948C269.389 72.152 269.779 72.254 270.271 72.254ZM280.949 74.144C280.145 74.144 279.359 74.048 278.591 73.856C277.823 73.652 277.211 73.4 276.755 73.1L277.691 71.084C278.123 71.36 278.645 71.588 279.257 71.768C279.869 71.936 280.469 72.02 281.057 72.02C282.245 72.02 282.839 71.726 282.839 71.138C282.839 70.862 282.677 70.664 282.353 70.544C282.029 70.424 281.531 70.322 280.859 70.238C280.067 70.118 279.413 69.98 278.897 69.824C278.381 69.668 277.931 69.392 277.547 68.996C277.175 68.6 276.989 68.036 276.989 67.304C276.989 66.692 277.163 66.152 277.511 65.684C277.871 65.204 278.387 64.832 279.059 64.568C279.743 64.304 280.547 64.172 281.471 64.172C282.155 64.172 282.833 64.25 283.505 64.406C284.189 64.55 284.753 64.754 285.197 65.018L284.261 67.016C283.409 66.536 282.479 66.296 281.471 66.296C280.871 66.296 280.421 66.38 280.121 66.548C279.821 66.716 279.671 66.932 279.671 67.196C279.671 67.496 279.833 67.706 280.157 67.826C280.481 67.946 280.997 68.06 281.705 68.168C282.497 68.3 283.145 68.444 283.649 68.6C284.153 68.744 284.591 69.014 284.963 69.41C285.335 69.806 285.521 70.358 285.521 71.066C285.521 71.666 285.341 72.2 284.981 72.668C284.621 73.136 284.093 73.502 283.397 73.766C282.713 74.018 281.897 74.144 280.949 74.144ZM293.139 64.172C294.339 64.172 295.305 64.532 296.037 65.252C296.781 65.972 297.153 67.04 297.153 68.456V74H294.345V68.888C294.345 68.12 294.177 67.55 293.841 67.178C293.505 66.794 293.019 66.602 292.383 66.602C291.675 66.602 291.111 66.824 290.691 67.268C290.271 67.7 290.061 68.348 290.061 69.212V74H287.253V64.316H289.935V65.45C290.307 65.042 290.769 64.73 291.321 64.514C291.873 64.286 292.479 64.172 293.139 64.172ZM299.986 60.482H303.01L305.44 63.074H303.244L299.986 60.482ZM316.737 73.532C316.461 73.736 316.119 73.892 315.711 74C315.315 74.096 314.895 74.144 314.451 74.144C313.299 74.144 312.405 73.85 311.769 73.262C311.145 72.674 310.833 71.81 310.833 70.67V66.692H309.339V64.532H310.833V62.174H313.641V64.532H316.053V66.692H313.641V70.634C313.641 71.042 313.743 71.36 313.947 71.588C314.163 71.804 314.463 71.912 314.847 71.912C315.291 71.912 315.669 71.792 315.981 71.552L316.737 73.532ZM317.198 77.492C317.954 76.16 318.506 74.81 318.854 73.442C319.214 72.062 319.394 70.604 319.394 69.068C319.394 67.532 319.214 66.08 318.854 64.712C318.506 63.332 317.954 61.976 317.198 60.644H319.88C320.612 61.712 321.17 62.972 321.554 64.424C321.95 65.864 322.148 67.412 322.148 69.068C322.148 70.724 321.956 72.272 321.572 73.712C321.188 75.14 320.624 76.4 319.88 77.492H317.198Z" fill="#81DA4F"/>
<path d="M28.89 61.4H30.69V74H28.89V61.4ZM34.6423 71.642C34.9783 71.642 35.2543 71.762 35.4703 72.002C35.6983 72.23 35.8123 72.518 35.8123 72.866C35.8123 73.046 35.7883 73.22 35.7403 73.388C35.7043 73.556 35.6263 73.814 35.5063 74.162L34.6603 76.664H33.5263L34.1923 73.982C33.9643 73.898 33.7783 73.76 33.6343 73.568C33.5023 73.364 33.4363 73.13 33.4363 72.866C33.4363 72.506 33.5503 72.212 33.7783 71.984C34.0063 71.756 34.2943 71.642 34.6423 71.642ZM54.2104 61.4V74H52.4104V68.384H45.1744V74H43.3744V61.4H45.1744V66.818H52.4104V61.4H54.2104ZM66.3518 69.284C66.3518 69.416 66.3398 69.59 66.3158 69.806H58.5758C58.6838 70.646 59.0498 71.324 59.6738 71.84C60.3098 72.344 61.0958 72.596 62.0318 72.596C63.1718 72.596 64.0898 72.212 64.7858 71.444L65.7398 72.56C65.3078 73.064 64.7678 73.448 64.1198 73.712C63.4838 73.976 62.7698 74.108 61.9778 74.108C60.9698 74.108 60.0758 73.904 59.2958 73.496C58.5158 73.076 57.9098 72.494 57.4778 71.75C57.0578 71.006 56.8478 70.166 56.8478 69.23C56.8478 68.306 57.0518 67.472 57.4598 66.728C57.8798 65.984 58.4498 65.408 59.1698 65C59.9018 64.58 60.7238 64.37 61.6358 64.37C62.5478 64.37 63.3578 64.58 64.0658 65C64.7858 65.408 65.3438 65.984 65.7398 66.728C66.1478 67.472 66.3518 68.324 66.3518 69.284ZM61.6358 65.828C60.8078 65.828 60.1118 66.08 59.5478 66.584C58.9958 67.088 58.6718 67.748 58.5758 68.564H64.6958C64.5998 67.76 64.2698 67.106 63.7058 66.602C63.1538 66.086 62.4638 65.828 61.6358 65.828ZM69.1833 71.642C69.5193 71.642 69.7953 71.762 70.0113 72.002C70.2393 72.23 70.3533 72.518 70.3533 72.866C70.3533 73.046 70.3293 73.22 70.2813 73.388C70.2453 73.556 70.1673 73.814 70.0473 74.162L69.2013 76.664H68.0673L68.7333 73.982C68.5053 73.898 68.3193 73.76 68.1753 73.568C68.0433 73.364 67.9773 73.13 67.9773 72.866C67.9773 72.506 68.0913 72.212 68.3193 71.984C68.5473 71.756 68.8353 71.642 69.1833 71.642ZM81.5874 74.144C80.6394 74.144 79.7214 74 78.8334 73.712C77.9574 73.412 77.2674 73.028 76.7634 72.56L77.4294 71.156C77.9094 71.588 78.5214 71.942 79.2654 72.218C80.0214 72.482 80.7954 72.614 81.5874 72.614C82.6314 72.614 83.4114 72.44 83.9274 72.092C84.4434 71.732 84.7014 71.258 84.7014 70.67C84.7014 70.238 84.5574 69.89 84.2694 69.626C83.9934 69.35 83.6454 69.14 83.2254 68.996C82.8174 68.852 82.2354 68.69 81.4794 68.51C80.5314 68.282 79.7634 68.054 79.1754 67.826C78.5994 67.598 78.1014 67.25 77.6814 66.782C77.2734 66.302 77.0694 65.66 77.0694 64.856C77.0694 64.184 77.2434 63.578 77.5914 63.038C77.9514 62.498 78.4914 62.066 79.2114 61.742C79.9314 61.418 80.8254 61.256 81.8934 61.256C82.6374 61.256 83.3694 61.352 84.0894 61.544C84.8094 61.736 85.4274 62.012 85.9434 62.372L85.3494 63.812C84.8214 63.476 84.2574 63.224 83.6574 63.056C83.0574 62.876 82.4694 62.786 81.8934 62.786C80.8734 62.786 80.1054 62.972 79.5894 63.344C79.0854 63.716 78.8334 64.196 78.8334 64.784C78.8334 65.216 78.9774 65.57 79.2654 65.846C79.5534 66.11 79.9074 66.32 80.3274 66.476C80.7594 66.62 81.3414 66.776 82.0734 66.944C83.0214 67.172 83.7834 67.4 84.3594 67.628C84.9354 67.856 85.4274 68.204 85.8354 68.672C86.2554 69.14 86.4654 69.77 86.4654 70.562C86.4654 71.222 86.2854 71.828 85.9254 72.38C85.5654 72.92 85.0194 73.352 84.2874 73.676C83.5554 73.988 82.6554 74.144 81.5874 74.144ZM93.9371 64.37C95.1491 64.37 96.1091 64.724 96.8171 65.432C97.5371 66.128 97.8971 67.154 97.8971 68.51V74H96.1691V68.708C96.1691 67.784 95.9471 67.088 95.5031 66.62C95.0591 66.152 94.4231 65.918 93.5951 65.918C92.6591 65.918 91.9211 66.194 91.3811 66.746C90.8411 67.286 90.5711 68.066 90.5711 69.086V74H88.8431V60.644H90.5711V65.81C90.9311 65.354 91.3991 65 91.9751 64.748C92.5631 64.496 93.2171 64.37 93.9371 64.37ZM109.77 69.284C109.77 69.416 109.758 69.59 109.734 69.806H101.994C102.102 70.646 102.468 71.324 103.092 71.84C103.728 72.344 104.514 72.596 105.45 72.596C106.59 72.596 107.508 72.212 108.204 71.444L109.158 72.56C108.726 73.064 108.186 73.448 107.538 73.712C106.902 73.976 106.188 74.108 105.396 74.108C104.388 74.108 103.494 73.904 102.714 73.496C101.934 73.076 101.328 72.494 100.896 71.75C100.476 71.006 100.266 70.166 100.266 69.23C100.266 68.306 100.47 67.472 100.878 66.728C101.298 65.984 101.868 65.408 102.588 65C103.32 64.58 104.142 64.37 105.054 64.37C105.966 64.37 106.776 64.58 107.484 65C108.204 65.408 108.762 65.984 109.158 66.728C109.566 67.472 109.77 68.324 109.77 69.284ZM105.054 65.828C104.226 65.828 103.53 66.08 102.966 66.584C102.414 67.088 102.09 67.748 101.994 68.564H108.114C108.018 67.76 107.688 67.106 107.124 66.602C106.572 66.086 105.882 65.828 105.054 65.828ZM112.601 71.642C112.937 71.642 113.213 71.762 113.429 72.002C113.657 72.23 113.771 72.518 113.771 72.866C113.771 73.046 113.747 73.22 113.699 73.388C113.663 73.556 113.585 73.814 113.465 74.162L112.619 76.664H111.485L112.151 73.982C111.923 73.898 111.737 73.76 111.593 73.568C111.461 73.364 111.395 73.13 111.395 72.866C111.395 72.506 111.509 72.212 111.737 71.984C111.965 71.756 112.253 71.642 112.601 71.642ZM121.333 61.4H123.133V74H121.333V61.4ZM132.018 73.442C131.766 73.658 131.454 73.826 131.082 73.946C130.71 74.054 130.326 74.108 129.93 74.108C128.97 74.108 128.226 73.85 127.698 73.334C127.17 72.818 126.906 72.08 126.906 71.12V65.882H125.286V64.46H126.906V62.372H128.634V64.46H131.37V65.882H128.634V71.048C128.634 71.564 128.76 71.96 129.012 72.236C129.276 72.512 129.648 72.65 130.128 72.65C130.656 72.65 131.106 72.5 131.478 72.2L132.018 73.442Z" fill="#26C1FC"/>
<path d="M46.692 93.4L42.48 106H40.59L37.152 95.938L33.714 106H31.788L27.576 93.4H29.43L32.832 103.642L36.378 93.4H38.034L41.508 103.696L44.982 93.4H46.692ZM56.5432 101.284C56.5432 101.416 56.5312 101.59 56.5072 101.806H48.7672C48.8752 102.646 49.2412 103.324 49.8652 103.84C50.5012 104.344 51.2872 104.596 52.2232 104.596C53.3632 104.596 54.2812 104.212 54.9772 103.444L55.9312 104.56C55.4992 105.064 54.9592 105.448 54.3112 105.712C53.6752 105.976 52.9612 106.108 52.1692 106.108C51.1612 106.108 50.2672 105.904 49.4872 105.496C48.7072 105.076 48.1012 104.494 47.6692 103.75C47.2492 103.006 47.0392 102.166 47.0392 101.23C47.0392 100.306 47.2432 99.472 47.6512 98.728C48.0712 97.984 48.6412 97.408 49.3612 97C50.0932 96.58 50.9152 96.37 51.8272 96.37C52.7392 96.37 53.5492 96.58 54.2572 97C54.9772 97.408 55.5352 97.984 55.9312 98.728C56.3392 99.472 56.5432 100.324 56.5432 101.284ZM51.8272 97.828C50.9992 97.828 50.3032 98.08 49.7392 98.584C49.1872 99.088 48.8632 99.748 48.7672 100.564H54.8872C54.7912 99.76 54.4612 99.106 53.8972 98.602C53.3452 98.086 52.6552 97.828 51.8272 97.828ZM59.3747 103.642C59.7107 103.642 59.9867 103.762 60.2027 104.002C60.4307 104.23 60.5447 104.518 60.5447 104.866C60.5447 105.046 60.5207 105.22 60.4727 105.388C60.4367 105.556 60.3587 105.814 60.2387 106.162L59.3927 108.664H58.2587L58.9247 105.982C58.6967 105.898 58.5107 105.76 58.3667 105.568C58.2347 105.364 58.1687 105.13 58.1687 104.866C58.1687 104.506 58.2827 104.212 58.5107 103.984C58.7387 103.756 59.0267 103.642 59.3747 103.642ZM72.9308 101.644V106H71.1488V101.608L66.1448 93.4H68.0708L72.1028 100.042L76.1528 93.4H77.9348L72.9308 101.644ZM82.5228 106.108C81.5748 106.108 80.7228 105.898 79.9668 105.478C79.2108 105.058 78.6168 104.482 78.1848 103.75C77.7648 103.006 77.5548 102.166 77.5548 101.23C77.5548 100.294 77.7648 99.46 78.1848 98.728C78.6168 97.984 79.2108 97.408 79.9668 97C80.7228 96.58 81.5748 96.37 82.5228 96.37C83.4708 96.37 84.3168 96.58 85.0608 97C85.8168 97.408 86.4048 97.984 86.8248 98.728C87.2568 99.46 87.4728 100.294 87.4728 101.23C87.4728 102.166 87.2568 103.006 86.8248 103.75C86.4048 104.482 85.8168 105.058 85.0608 105.478C84.3168 105.898 83.4708 106.108 82.5228 106.108ZM82.5228 104.596C83.1348 104.596 83.6808 104.458 84.1608 104.182C84.6528 103.894 85.0368 103.498 85.3128 102.994C85.5888 102.478 85.7268 101.89 85.7268 101.23C85.7268 100.57 85.5888 99.988 85.3128 99.484C85.0368 98.968 84.6528 98.572 84.1608 98.296C83.6808 98.02 83.1348 97.882 82.5228 97.882C81.9108 97.882 81.3588 98.02 80.8668 98.296C80.3868 98.572 80.0028 98.968 79.7148 99.484C79.4388 99.988 79.3008 100.57 79.3008 101.23C79.3008 101.89 79.4388 102.478 79.7148 102.994C80.0028 103.498 80.3868 103.894 80.8668 104.182C81.3588 104.458 81.9108 104.596 82.5228 104.596ZM98.7546 96.46V106H97.1166V104.56C96.7686 105.052 96.3066 105.436 95.7306 105.712C95.1666 105.976 94.5486 106.108 93.8766 106.108C92.6046 106.108 91.6026 105.76 90.8706 105.064C90.1386 104.356 89.7726 103.318 89.7726 101.95V96.46H91.5006V101.752C91.5006 102.676 91.7226 103.378 92.1666 103.858C92.6106 104.326 93.2466 104.56 94.0746 104.56C94.9866 104.56 95.7066 104.284 96.2346 103.732C96.7626 103.18 97.0266 102.4 97.0266 101.392V96.46H98.7546ZM102.476 103.642C102.812 103.642 103.088 103.762 103.304 104.002C103.532 104.23 103.646 104.518 103.646 104.866C103.646 105.046 103.622 105.22 103.574 105.388C103.538 105.556 103.46 105.814 103.34 106.162L102.494 108.664H101.36L102.026 105.982C101.798 105.898 101.612 105.76 101.468 105.568C101.336 105.364 101.27 105.13 101.27 104.866C101.27 104.506 101.384 104.212 101.612 103.984C101.84 103.756 102.128 103.642 102.476 103.642ZM113.71 94.966H109.39V93.4H119.812V94.966H115.492V106H113.71V94.966ZM126.615 96.37C127.827 96.37 128.787 96.724 129.495 97.432C130.215 98.128 130.575 99.154 130.575 100.51V106H128.847V100.708C128.847 99.784 128.625 99.088 128.181 98.62C127.737 98.152 127.101 97.918 126.273 97.918C125.337 97.918 124.599 98.194 124.059 98.746C123.519 99.286 123.249 100.066 123.249 101.086V106H121.521V92.644H123.249V97.81C123.609 97.354 124.077 97 124.653 96.748C125.241 96.496 125.895 96.37 126.615 96.37ZM142.448 101.284C142.448 101.416 142.436 101.59 142.412 101.806H134.672C134.78 102.646 135.146 103.324 135.77 103.84C136.406 104.344 137.192 104.596 138.128 104.596C139.268 104.596 140.186 104.212 140.882 103.444L141.836 104.56C141.404 105.064 140.864 105.448 140.216 105.712C139.58 105.976 138.866 106.108 138.074 106.108C137.066 106.108 136.172 105.904 135.392 105.496C134.612 105.076 134.006 104.494 133.574 103.75C133.154 103.006 132.944 102.166 132.944 101.23C132.944 100.306 133.148 99.472 133.556 98.728C133.976 97.984 134.546 97.408 135.266 97C135.998 96.58 136.82 96.37 137.732 96.37C138.644 96.37 139.454 96.58 140.162 97C140.882 97.408 141.44 97.984 141.836 98.728C142.244 99.472 142.448 100.324 142.448 101.284ZM137.732 97.828C136.904 97.828 136.208 98.08 135.644 98.584C135.092 99.088 134.768 99.748 134.672 100.564H140.792C140.696 99.76 140.366 99.106 139.802 98.602C139.25 98.086 138.56 97.828 137.732 97.828ZM153.113 96.46L148.487 106.954C148.079 107.926 147.599 108.61 147.047 109.006C146.507 109.402 145.853 109.6 145.085 109.6C144.617 109.6 144.161 109.522 143.717 109.366C143.285 109.222 142.925 109.006 142.637 108.718L143.375 107.422C143.867 107.89 144.437 108.124 145.085 108.124C145.505 108.124 145.853 108.01 146.129 107.782C146.417 107.566 146.675 107.188 146.903 106.648L147.209 105.982L142.997 96.46H144.797L148.127 104.092L151.421 96.46H153.113Z" fill="#26C1FC"/>
<path d="M234.848 96.316L231.338 106H228.638L226.46 99.988L224.21 106H221.51L218.018 96.316H220.664L222.95 102.868L225.326 96.316H227.702L230.006 102.868L232.364 96.316H234.848ZM245.376 101.194C245.376 101.23 245.358 101.482 245.322 101.95H237.996C238.128 102.55 238.44 103.024 238.932 103.372C239.424 103.72 240.036 103.894 240.768 103.894C241.272 103.894 241.716 103.822 242.1 103.678C242.496 103.522 242.862 103.282 243.198 102.958L244.692 104.578C243.78 105.622 242.448 106.144 240.696 106.144C239.604 106.144 238.638 105.934 237.798 105.514C236.958 105.082 236.31 104.488 235.854 103.732C235.398 102.976 235.17 102.118 235.17 101.158C235.17 100.21 235.392 99.358 235.836 98.602C236.292 97.834 236.91 97.24 237.69 96.82C238.482 96.388 239.364 96.172 240.336 96.172C241.284 96.172 242.142 96.376 242.91 96.784C243.678 97.192 244.278 97.78 244.71 98.548C245.154 99.304 245.376 100.186 245.376 101.194ZM240.354 98.296C239.718 98.296 239.184 98.476 238.752 98.836C238.32 99.196 238.056 99.688 237.96 100.312H242.73C242.634 99.7 242.37 99.214 241.938 98.854C241.506 98.482 240.978 98.296 240.354 98.296ZM249.927 97.594C250.263 97.126 250.713 96.772 251.277 96.532C251.853 96.292 252.513 96.172 253.257 96.172V98.764C252.945 98.74 252.735 98.728 252.627 98.728C251.823 98.728 251.193 98.956 250.737 99.412C250.281 99.856 250.053 100.528 250.053 101.428V106H247.245V96.316H249.927V97.594ZM264.325 101.194C264.325 101.23 264.307 101.482 264.271 101.95H256.945C257.077 102.55 257.389 103.024 257.881 103.372C258.373 103.72 258.985 103.894 259.717 103.894C260.221 103.894 260.665 103.822 261.049 103.678C261.445 103.522 261.811 103.282 262.147 102.958L263.641 104.578C262.729 105.622 261.397 106.144 259.645 106.144C258.553 106.144 257.587 105.934 256.747 105.514C255.907 105.082 255.259 104.488 254.803 103.732C254.347 102.976 254.119 102.118 254.119 101.158C254.119 100.21 254.341 99.358 254.785 98.602C255.241 97.834 255.859 97.24 256.639 96.82C257.431 96.388 258.313 96.172 259.285 96.172C260.233 96.172 261.091 96.376 261.859 96.784C262.627 97.192 263.227 97.78 263.659 98.548C264.103 99.304 264.325 100.186 264.325 101.194ZM259.303 98.296C258.667 98.296 258.133 98.476 257.701 98.836C257.269 99.196 257.005 99.688 256.909 100.312H261.679C261.583 99.7 261.319 99.214 260.887 98.854C260.455 98.482 259.927 98.296 259.303 98.296ZM273.56 109.492C272.84 108.4 272.282 107.134 271.886 105.694C271.502 104.254 271.31 102.712 271.31 101.068C271.31 99.424 271.502 97.882 271.886 96.442C272.282 94.99 272.84 93.724 273.56 92.644H276.242C275.486 93.976 274.934 95.332 274.586 96.712C274.238 98.08 274.064 99.532 274.064 101.068C274.064 102.604 274.238 104.062 274.586 105.442C274.934 106.81 275.486 108.16 276.242 109.492H273.56ZM293.278 96.316L289.768 106H287.068L284.89 99.988L282.64 106H279.94L276.448 96.316H279.094L281.38 102.868L283.756 96.316H286.132L288.436 102.868L290.794 96.316H293.278ZM303.805 101.194C303.805 101.23 303.787 101.482 303.751 101.95H296.425C296.557 102.55 296.869 103.024 297.361 103.372C297.853 103.72 298.465 103.894 299.197 103.894C299.701 103.894 300.145 103.822 300.529 103.678C300.925 103.522 301.291 103.282 301.627 102.958L303.121 104.578C302.209 105.622 300.877 106.144 299.125 106.144C298.033 106.144 297.067 105.934 296.227 105.514C295.387 105.082 294.739 104.488 294.283 103.732C293.827 102.976 293.599 102.118 293.599 101.158C293.599 100.21 293.821 99.358 294.265 98.602C294.721 97.834 295.339 97.24 296.119 96.82C296.911 96.388 297.793 96.172 298.765 96.172C299.713 96.172 300.571 96.376 301.339 96.784C302.107 97.192 302.707 97.78 303.139 98.548C303.583 99.304 303.805 100.186 303.805 101.194ZM298.783 98.296C298.147 98.296 297.613 98.476 297.181 98.836C296.749 99.196 296.485 99.688 296.389 100.312H301.159C301.063 99.7 300.799 99.214 300.367 98.854C299.935 98.482 299.407 98.296 298.783 98.296ZM308.357 97.594C308.693 97.126 309.143 96.772 309.707 96.532C310.283 96.292 310.943 96.172 311.687 96.172V98.764C311.375 98.74 311.165 98.728 311.057 98.728C310.253 98.728 309.623 98.956 309.167 99.412C308.711 99.856 308.483 100.528 308.483 101.428V106H305.675V96.316H308.357V97.594ZM322.755 101.194C322.755 101.23 322.737 101.482 322.701 101.95H315.375C315.507 102.55 315.819 103.024 316.311 103.372C316.803 103.72 317.415 103.894 318.147 103.894C318.651 103.894 319.095 103.822 319.479 103.678C319.875 103.522 320.241 103.282 320.577 102.958L322.071 104.578C321.159 105.622 319.827 106.144 318.075 106.144C316.983 106.144 316.017 105.934 315.177 105.514C314.337 105.082 313.689 104.488 313.233 103.732C312.777 102.976 312.549 102.118 312.549 101.158C312.549 100.21 312.771 99.358 313.215 98.602C313.671 97.834 314.289 97.24 315.069 96.82C315.861 96.388 316.743 96.172 317.715 96.172C318.663 96.172 319.521 96.376 320.289 96.784C321.057 97.192 321.657 97.78 322.089 98.548C322.533 99.304 322.755 100.186 322.755 101.194ZM317.733 98.296C317.097 98.296 316.563 98.476 316.131 98.836C315.699 99.196 315.435 99.688 315.339 100.312H320.109C320.013 99.7 319.749 99.214 319.317 98.854C318.885 98.482 318.357 98.296 317.733 98.296ZM330.51 96.172C331.71 96.172 332.676 96.532 333.408 97.252C334.152 97.972 334.524 99.04 334.524 100.456V106H331.716V100.888C331.716 100.12 331.548 99.55 331.212 99.178C330.876 98.794 330.39 98.602 329.754 98.602C329.046 98.602 328.482 98.824 328.062 99.268C327.642 99.7 327.432 100.348 327.432 101.212V106H324.624V96.316H327.306V97.45C327.678 97.042 328.14 96.73 328.692 96.514C329.244 96.286 329.85 96.172 330.51 96.172ZM337.357 92.482H340.381L342.811 95.074H340.615L337.357 92.482ZM354.108 105.532C353.832 105.736 353.49 105.892 353.082 106C352.686 106.096 352.266 106.144 351.822 106.144C350.67 106.144 349.776 105.85 349.14 105.262C348.516 104.674 348.204 103.81 348.204 102.67V98.692H346.71V96.532H348.204V94.174H351.012V96.532H353.424V98.692H351.012V102.634C351.012 103.042 351.114 103.36 351.318 103.588C351.534 103.804 351.834 103.912 352.218 103.912C352.662 103.912 353.04 103.792 353.352 103.552L354.108 105.532ZM354.569 109.492C355.325 108.16 355.877 106.81 356.225 105.442C356.585 104.062 356.765 102.604 356.765 101.068C356.765 99.532 356.585 98.08 356.225 96.712C355.877 95.332 355.325 93.976 354.569 92.644H357.251C357.983 93.712 358.541 94.972 358.925 96.424C359.321 97.864 359.519 99.412 359.519 101.068C359.519 102.724 359.327 104.272 358.943 105.712C358.559 107.14 357.995 108.4 357.251 109.492H354.569Z" fill="#81DA4F"/>
<path d="M35.542 36.532C35.266 36.736 34.924 36.892 34.516 37C34.12 37.096 33.7 37.144 33.256 37.144C32.104 37.144 31.21 36.85 30.574 36.262C29.95 35.674 29.638 34.81 29.638 33.67V29.692H28.144V27.532H29.638V25.174H32.446V27.532H34.858V29.692H32.446V33.634C32.446 34.042 32.548 34.36 32.752 34.588C32.968 34.804 33.268 34.912 33.652 34.912C34.096 34.912 34.474 34.792 34.786 34.552L35.542 36.532ZM41.4274 37.144C40.4074 37.144 39.4894 36.934 38.6734 36.514C37.8694 36.082 37.2394 35.488 36.7834 34.732C36.3274 33.976 36.0994 33.118 36.0994 32.158C36.0994 31.198 36.3274 30.34 36.7834 29.584C37.2394 28.828 37.8694 28.24 38.6734 27.82C39.4894 27.388 40.4074 27.172 41.4274 27.172C42.4474 27.172 43.3594 27.388 44.1634 27.82C44.9674 28.24 45.5974 28.828 46.0534 29.584C46.5094 30.34 46.7374 31.198 46.7374 32.158C46.7374 33.118 46.5094 33.976 46.0534 34.732C45.5974 35.488 44.9674 36.082 44.1634 36.514C43.3594 36.934 42.4474 37.144 41.4274 37.144ZM41.4274 34.84C42.1474 34.84 42.7354 34.6 43.1914 34.12C43.6594 33.628 43.8934 32.974 43.8934 32.158C43.8934 31.342 43.6594 30.694 43.1914 30.214C42.7354 29.722 42.1474 29.476 41.4274 29.476C40.7074 29.476 40.1134 29.722 39.6454 30.214C39.1774 30.694 38.9434 31.342 38.9434 32.158C38.9434 32.974 39.1774 33.628 39.6454 34.12C40.1134 34.6 40.7074 34.84 41.4274 34.84ZM59.436 27.172C60.336 27.172 61.152 27.382 61.884 27.802C62.628 28.21 63.21 28.792 63.63 29.548C64.05 30.292 64.26 31.162 64.26 32.158C64.26 33.154 64.05 34.03 63.63 34.786C63.21 35.53 62.628 36.112 61.884 36.532C61.152 36.94 60.336 37.144 59.436 37.144C58.104 37.144 57.09 36.724 56.394 35.884V37H53.712V23.644H56.52V28.342C57.228 27.562 58.2 27.172 59.436 27.172ZM58.95 34.84C59.67 34.84 60.258 34.6 60.714 34.12C61.182 33.628 61.416 32.974 61.416 32.158C61.416 31.342 61.182 30.694 60.714 30.214C60.258 29.722 59.67 29.476 58.95 29.476C58.23 29.476 57.636 29.722 57.168 30.214C56.712 30.694 56.484 31.342 56.484 32.158C56.484 32.974 56.712 33.628 57.168 34.12C57.636 34.6 58.23 34.84 58.95 34.84ZM75.6258 32.194C75.6258 32.23 75.6078 32.482 75.5718 32.95H68.2458C68.3778 33.55 68.6898 34.024 69.1818 34.372C69.6738 34.72 70.2858 34.894 71.0178 34.894C71.5218 34.894 71.9658 34.822 72.3498 34.678C72.7458 34.522 73.1118 34.282 73.4478 33.958L74.9418 35.578C74.0298 36.622 72.6978 37.144 70.9458 37.144C69.8538 37.144 68.8878 36.934 68.0478 36.514C67.2078 36.082 66.5598 35.488 66.1038 34.732C65.6478 33.976 65.4198 33.118 65.4198 32.158C65.4198 31.21 65.6418 30.358 66.0858 29.602C66.5418 28.834 67.1598 28.24 67.9398 27.82C68.7318 27.388 69.6138 27.172 70.5858 27.172C71.5338 27.172 72.3918 27.376 73.1598 27.784C73.9278 28.192 74.5278 28.78 74.9598 29.548C75.4038 30.304 75.6258 31.186 75.6258 32.194ZM70.6038 29.296C69.9678 29.296 69.4338 29.476 69.0018 29.836C68.5698 30.196 68.3058 30.688 68.2098 31.312H72.9798C72.8838 30.7 72.6198 30.214 72.1878 29.854C71.7558 29.482 71.2278 29.296 70.6038 29.296ZM85.2569 40.492C84.5849 39.388 84.0689 38.122 83.7089 36.694C83.3489 35.254 83.1689 33.712 83.1689 32.068C83.1689 30.424 83.3489 28.882 83.7089 27.442C84.0689 25.99 84.5849 24.724 85.2569 23.644H86.4809C85.7729 24.856 85.2509 26.158 84.9149 27.55C84.5909 28.942 84.4289 30.448 84.4289 32.068C84.4289 33.688 84.5909 35.194 84.9149 36.586C85.2509 37.978 85.7729 39.28 86.4809 40.492H85.2569ZM93.9887 24.4C95.5967 24.4 96.8567 24.784 97.7687 25.552C98.6807 26.32 99.1367 27.376 99.1367 28.72C99.1367 30.064 98.6807 31.12 97.7687 31.888C96.8567 32.644 95.5967 33.022 93.9887 33.022H90.6047V37H89.2727V24.4H93.9887ZM93.9527 31.852C95.2007 31.852 96.1547 31.582 96.8147 31.042C97.4747 30.49 97.8047 29.716 97.8047 28.72C97.8047 27.7 97.4747 26.92 96.8147 26.38C96.1547 25.828 95.2007 25.552 93.9527 25.552H90.6047V31.852H93.9527ZM104.971 27.46C106.207 27.46 107.155 27.772 107.815 28.396C108.475 29.008 108.805 29.92 108.805 31.132V37H107.581V35.524C107.293 36.016 106.867 36.4 106.303 36.676C105.751 36.952 105.091 37.09 104.323 37.09C103.267 37.09 102.427 36.838 101.803 36.334C101.179 35.83 100.867 35.164 100.867 34.336C100.867 33.532 101.155 32.884 101.731 32.392C102.319 31.9 103.249 31.654 104.521 31.654H107.527V31.078C107.527 30.262 107.299 29.644 106.843 29.224C106.387 28.792 105.721 28.576 104.845 28.576C104.245 28.576 103.669 28.678 103.117 28.882C102.565 29.074 102.091 29.344 101.695 29.692L101.119 28.738C101.599 28.33 102.175 28.018 102.847 27.802C103.519 27.574 104.227 27.46 104.971 27.46ZM104.521 36.082C105.241 36.082 105.859 35.92 106.375 35.596C106.891 35.26 107.275 34.78 107.527 34.156V32.608H104.557C102.937 32.608 102.127 33.172 102.127 34.3C102.127 34.852 102.337 35.29 102.757 35.614C103.177 35.926 103.765 36.082 104.521 36.082ZM114.814 37.09C114.046 37.09 113.308 36.982 112.6 36.766C111.904 36.538 111.358 36.256 110.962 35.92L111.538 34.912C111.934 35.224 112.432 35.482 113.032 35.686C113.632 35.878 114.256 35.974 114.904 35.974C115.768 35.974 116.404 35.842 116.812 35.578C117.232 35.302 117.442 34.918 117.442 34.426C117.442 34.078 117.328 33.808 117.1 33.616C116.872 33.412 116.584 33.262 116.236 33.166C115.888 33.058 115.426 32.956 114.85 32.86C114.082 32.716 113.464 32.572 112.996 32.428C112.528 32.272 112.126 32.014 111.79 31.654C111.466 31.294 111.304 30.796 111.304 30.16C111.304 29.368 111.634 28.72 112.294 28.216C112.954 27.712 113.872 27.46 115.048 27.46C115.66 27.46 116.272 27.544 116.884 27.712C117.496 27.868 118 28.078 118.396 28.342L117.838 29.368C117.058 28.828 116.128 28.558 115.048 28.558C114.232 28.558 113.614 28.702 113.194 28.99C112.786 29.278 112.582 29.656 112.582 30.124C112.582 30.484 112.696 30.772 112.924 30.988C113.164 31.204 113.458 31.366 113.806 31.474C114.154 31.57 114.634 31.672 115.246 31.78C116.002 31.924 116.608 32.068 117.064 32.212C117.52 32.356 117.91 32.602 118.234 32.95C118.558 33.298 118.72 33.778 118.72 34.39C118.72 35.218 118.372 35.878 117.676 36.37C116.992 36.85 116.038 37.09 114.814 37.09ZM126.069 36.424C125.829 36.64 125.529 36.808 125.169 36.928C124.821 37.036 124.455 37.09 124.071 37.09C123.183 37.09 122.499 36.85 122.019 36.37C121.539 35.89 121.299 35.212 121.299 34.336V28.612H119.607V27.532H121.299V25.462H122.577V27.532H125.457V28.612H122.577V34.264C122.577 34.828 122.715 35.26 122.991 35.56C123.279 35.848 123.687 35.992 124.215 35.992C124.479 35.992 124.731 35.95 124.971 35.866C125.223 35.782 125.439 35.662 125.619 35.506L126.069 36.424ZM127.333 40.492C128.041 39.28 128.563 37.984 128.899 36.604C129.235 35.212 129.403 33.7 129.403 32.068C129.403 30.436 129.235 28.93 128.899 27.55C128.563 26.158 128.041 24.856 127.333 23.644H128.557C129.229 24.724 129.745 25.99 130.105 27.442C130.477 28.882 130.663 30.424 130.663 32.068C130.663 33.712 130.483 35.254 130.123 36.694C129.763 38.134 129.241 39.4 128.557 40.492H127.333Z" fill="#222831"/>
<path d="M184.354 68.3536C184.549 68.1583 184.549 67.8417 184.354 67.6464L181.172 64.4645C180.976 64.2692 180.66 64.2692 180.464 64.4645C180.269 64.6597 180.269 64.9763 180.464 65.1716L183.293 68L180.464 70.8284C180.269 71.0237 180.269 71.3403 180.464 71.5355C180.66 71.7308 180.976 71.7308 181.172 71.5355L184.354 68.3536ZM144 68.5H184V67.5H144V68.5Z" fill="#222831"/>
<path d="M207.354 100.354C207.549 100.158 207.549 99.8417 207.354 99.6464L204.172 96.4645C203.976 96.2692 203.66 96.2692 203.464 96.4645C203.269 96.6597 203.269 96.9763 203.464 97.1716L206.293 100L203.464 102.828C203.269 103.024 203.269 103.34 203.464 103.536C203.66 103.731 203.976 103.731 204.172 103.536L207.354 100.354ZM167 100.5H207V99.5H167V100.5Z" fill="#222831"/>
<defs>
<filter id="filter0_d_183_21" x="0" y="0" width="385" height="136" filterUnits="userSpaceOnUse" color-interpolation-filters="sRGB">
<feFlood flood-opacity="0" result="BackgroundImageFix"/>
<feColorMatrix in="SourceAlpha" type="matrix" values="0 0 0 0 0 0 0 0 0 0 0 0 0 0 0 0 0 0 127 0" result="hardAlpha"/>
<feOffset dy="2"/>
<feGaussianBlur stdDeviation="4"/>
<feComposite in2="hardAlpha" operator="out"/>
<feColorMatrix type="matrix" values="0 0 0 0 0.4125 0 0 0 0 0.4125 0 0 0 0 0.4125 0 0 0 0.25 0"/>
<feBlend mode="normal" in2="BackgroundImageFix" result="effect1_dropShadow_183_21"/>
<feBlend mode="normal" in="SourceGraphic" in2="effect1_dropShadow_183_21" result="shape"/>
</filter>
</defs>
</svg>
