<svg width="61" height="61" viewBox="0 0 61 61" fill="none" xmlns="http://www.w3.org/2000/svg">
<g filter="url(#filter0_d_192_14)">
<circle cx="30.5" cy="28.5" r="22.5" fill="white"/>
</g>
<path d="M17.866 33.636C17.6513 33.7947 17.3853 33.916 17.068 34C16.76 34.0747 16.4333 34.112 16.088 34.112C15.192 34.112 14.4967 33.8833 14.002 33.426C13.5167 32.9687 13.274 32.2967 13.274 31.41V28.316H12.112V26.636H13.274V24.802H15.458V26.636H17.334V28.316H15.458V31.382C15.458 31.6993 15.5373 31.9467 15.696 32.124C15.864 32.292 16.0973 32.376 16.396 32.376C16.7413 32.376 17.0353 32.2827 17.278 32.096L17.866 33.636ZM22.4436 34.112C21.6502 34.112 20.9362 33.9487 20.3016 33.622C19.6762 33.286 19.1862 32.824 18.8316 32.236C18.4769 31.648 18.2996 30.9807 18.2996 30.234C18.2996 29.4873 18.4769 28.82 18.8316 28.232C19.1862 27.644 19.6762 27.1867 20.3016 26.86C20.9362 26.524 21.6502 26.356 22.4436 26.356C23.2369 26.356 23.9462 26.524 24.5716 26.86C25.1969 27.1867 25.6869 27.644 26.0416 28.232C26.3962 28.82 26.5736 29.4873 26.5736 30.234C26.5736 30.9807 26.3962 31.648 26.0416 32.236C25.6869 32.824 25.1969 33.286 24.5716 33.622C23.9462 33.9487 23.2369 34.112 22.4436 34.112ZM22.4436 32.32C23.0036 32.32 23.4609 32.1333 23.8156 31.76C24.1796 31.3773 24.3616 30.8687 24.3616 30.234C24.3616 29.5993 24.1796 29.0953 23.8156 28.722C23.4609 28.3393 23.0036 28.148 22.4436 28.148C21.8836 28.148 21.4216 28.3393 21.0576 28.722C20.6936 29.0953 20.5116 29.5993 20.5116 30.234C20.5116 30.8687 20.6936 31.3773 21.0576 31.76C21.4216 32.1333 21.8836 32.32 22.4436 32.32ZM36.4502 26.356C37.1502 26.356 37.7849 26.5193 38.3542 26.846C38.9329 27.1633 39.3856 27.616 39.7122 28.204C40.0389 28.7827 40.2022 29.4593 40.2022 30.234C40.2022 31.0087 40.0389 31.69 39.7122 32.278C39.3856 32.8567 38.9329 33.3093 38.3542 33.636C37.7849 33.9533 37.1502 34.112 36.4502 34.112C35.4142 34.112 34.6256 33.7853 34.0842 33.132V34H31.9982V23.612H34.1822V27.266C34.7329 26.6593 35.4889 26.356 36.4502 26.356ZM36.0722 32.32C36.6322 32.32 37.0896 32.1333 37.4442 31.76C37.8082 31.3773 37.9902 30.8687 37.9902 30.234C37.9902 29.5993 37.8082 29.0953 37.4442 28.722C37.0896 28.3393 36.6322 28.148 36.0722 28.148C35.5122 28.148 35.0502 28.3393 34.6862 28.722C34.3316 29.0953 34.1542 29.5993 34.1542 30.234C34.1542 30.8687 34.3316 31.3773 34.6862 31.76C35.0502 32.1333 35.5122 32.32 36.0722 32.32ZM49.0423 30.262C49.0423 30.29 49.0283 30.486 49.0003 30.85H43.3023C43.4049 31.3167 43.6476 31.6853 44.0303 31.956C44.4129 32.2267 44.8889 32.362 45.4583 32.362C45.8503 32.362 46.1956 32.306 46.4943 32.194C46.8023 32.0727 47.0869 31.886 47.3483 31.634L48.5103 32.894C47.8009 33.706 46.7649 34.112 45.4023 34.112C44.5529 34.112 43.8016 33.9487 43.1483 33.622C42.4949 33.286 41.9909 32.824 41.6363 32.236C41.2816 31.648 41.1043 30.9807 41.1043 30.234C41.1043 29.4967 41.2769 28.834 41.6223 28.246C41.9769 27.6487 42.4576 27.1867 43.0643 26.86C43.6803 26.524 44.3663 26.356 45.1223 26.356C45.8596 26.356 46.5269 26.5147 47.1243 26.832C47.7216 27.1493 48.1883 27.6067 48.5243 28.204C48.8696 28.792 49.0423 29.478 49.0423 30.262ZM45.1363 28.008C44.6416 28.008 44.2263 28.148 43.8903 28.428C43.5543 28.708 43.3489 29.0907 43.2743 29.576H46.9843C46.9096 29.1 46.7043 28.722 46.3683 28.442C46.0323 28.1527 45.6216 28.008 45.1363 28.008Z" fill="#50A5FE"/>
<defs>
<filter id="filter0_d_192_14" x="0" y="0" width="61" height="61" filterUnits="userSpaceOnUse" color-interpolation-filters="sRGB">
<feFlood flood-opacity="0" result="BackgroundImageFix"/>
<feColorMatrix in="SourceAlpha" type="matrix" values="0 0 0 0 0 0 0 0 0 0 0 0 0 0 0 0 0 0 127 0" result="hardAlpha"/>
<feOffset dy="2"/>
<feGaussianBlur stdDeviation="4"/>
<feComposite in2="hardAlpha" operator="out"/>
<feColorMatrix type="matrix" values="0 0 0 0 0.533333 0 0 0 0 0.533333 0 0 0 0 0.533333 0 0 0 0.25 0"/>
<feBlend mode="normal" in2="BackgroundImageFix" result="effect1_dropShadow_192_14"/>
<feBlend mode="normal" in="SourceGraphic" in2="effect1_dropShadow_192_14" result="shape"/>
</filter>
</defs>
</svg>
