<svg width="44" height="54" viewBox="0 0 44 54" fill="none" xmlns="http://www.w3.org/2000/svg">
<path d="M19.5595 53.5882C11.6487 53.5888 4.48093 49.762 1.05843 43.4565C0.81669 43.0123 0.812522 42.4728 1.04652 42.0132L1.47702 41.17C1.67291 40.7854 2.02302 40.4978 2.43803 40.3811C2.85542 40.2638 3.30676 40.3263 3.67771 40.5526C7.93856 43.1611 13.6856 44.1853 19.4463 43.3648C30.4986 41.7887 38.5601 33.9851 37.4168 25.9694C37.3823 25.7289 37.4978 25.4919 37.708 25.3705C39.5038 24.3302 41.3437 23.9748 43.3336 24.2838C43.5456 24.3165 43.7236 24.4612 43.7992 24.6619C43.8748 24.8626 43.8367 25.0888 43.6998 25.2537C42.3231 26.9055 41.9349 28.8102 41.6777 31.9517C43.0793 42.0876 34.7487 51.6739 23.0731 53.3393C21.8929 53.5061 20.7176 53.5882 19.5595 53.5882ZM2.86316 41.513C2.82149 41.513 2.78695 41.5202 2.76194 41.5267C2.70538 41.5428 2.60058 41.588 2.53806 41.7113L2.10757 42.5544C2.10757 42.5544 2.10757 42.5544 2.10757 42.555C2.0516 42.664 2.05101 42.789 2.10519 42.8884C5.79206 49.6816 14.1512 53.4072 22.9052 52.1592C33.9568 50.5837 41.8456 41.563 40.4892 32.0523C40.4833 32.0088 40.4815 31.9648 40.4851 31.9201C40.7167 29.0698 41.0734 27.0692 42.1463 25.3675C40.9269 25.3335 39.7932 25.6116 38.647 26.2112C39.5616 34.7299 31.1315 42.9003 19.6142 44.5431C13.5838 45.4023 7.54856 44.3175 3.05668 41.5678C2.98701 41.5255 2.91913 41.513 2.86316 41.513ZM1.57705 42.2841H1.583H1.57705Z" fill="black"/>
<path d="M29.6925 45.9132C29.4889 45.9132 29.29 45.8084 29.1793 45.6208C29.0126 45.3374 29.106 44.9724 29.3895 44.8051C31.4931 43.5625 33.3943 41.9244 35.0388 39.9363C35.2496 39.6827 35.6241 39.6481 35.8772 39.8571C36.1309 40.0673 36.1654 40.4418 35.9564 40.6955C34.2237 42.7896 32.2183 44.5169 29.995 45.8304C29.8991 45.8864 29.7955 45.9132 29.6925 45.9132Z" fill="black"/>
<path d="M24.2642 48.1949C24.0034 48.1949 23.7629 48.0216 23.6903 47.7572C23.6033 47.4399 23.7903 47.1124 24.107 47.0254C24.8162 46.8313 25.5164 46.6027 26.1869 46.3461C26.4953 46.2294 26.8383 46.3818 26.9556 46.689C27.0729 46.9969 26.9192 47.3404 26.6126 47.4577C25.9058 47.728 25.1687 47.9686 24.422 48.174C24.369 48.1883 24.3166 48.1949 24.2642 48.1949Z" fill="black"/>
<path d="M7.94808 43.7119C7.81887 43.7119 7.68907 43.6702 7.57951 43.5839C4.29157 40.9914 2.01646 37.5058 1.17214 33.7701C1.06616 33.3027 1.20132 32.8091 1.53297 32.45L2.12125 31.8147C2.67857 31.2127 3.72949 31.2145 4.28681 31.8189C7.38242 35.1658 12.178 37.4909 17.4433 38.1983C22.3663 38.8604 27.1779 38.0804 30.9892 36.0023C34.7398 33.9576 37.0643 30.8995 37.5353 27.3913C37.5788 27.0656 37.8789 26.8381 38.2046 26.8804C38.5309 26.9245 38.7595 27.224 38.7155 27.5497C38.1927 31.4438 35.6514 34.8168 31.559 37.0479C27.528 39.2456 22.458 40.0738 17.2843 39.379C11.7493 38.6353 6.69292 36.1744 3.41213 32.6275C3.33711 32.5459 3.2472 32.534 3.20016 32.534C3.15431 32.534 3.06738 32.5459 2.99474 32.6239L2.40646 33.2598C2.34275 33.3289 2.31417 33.4235 2.33322 33.5075C3.1174 36.9782 5.24187 40.2251 8.31605 42.6491C8.57446 42.8527 8.61852 43.2272 8.41489 43.485C8.29819 43.6339 8.12432 43.7119 7.94808 43.7119Z" fill="black"/>
<path d="M27.8313 17.5823C27.7003 17.5823 27.5711 17.5394 27.4657 17.4567C25.4228 15.8657 23.0536 15.0244 20.6129 15.0244C18.1723 15.0244 15.8031 15.8657 13.7608 17.4567C13.5994 17.5823 13.3839 17.6174 13.191 17.5466C12.9986 17.4763 12.8557 17.3126 12.8123 17.1119C12.4086 15.2333 11.2141 13.1815 9.16231 10.8397C9.01286 10.6688 8.97297 10.4277 9.06049 10.2181C9.14802 10.0085 9.34749 9.86678 9.57434 9.85309C11.6405 9.72983 13.4404 10.0645 14.9421 10.8522C14.6319 9.53751 14.071 8.26628 13.266 7.05935C13.1397 6.87001 13.1326 6.62469 13.2481 6.42761C13.363 6.23112 13.5768 6.11799 13.8084 6.13526C15.1565 6.24243 16.5021 6.60207 17.8204 7.20642C18.13 4.82115 19.1666 2.32097 20.0717 0.347133C20.1687 0.135757 20.3801 0 20.6129 0C20.8457 0 21.0571 0.135757 21.1542 0.347133C22.0592 2.32097 23.0958 4.82115 23.4049 7.20642C24.7231 6.60207 26.0694 6.24243 27.4168 6.13526C27.6449 6.11977 27.8616 6.23052 27.9771 6.42761C28.0926 6.6241 28.0861 6.86941 27.9593 7.05935C27.1543 8.26628 26.5934 9.53751 26.2837 10.8522C27.7848 10.0645 29.58 9.72805 31.6521 9.85309C31.879 9.86678 32.0778 10.0085 32.1654 10.2181C32.2529 10.4277 32.2136 10.6688 32.0635 10.8397C30.0111 13.1815 28.8173 15.2327 28.413 17.1119C28.3701 17.3126 28.2272 17.4763 28.0343 17.5466C27.9682 17.5704 27.8997 17.5823 27.8313 17.5823ZM10.8748 11.0261C12.302 12.8022 13.2493 14.442 13.7453 15.9955C15.8299 14.5784 18.1872 13.8335 20.6135 13.8335C23.0399 13.8335 25.3966 14.5778 27.4811 15.9955C27.9771 14.442 28.9251 12.8022 30.3517 11.0261C28.5446 11.0969 27.059 11.6001 25.836 12.5516C25.6472 12.698 25.3888 12.7183 25.1798 12.6016C24.9708 12.4855 24.8523 12.255 24.878 12.0175C25.0482 10.4515 25.5282 8.93494 26.3088 7.49342C25.2549 7.70896 24.2045 8.09658 23.1732 8.65212C22.9922 8.74917 22.7755 8.74738 22.5981 8.64616C22.42 8.54553 22.3057 8.36095 22.2962 8.15672C22.1997 6.16324 21.4251 3.96017 20.6129 2.06136C19.8008 3.95957 19.0261 6.16324 18.9297 8.15672C18.9195 8.36095 18.8058 8.54553 18.6278 8.64616C18.4503 8.74679 18.2324 8.74857 18.0526 8.65212C17.0213 8.09658 15.971 7.70896 14.9171 7.49342C15.6977 8.93375 16.1776 10.4509 16.3479 12.0169C16.3735 12.2544 16.255 12.4849 16.046 12.601C15.837 12.7171 15.5792 12.698 15.3905 12.551C14.1674 11.6001 12.6819 11.0969 10.8748 11.0261Z" fill="black"/>
<path d="M8.42507 36.4221C8.19405 36.4221 7.97434 36.2864 7.87728 36.0613C7.15563 34.3756 6.79004 32.4113 6.79004 30.2226C6.79004 21.1852 12.9908 13.8335 20.6134 13.8335C28.236 13.8335 34.4374 21.1858 34.4374 30.2226C34.4374 32.2571 34.1206 34.1018 33.4954 35.7046C33.3757 36.0119 33.0292 36.1631 32.7244 36.0428C32.4177 35.9238 32.2665 35.5784 32.3862 35.2718C32.9572 33.807 33.2465 32.1083 33.2465 30.2226C33.2465 21.842 27.5799 15.0243 20.6134 15.0243C13.6475 15.0243 7.98089 21.8426 7.98089 30.2226C7.98089 32.2488 8.31433 34.0553 8.97227 35.5921C9.10148 35.8946 8.96155 36.2447 8.65908 36.3733C8.58286 36.4072 8.50307 36.4221 8.42507 36.4221Z" fill="black"/>
<path d="M30.6418 34.2089C30.5405 34.2089 30.4381 34.1833 30.3441 34.1285C29.7153 33.7647 29.096 33.395 28.4857 33.0187C28.2059 32.846 28.1195 32.4792 28.2916 32.1988C28.4643 31.9189 28.8305 31.8326 29.1115 32.0047C29.7117 32.375 30.3214 32.74 30.9407 33.0985C31.2253 33.2628 31.3229 33.6272 31.1574 33.9118C31.0472 34.1023 30.8478 34.2089 30.6418 34.2089Z" fill="black"/>
<path d="M25.3695 30.8543C25.2516 30.8543 25.1331 30.8192 25.0289 30.7465C20.3614 27.4824 16.2899 23.7616 12.9275 19.6877C12.7179 19.4341 12.7537 19.059 13.0073 18.8494C13.2616 18.6404 13.6361 18.6761 13.8457 18.9292C17.1402 22.9203 21.1319 26.5673 25.7113 29.77C25.9804 29.9582 26.0459 30.3291 25.8578 30.5995C25.7423 30.7656 25.5571 30.8543 25.3695 30.8543Z" fill="black"/>
<path d="M18.6702 36.1113C18.5482 36.1113 18.4255 36.0744 18.3195 35.997C14.8887 33.4879 11.8371 30.4839 9.25062 27.0698C9.05234 26.8078 9.10355 26.4339 9.36553 26.2356C9.62752 26.0367 10.0009 26.0885 10.1997 26.3505C12.7166 29.6736 15.6842 32.5953 19.0221 35.0354C19.2877 35.2295 19.3454 35.6022 19.1513 35.8672C19.0346 36.0267 18.8536 36.1113 18.6702 36.1113Z" fill="black"/>
<path d="M10.5835 34.2089C10.3781 34.2089 10.178 34.1023 10.0673 33.9118C9.90292 33.6266 9.99997 33.2628 10.2846 33.0985C10.9038 32.74 11.5135 32.375 12.1143 32.0047C12.3948 31.832 12.761 31.9189 12.9336 32.1994C13.1063 32.4792 13.0194 32.846 12.7395 33.0187C12.1292 33.395 11.51 33.7647 10.8812 34.1285C10.7877 34.1833 10.6847 34.2089 10.5835 34.2089Z" fill="black"/>
<path d="M15.8558 30.8543C15.6683 30.8543 15.4831 30.7662 15.3676 30.6C15.1788 30.3303 15.2443 29.9594 15.514 29.7706C20.0935 26.5678 24.0858 22.9208 27.3791 18.9297C27.5893 18.6767 27.9626 18.6391 28.2174 18.8499C28.4711 19.0589 28.5068 19.434 28.2978 19.6883C24.936 23.7616 20.8639 27.4824 16.1964 30.7471C16.0922 30.8191 15.9731 30.8543 15.8558 30.8543Z" fill="black"/>
<path d="M22.5549 36.1113C22.371 36.1113 22.1905 36.0268 22.0738 35.8672C21.8797 35.6022 21.9375 35.2295 22.203 35.0354C25.541 32.5947 28.5086 29.673 31.0255 26.3505C31.2231 26.0885 31.5959 26.0361 31.859 26.235C32.121 26.4333 32.1728 26.8072 31.974 27.0692C29.388 30.4839 26.3365 33.4879 22.9056 35.997C22.7997 36.0738 22.6764 36.1113 22.5549 36.1113Z" fill="black"/>
</svg>
