<svg width="76" height="50" viewBox="0 0 76 50" fill="none" xmlns="http://www.w3.org/2000/svg">
<path d="M74.991 19.7581L71.0081 16.826C64.693 8.62685 51.6572 5.77719 37.5023 15.6198C36.8316 16.0844 36.1025 16.485 35.3243 16.826L0 16.9954C0 16.9954 0 26.0344 0 26.1992C0 39.4226 9.37553 50 36.4163 50C60.3097 50 75.0048 44.7125 75.0048 28.843C75.0048 27.7762 74.991 19.7581 74.991 19.7581Z" fill="#DA4453"/>
<path opacity="0.1" d="M62.5024 46.3354V34.831H59.3779V47.4158C60.4721 47.0884 61.5136 46.7314 62.5024 46.3354Z" fill="black"/>
<path opacity="0.1" d="M53.1269 48.8279V37.8249H50.0024V49.2766C51.076 49.1461 52.1152 48.9974 53.1269 48.8279Z" fill="black"/>
<path opacity="0.1" d="M43.7508 49.8122V38.9967H40.6265V49.9427C41.6909 49.9106 42.7302 49.8695 43.7508 49.8122Z" fill="black"/>
<path opacity="0.1" d="M34.377 49.9793V38.9967H31.2515V49.8626C32.2643 49.9175 33.3059 49.9587 34.377 49.9793Z" fill="black"/>
<path opacity="0.1" d="M25.0012 49.2559V38.2895H21.8755V48.7227C22.8781 48.9218 23.9184 49.1004 25.0012 49.2559Z" fill="black"/>
<path opacity="0.1" d="M15.6255 47.0151V34.8308H12.5V45.7173C13.4773 46.1842 14.5176 46.6191 15.6255 47.0151Z" fill="black"/>
<path d="M37.5024 6.24628C26.5692 13.8457 0 3.60259 0 16.826C0 30.0493 9.37553 40.6289 36.4163 40.6289C60.3097 40.6289 75.0048 35.3392 75.0048 19.4697C75.0048 3.60259 57.3567 -7.5561 37.5024 6.24628Z" fill="#ED5564"/>
<path d="M15.6258 26.5607C13.0851 26.5607 10.938 25.1302 10.938 23.4364C10.938 21.7426 13.0851 20.3119 15.6258 20.3119C18.1666 20.3119 20.3135 21.7426 20.3135 23.4364C20.3135 25.1302 18.1666 26.5607 15.6258 26.5607Z" fill="#CCD1D9"/>
<path d="M15.6255 18.7487C12.1737 18.7487 9.37549 20.8477 9.37549 23.4366C9.37549 26.0252 12.1739 28.1243 15.6255 28.1243C19.0773 28.1243 21.8755 26.0253 21.8755 23.4366C21.8755 20.8477 19.0773 18.7487 15.6255 18.7487ZM15.6255 24.9998C13.6868 24.9998 12.5 23.9883 12.5 23.4366C12.5 22.8849 13.6868 21.8731 15.6255 21.8731C17.5642 21.8731 18.7512 22.8849 18.7512 23.4366C18.7512 23.9883 17.5642 24.9998 15.6255 24.9998Z" fill="#E6E9ED"/>
<path d="M20.5767 39.0723C25.0037 40.0772 30.251 40.6289 36.4164 40.6289C39.0212 40.6289 41.5173 40.5647 43.8955 40.432L35.0945 28.479L20.5767 39.0723Z" fill="#F5F7FA"/>
<path d="M34.0475 21.3512C32.1157 15.9355 31.0823 11.0486 30.6656 8.7984C29.663 8.97698 28.6227 9.10517 27.5594 9.20127C27.9714 11.4765 29.0268 16.5649 31.0845 22.3468C31.7906 24.3335 32.5528 26.2196 33.3642 27.9982C31.8477 30.1064 28.8583 32.4823 24.649 34.9155C21.3975 36.7947 18.4504 38.1041 17.8496 38.3649C19.3638 38.8089 20.9877 39.1935 22.7262 39.5117C26.3451 37.6761 31.7036 34.5927 34.8795 31.0746C35.4712 32.1893 36.0847 33.2536 36.7187 34.2608C38.241 36.6756 39.8879 38.7723 41.6412 40.5348C43.1566 40.4799 44.6305 40.3974 46.0543 40.2899C40.0756 35.5999 36.2519 27.5336 34.0475 21.3512Z" fill="#E6E9ED"/>
</svg>
