<svg width="60" height="50" viewBox="0 0 60 50" fill="none" xmlns="http://www.w3.org/2000/svg">
<path d="M41.0476 23.5393C41.0476 23.5318 41.0479 23.5244 41.0479 23.5172C41.0479 23.5135 41.0473 23.5095 41.0473 23.5057C41.035 17.4852 39.2738 12.909 35.806 9.90124C32.8111 7.30339 28.6604 5.98627 23.4696 5.98627C22.491 5.98615 21.502 6.06856 20.524 6.23164C19.5454 6.06856 18.5567 5.98592 17.5784 5.98627C12.3839 5.98627 8.23469 7.29342 5.24647 9.87169C1.76497 12.8752 -0.000115897 17.4662 5.70764e-09 23.5172C-0.000115897 28.9993 2.1347 34.1533 6.01132 38.0298C9.88793 41.9063 15.0418 44.0412 20.5239 44.0411C26.0063 44.0411 31.1602 41.9063 35.0367 38.0298C38.8972 34.1695 41.0295 29.0418 41.0471 23.585C41.0471 23.5796 41.048 23.5742 41.048 23.5688C41.0479 23.5589 41.0476 23.5493 41.0476 23.5393Z" fill="#E07188"/>
<path d="M41.0478 23.5172C41.0478 23.5135 41.0472 23.5095 41.0472 23.5057C41.035 17.4852 39.2737 12.909 35.8059 9.90124C32.811 7.30339 28.6603 5.98627 23.4695 5.98627C22.4909 5.98615 21.5019 6.06856 20.5239 6.23163V44.0409C26.006 44.0409 31.1601 41.906 35.0365 38.0295C38.897 34.1693 41.0293 29.0416 41.0469 23.5848C41.0469 23.5793 41.0478 23.574 41.0478 23.5685C41.0478 23.5588 41.0475 23.549 41.0475 23.5392C41.0475 23.5318 41.0478 23.5246 41.0478 23.5172Z" fill="#DC4161"/>
<path d="M27.9908 11.4297L23.2393 7.76747L25.0631 3.07525C25.5144 1.9132 24.9386 0.605351 23.777 0.153908C22.6152 -0.29765 21.3076 0.278156 20.8559 1.43985L18.6481 7.12015L13.057 11.4294C12.0697 12.1904 11.8863 13.6076 12.6472 14.5947C12.7076 14.6734 12.7722 14.7468 12.8405 14.815C13.6307 15.6052 14.9036 15.7047 15.8124 15.0046L18.267 13.1127V15.5265C18.2669 16.1497 18.5196 16.7139 18.9281 17.1221C19.3364 17.5306 19.9006 17.7834 20.5237 17.7834C21.7703 17.7834 22.7807 16.7729 22.7806 15.5265V13.1127L25.2352 15.0046C26.2224 15.7655 27.6395 15.582 28.4005 14.5947C29.1612 13.6077 28.9778 12.1902 27.9908 11.4297Z" fill="#A8DA64"/>
<path d="M51.3761 25.9181C51.7264 23.187 50.6872 20.3805 48.5252 18.2186L45.9859 15.6792C43.824 13.5174 41.0177 12.4787 38.2868 12.8291C35.5556 13.1793 33.1024 14.8932 31.5565 17.5306L14.5146 46.6016C13.9952 47.4877 14.1393 48.6125 14.8656 49.3388C15.5918 50.0649 16.7168 50.2093 17.6028 49.6901L46.6741 32.6485C49.3119 31.1026 51.0258 28.6494 51.3761 25.9181Z" fill="#E17858"/>
<path d="M51.376 25.9181C51.7264 23.187 50.6872 20.3805 48.5251 18.2186L47.2555 16.949L14.8657 49.339C15.5919 50.0651 16.7168 50.2095 17.6027 49.6902L46.6741 32.6488C49.3119 31.1026 51.0258 28.6494 51.376 25.9181Z" fill="#DD512A"/>
<path d="M46.8694 29.2578L42.7661 25.1546C41.8848 24.2733 40.456 24.2733 39.5745 25.1546C38.6933 26.0359 38.6932 27.4651 39.5745 28.3464L43.6775 32.4494C44.5589 33.3306 45.9878 33.3306 46.8694 32.4494C47.7507 31.5681 47.7507 30.1392 46.8694 29.2578Z" fill="#E17858"/>
<path d="M33.1206 28.2044L30.2555 25.3391C30.2555 25.3389 30.2555 25.3391 30.2555 25.3389C29.3743 24.4577 27.9452 24.4577 27.0639 25.3389C26.1825 26.2202 26.1825 27.6491 27.0635 28.5305L29.9289 31.3959C29.929 31.3959 29.9289 31.3959 29.929 31.3959C30.8101 32.2771 32.2393 32.2773 33.1205 31.396C34.0018 30.5147 34.0018 29.086 33.1206 28.2044Z" fill="#DD512A"/>
<path d="M59.3283 17.026C59.1907 15.7872 58.0747 14.8945 56.836 15.0322L51.805 15.5913L56.1418 11.2543C57.0232 10.3731 57.0232 8.944 56.1418 8.06268C55.2606 7.18135 53.8315 7.18135 52.9502 8.06268L48.6132 12.3997L49.1722 7.36865C49.3096 6.12976 48.4172 5.01408 47.1785 4.8765C45.9396 4.73881 44.8238 5.63149 44.6861 6.87027L43.4168 18.2956C43.4162 18.3003 43.4165 18.3048 43.416 18.3094C43.4157 18.312 43.4152 18.3141 43.415 18.3169C43.4145 18.3208 43.4135 18.3249 43.4131 18.3289C43.4095 18.3681 43.4091 18.4076 43.4074 18.447C43.4059 18.4817 43.403 18.5162 43.403 18.551C43.403 18.5545 43.4027 18.5584 43.4029 18.562C43.403 18.5878 43.4064 18.6141 43.4073 18.6401C43.4094 18.6869 43.4109 18.7333 43.4159 18.7798C43.4164 18.7846 43.4162 18.7894 43.4168 18.7945C43.4172 18.7972 43.4177 18.7995 43.418 18.8021C43.421 18.8279 43.426 18.8528 43.4297 18.8783C43.4315 18.889 43.433 18.8995 43.4347 18.91C43.4387 18.9349 43.4413 18.9597 43.4461 18.9842C43.4493 18.9999 43.4537 19.0151 43.4568 19.0306C43.4633 19.0592 43.4702 19.087 43.4776 19.1152C43.4835 19.1378 43.4881 19.1611 43.4946 19.1832C43.499 19.1982 43.5047 19.2121 43.5095 19.227C43.5136 19.24 43.5182 19.2527 43.5226 19.2655C43.5297 19.2872 43.5364 19.3089 43.5444 19.3302C43.5503 19.3463 43.5561 19.3629 43.5626 19.379C43.5713 19.4008 43.5816 19.4223 43.5909 19.4439C43.6092 19.4859 43.6279 19.5277 43.6487 19.5681C43.6604 19.5912 43.673 19.6137 43.6855 19.6362C43.7048 19.6711 43.7247 19.7054 43.7454 19.7391C43.7511 19.7483 43.7566 19.7576 43.7626 19.7668C43.7731 19.7831 43.7841 19.7993 43.7954 19.8154C43.8225 19.8551 43.8505 19.893 43.8797 19.9306C43.8878 19.9407 43.8949 19.9518 43.903 19.962C43.9087 19.9691 43.9151 19.9761 43.9209 19.9833C43.966 20.0378 44.0129 20.0908 44.0627 20.1406C44.0631 20.1409 44.0636 20.1412 44.0638 20.1416C44.0643 20.142 44.0646 20.1424 44.0648 20.1427C44.1147 20.1925 44.1676 20.2396 44.2221 20.2845C44.2293 20.2905 44.2364 20.2967 44.2434 20.3024C44.2536 20.3106 44.2648 20.3177 44.2748 20.3257C44.3125 20.3548 44.3504 20.3831 44.3901 20.4101C44.4061 20.4211 44.4223 20.4323 44.4386 20.4429C44.4477 20.4488 44.4572 20.4543 44.4663 20.46C44.5 20.4809 44.5344 20.5007 44.5692 20.5199C44.5916 20.5325 44.6142 20.5449 44.6373 20.5567C44.6778 20.5774 44.7196 20.5961 44.7615 20.6144C44.7831 20.6237 44.8044 20.634 44.8264 20.6427C44.8424 20.6491 44.8589 20.6549 44.875 20.6609C44.8967 20.669 44.9186 20.6756 44.9406 20.683C44.9532 20.6872 44.9657 20.6919 44.9784 20.6958C44.9933 20.7004 45.0072 20.7062 45.0222 20.7107C45.0443 20.7172 45.0672 20.7217 45.0896 20.7275C45.118 20.7349 45.1463 20.7421 45.1753 20.7484C45.1906 20.7519 45.2056 20.7563 45.2211 20.7591C45.2457 20.7639 45.2705 20.7665 45.2953 20.7705C45.3052 20.7721 45.3154 20.7737 45.3254 20.7752C45.3516 20.7791 45.3773 20.7844 45.4036 20.7873C45.4061 20.7874 45.4083 20.7881 45.4108 20.7884C45.4158 20.789 45.4206 20.7888 45.4255 20.7893C45.4721 20.7942 45.5188 20.7959 45.5657 20.7979C45.5913 20.7989 45.6175 20.8021 45.643 20.8024C45.6467 20.8023 45.6509 20.8021 45.6544 20.8019C45.6893 20.8023 45.7246 20.799 45.7593 20.7975C45.7985 20.7959 45.8377 20.7956 45.8761 20.792C45.8817 20.7915 45.8873 20.79 45.8932 20.7895C45.8938 20.7894 45.8947 20.7892 45.8953 20.7891C45.8999 20.7886 45.9048 20.789 45.9094 20.7884L57.3349 19.5188C58.5734 19.3806 59.466 18.2648 59.3283 17.026Z" fill="#A8DA64"/>
<path d="M59.328 17.0261C59.1903 15.7872 58.0744 14.8945 56.8357 15.0322L51.8046 15.5913L56.1415 11.2543C57.0228 10.3731 57.0228 8.94401 56.1415 8.06268L44.0635 20.1406C44.0639 20.1409 44.0643 20.1414 44.0645 20.1416C44.1144 20.1915 44.1673 20.2385 44.2218 20.2835C44.229 20.2894 44.2361 20.2957 44.2431 20.3014C44.2533 20.3096 44.2645 20.3167 44.2745 20.3247C44.3122 20.3537 44.3501 20.382 44.3897 20.409C44.4057 20.42 44.422 20.4313 44.4383 20.4418C44.4473 20.4477 44.4569 20.4533 44.466 20.459C44.4997 20.4799 44.534 20.4996 44.5689 20.5189C44.5913 20.5314 44.6139 20.5438 44.637 20.5557C44.6775 20.5764 44.7193 20.5951 44.7612 20.6134C44.7828 20.6226 44.8041 20.633 44.8261 20.6416C44.8421 20.648 44.8586 20.6538 44.8747 20.6598C44.8964 20.668 44.9183 20.6746 44.9403 20.682C44.9529 20.6862 44.9654 20.6909 44.9781 20.6947C44.993 20.6994 45.0069 20.7052 45.0219 20.7097C45.044 20.7162 45.0668 20.7207 45.0893 20.7265C45.1177 20.7339 45.146 20.7411 45.175 20.7474C45.1903 20.7508 45.2052 20.7552 45.2208 20.758C45.2453 20.7629 45.2701 20.7654 45.2949 20.7695C45.3049 20.7711 45.3151 20.7726 45.3251 20.7741C45.3513 20.7781 45.377 20.7834 45.4033 20.7863C45.4058 20.7864 45.408 20.7871 45.4105 20.7873C45.4155 20.7879 45.4202 20.7878 45.4252 20.7883C45.4718 20.7931 45.5185 20.7949 45.5653 20.7968C45.591 20.7979 45.6172 20.801 45.6427 20.8014C45.6464 20.8012 45.6505 20.801 45.6541 20.8009C45.689 20.8012 45.7243 20.798 45.759 20.7965C45.7982 20.7949 45.8374 20.7945 45.8757 20.7909C45.8814 20.7905 45.887 20.789 45.8929 20.7885C45.8935 20.7884 45.8944 20.7882 45.895 20.788C45.8996 20.7876 45.9045 20.7879 45.9091 20.7872L57.3346 19.5176C58.573 19.3806 59.4657 18.2648 59.328 17.0261Z" fill="#78B86D"/>
<path d="M27.9908 11.4297L23.2393 7.76747L25.063 3.07525C25.5144 1.9132 24.9386 0.605351 23.777 0.153908C22.6152 -0.29765 21.3075 0.278156 20.8559 1.43985L20.5239 2.29383V17.7834C21.7703 17.7834 22.7808 16.7727 22.7807 15.5265V13.1127L25.2353 15.0046C26.2225 15.7655 27.6396 15.582 28.4006 14.5947C29.1611 13.6077 28.9778 12.1902 27.9908 11.4297Z" fill="#78B86D"/>
</svg>
